<svg width="1426" height="1024" viewBox="0 0 1426 1024" fill="none" xmlns="http://www.w3.org/2000/svg">
<rect x="0.5" y="0.5" width="1425" height="1023" fill="white" stroke="#C4C4C4"/>
<rect width="1426" height="53" fill="#EDEDED"/>
<rect x="97" y="13" width="1316" height="27" fill="white"/>
<ellipse cx="26.8075" cy="26.7942" rx="7.88462" ry="7.88066" fill="#C4C4C4"/>
<ellipse cx="48.8846" cy="26.7942" rx="7.88462" ry="7.88066" fill="#C4C4C4"/>
<ellipse cx="70.9613" cy="26.7942" rx="7.88462" ry="7.88066" fill="#C4C4C4"/>
<path d="M109.222 24.499C109.782 23.8109 110.511 23.4668 111.409 23.4668C112.972 23.4668 113.761 24.3486 113.774 26.1123V31H112.51V26.1055C112.505 25.5723 112.382 25.1781 112.141 24.9229C111.904 24.6676 111.532 24.54 111.026 24.54C110.616 24.54 110.256 24.6494 109.946 24.8682C109.636 25.0869 109.395 25.374 109.222 25.7295V31H107.957V20.5H109.222V24.499ZM117.384 21.8125V23.6035H118.765V24.5811H117.384V29.168C117.384 29.4642 117.445 29.6875 117.568 29.8379C117.691 29.9837 117.901 30.0566 118.197 30.0566C118.343 30.0566 118.544 30.0293 118.799 29.9746V31C118.466 31.0911 118.143 31.1367 117.828 31.1367C117.263 31.1367 116.837 30.9658 116.55 30.624C116.263 30.2822 116.119 29.7969 116.119 29.168V24.5811H114.772V23.6035H116.119V21.8125H117.384ZM121.964 21.8125V23.6035H123.345V24.5811H121.964V29.168C121.964 29.4642 122.025 29.6875 122.148 29.8379C122.271 29.9837 122.481 30.0566 122.777 30.0566C122.923 30.0566 123.124 30.0293 123.379 29.9746V31C123.046 31.0911 122.723 31.1367 122.408 31.1367C121.843 31.1367 121.417 30.9658 121.13 30.624C120.843 30.2822 120.699 29.7969 120.699 29.168V24.5811H119.353V23.6035H120.699V21.8125H121.964ZM131.076 27.3838C131.076 28.5094 130.819 29.4163 130.304 30.1045C129.789 30.7926 129.091 31.1367 128.212 31.1367C127.314 31.1367 126.608 30.8519 126.093 30.2822V33.8438H124.828V23.6035H125.983L126.045 24.4238C126.56 23.7858 127.275 23.4668 128.191 23.4668C129.08 23.4668 129.782 23.8018 130.297 24.4717C130.816 25.1416 131.076 26.0736 131.076 27.2676V27.3838ZM129.812 27.2402C129.812 26.4062 129.634 25.7477 129.278 25.2646C128.923 24.7816 128.435 24.54 127.815 24.54C127.05 24.54 126.476 24.8796 126.093 25.5586V29.0928C126.471 29.7673 127.05 30.1045 127.829 30.1045C128.435 30.1045 128.916 29.8652 129.271 29.3867C129.632 28.9036 129.812 28.1882 129.812 27.2402ZM132.648 30.3369C132.648 30.1182 132.712 29.9359 132.84 29.79C132.972 29.6442 133.168 29.5713 133.428 29.5713C133.688 29.5713 133.883 29.6442 134.016 29.79C134.152 29.9359 134.221 30.1182 134.221 30.3369C134.221 30.5465 134.152 30.722 134.016 30.8633C133.883 31.0046 133.688 31.0752 133.428 31.0752C133.168 31.0752 132.972 31.0046 132.84 30.8633C132.712 30.722 132.648 30.5465 132.648 30.3369ZM132.655 24.3008C132.655 24.082 132.719 23.8997 132.847 23.7539C132.979 23.6081 133.175 23.5352 133.435 23.5352C133.694 23.5352 133.89 23.6081 134.022 23.7539C134.159 23.8997 134.228 24.082 134.228 24.3008C134.228 24.5104 134.159 24.6859 134.022 24.8271C133.89 24.9684 133.694 25.0391 133.435 25.0391C133.175 25.0391 132.979 24.9684 132.847 24.8271C132.719 24.6859 132.655 24.5104 132.655 24.3008ZM136.333 31.8545H135.246L139.402 21.0469H140.482L136.333 31.8545ZM140.571 31.8545H139.484L143.641 21.0469H144.721L140.571 31.8545ZM150.709 21.5732C150.144 21.4821 149.688 21.4365 149.342 21.4365C148.43 21.4365 147.975 21.915 147.975 22.8721V23.6035H149.554V24.5811H147.975V31H146.71V24.5811H145.541V23.6035H146.71V22.7969C146.715 22.0085 146.936 21.4046 147.373 20.9854C147.811 20.5661 148.433 20.3564 149.239 20.3564C149.7 20.3564 150.611 20.4954 151.974 20.7734V31H150.709V21.5732ZM156.465 29.1475L158.188 23.6035H159.541L156.567 32.1416C156.107 33.3721 155.376 33.9873 154.373 33.9873L154.134 33.9668L153.662 33.8779V32.8525L154.004 32.8799C154.432 32.8799 154.765 32.7933 155.002 32.6201C155.243 32.4469 155.442 32.1302 155.597 31.6699L155.877 30.918L153.238 23.6035H154.619L156.465 29.1475ZM166.938 27.3838C166.938 28.514 166.678 29.4232 166.158 30.1113C165.639 30.7949 164.941 31.1367 164.066 31.1367C163.132 31.1367 162.41 30.8063 161.899 30.1455L161.838 31H160.676V20.5H161.94V24.417C162.451 23.7835 163.155 23.4668 164.053 23.4668C164.951 23.4668 165.655 23.8063 166.165 24.4854C166.68 25.1644 166.938 26.0941 166.938 27.2744V27.3838ZM165.673 27.2402C165.673 26.3789 165.507 25.7135 165.174 25.2441C164.841 24.7747 164.363 24.54 163.738 24.54C162.904 24.54 162.305 24.9274 161.94 25.7021V28.9014C162.328 29.6761 162.932 30.0635 163.752 30.0635C164.358 30.0635 164.83 29.8288 165.167 29.3594C165.504 28.89 165.673 28.1836 165.673 27.2402ZM169.911 31H168.646V23.6035H169.911V31ZM168.544 21.6416C168.544 21.4365 168.605 21.2633 168.729 21.1221C168.856 20.9808 169.043 20.9102 169.289 20.9102C169.535 20.9102 169.722 20.9808 169.85 21.1221C169.977 21.2633 170.041 21.4365 170.041 21.6416C170.041 21.8467 169.977 22.0176 169.85 22.1543C169.722 22.291 169.535 22.3594 169.289 22.3594C169.043 22.3594 168.856 22.291 168.729 22.1543C168.605 22.0176 168.544 21.8467 168.544 21.6416ZM175.517 24.7383C175.325 24.7064 175.118 24.6904 174.895 24.6904C174.065 24.6904 173.502 25.0436 173.206 25.75V31H171.941V23.6035H173.172L173.192 24.458C173.607 23.7972 174.195 23.4668 174.956 23.4668C175.202 23.4668 175.389 23.4987 175.517 23.5625V24.7383ZM176.241 27.2402C176.241 26.1055 176.51 25.194 177.048 24.5059C177.586 23.8132 178.29 23.4668 179.16 23.4668C180.026 23.4668 180.712 23.763 181.218 24.3555V20.5H182.482V31H181.32L181.259 30.207C180.753 30.8268 180.049 31.1367 179.146 31.1367C178.29 31.1367 177.59 30.7858 177.048 30.084C176.51 29.3822 176.241 28.4661 176.241 27.3359V27.2402ZM177.506 27.3838C177.506 28.2223 177.679 28.8786 178.025 29.3525C178.372 29.8265 178.85 30.0635 179.461 30.0635C180.263 30.0635 180.849 29.7035 181.218 28.9834V25.5859C180.84 24.8887 180.258 24.54 179.475 24.54C178.855 24.54 178.372 24.7793 178.025 25.2578C177.679 25.7363 177.506 26.445 177.506 27.3838ZM189.072 21.5732C188.507 21.4821 188.051 21.4365 187.705 21.4365C186.794 21.4365 186.338 21.915 186.338 22.8721V23.6035H187.917V24.5811H186.338V31H185.073V24.5811H183.904V23.6035H185.073V22.7969C185.078 22.0085 185.299 21.4046 185.736 20.9854C186.174 20.5661 186.796 20.3564 187.603 20.3564C188.063 20.3564 188.974 20.4954 190.337 20.7734V31H189.072V21.5732ZM194.828 29.1475L196.551 23.6035H197.904L194.931 32.1416C194.47 33.3721 193.739 33.9873 192.736 33.9873L192.497 33.9668L192.025 33.8779V32.8525L192.367 32.8799C192.796 32.8799 193.128 32.7933 193.365 32.6201C193.607 32.4469 193.805 32.1302 193.96 31.6699L194.24 30.918L191.602 23.6035H192.982L194.828 29.1475ZM198.328 30.3369C198.328 30.1182 198.392 29.9359 198.52 29.79C198.652 29.6442 198.848 29.5713 199.107 29.5713C199.367 29.5713 199.563 29.6442 199.695 29.79C199.832 29.9359 199.9 30.1182 199.9 30.3369C199.9 30.5465 199.832 30.722 199.695 30.8633C199.563 31.0046 199.367 31.0752 199.107 31.0752C198.848 31.0752 198.652 31.0046 198.52 30.8633C198.392 30.722 198.328 30.5465 198.328 30.3369ZM204.959 30.1045C205.41 30.1045 205.804 29.9678 206.142 29.6943C206.479 29.4209 206.666 29.0791 206.702 28.6689H207.898C207.876 29.0928 207.73 29.4961 207.461 29.8789C207.192 30.2617 206.832 30.5671 206.381 30.7949C205.934 31.0228 205.46 31.1367 204.959 31.1367C203.952 31.1367 203.15 30.8018 202.553 30.1318C201.96 29.4574 201.664 28.5368 201.664 27.3701V27.1582C201.664 26.4382 201.796 25.7979 202.061 25.2373C202.325 24.6768 202.703 24.2415 203.195 23.9316C203.692 23.6217 204.278 23.4668 204.952 23.4668C205.782 23.4668 206.47 23.7152 207.017 24.2119C207.568 24.7087 207.862 25.3535 207.898 26.1465H206.702C206.666 25.668 206.483 25.276 206.155 24.9707C205.832 24.6608 205.431 24.5059 204.952 24.5059C204.31 24.5059 203.811 24.7383 203.455 25.2031C203.104 25.6634 202.929 26.3311 202.929 27.2061V27.4453C202.929 28.2975 203.104 28.9538 203.455 29.4141C203.806 29.8743 204.307 30.1045 204.959 30.1045ZM208.985 27.2334C208.985 26.5088 209.127 25.8571 209.409 25.2783C209.696 24.6995 210.093 24.2529 210.599 23.9385C211.109 23.624 211.69 23.4668 212.342 23.4668C213.349 23.4668 214.162 23.8154 214.782 24.5127C215.407 25.21 215.719 26.1374 215.719 27.2949V27.3838C215.719 28.1038 215.58 28.751 215.302 29.3252C215.028 29.8949 214.634 30.3392 214.119 30.6582C213.609 30.9772 213.021 31.1367 212.355 31.1367C211.353 31.1367 210.539 30.7881 209.915 30.0908C209.295 29.3936 208.985 28.4707 208.985 27.3223V27.2334ZM210.257 27.3838C210.257 28.2041 210.446 28.8626 210.824 29.3594C211.207 29.8561 211.717 30.1045 212.355 30.1045C212.998 30.1045 213.508 29.8538 213.887 29.3525C214.265 28.8467 214.454 28.1403 214.454 27.2334C214.454 26.4222 214.26 25.766 213.873 25.2646C213.49 24.7588 212.98 24.5059 212.342 24.5059C211.717 24.5059 211.214 24.7542 210.831 25.251C210.448 25.7477 210.257 26.4587 210.257 27.3838ZM218.494 23.6035L218.528 24.4238C219.071 23.7858 219.802 23.4668 220.723 23.4668C221.757 23.4668 222.461 23.8633 222.835 24.6562C223.081 24.3008 223.4 24.0137 223.792 23.7949C224.188 23.5762 224.656 23.4668 225.193 23.4668C226.816 23.4668 227.641 24.3258 227.668 26.0439V31H226.403V26.1191C226.403 25.5905 226.283 25.1963 226.041 24.9365C225.799 24.6722 225.394 24.54 224.824 24.54C224.355 24.54 223.965 24.6813 223.655 24.9639C223.345 25.2419 223.165 25.6178 223.115 26.0918V31H221.844V26.1533C221.844 25.0778 221.317 24.54 220.265 24.54C219.435 24.54 218.868 24.8932 218.562 25.5996V31H217.298V23.6035H218.494Z" fill="black"/>
<rect x="1.5" y="54.5" width="1423" height="99" rx="2.5" stroke="#C4C4C4" stroke-width="3"/>
<rect x="1.5" y="889.5" width="1423" height="99" rx="2.5" stroke="#C4C4C4" stroke-width="3"/>
<rect x="1.5" y="991.5" width="1423" height="31" rx="2.5" fill="black" stroke="black" stroke-width="3"/>
<path d="M1387.9 936.9L1385.29 939.476C1383.21 941.492 1381.9 943.2 1381.9 947.4H1376.1V946C1376.1 942.892 1377.41 940.092 1379.49 938.076L1383.09 934.548C1384.16 933.54 1384.8 932.14 1384.8 930.6C1384.8 927.492 1382.19 925 1379 925C1377.46 925 1375.99 925.59 1374.9 926.64C1373.81 927.69 1373.2 929.115 1373.2 930.6H1367.4C1367.4 927.63 1368.62 924.781 1370.8 922.68C1372.97 920.58 1375.92 919.4 1379 919.4C1382.08 919.4 1385.03 920.58 1387.2 922.68C1389.38 924.781 1390.6 927.63 1390.6 930.6C1390.6 933.064 1389.56 935.276 1387.9 936.9ZM1381.9 958.6H1376.1V953H1381.9V958.6ZM1379 911C1375.19 911 1371.42 911.724 1367.9 913.131C1364.38 914.539 1361.19 916.601 1358.49 919.201C1353.06 924.452 1350 931.574 1350 939C1350 946.426 1353.06 953.548 1358.49 958.799C1361.19 961.399 1364.38 963.461 1367.9 964.869C1371.42 966.276 1375.19 967 1379 967C1386.69 967 1394.07 964.05 1399.51 958.799C1404.94 953.548 1408 946.426 1408 939C1408 923.516 1394.95 911 1379 911Z" fill="#686B6F"/>
<path d="M115.76 113.493C113.348 112.8 111.59 111.95 110.486 110.944C109.393 109.929 108.846 108.679 108.846 107.194C108.846 105.515 109.515 104.128 110.853 103.034C112.2 101.931 113.948 101.379 116.097 101.379C117.562 101.379 118.865 101.662 120.008 102.229C121.16 102.795 122.049 103.576 122.674 104.572C123.309 105.568 123.626 106.657 123.626 107.839H120.799C120.799 106.55 120.389 105.539 119.568 104.807C118.748 104.064 117.591 103.693 116.097 103.693C114.71 103.693 113.626 104.001 112.845 104.616C112.073 105.222 111.688 106.066 111.688 107.15C111.688 108.02 112.054 108.757 112.786 109.362C113.528 109.958 114.783 110.505 116.551 111.003C118.328 111.501 119.715 112.053 120.711 112.658C121.717 113.254 122.459 113.952 122.938 114.753C123.426 115.554 123.67 116.496 123.67 117.58C123.67 119.309 122.996 120.695 121.648 121.74C120.301 122.775 118.499 123.293 116.243 123.293C114.778 123.293 113.411 123.015 112.142 122.458C110.872 121.892 109.891 121.12 109.197 120.144C108.514 119.167 108.172 118.059 108.172 116.818H110.999C110.999 118.107 111.473 119.128 112.42 119.88C113.377 120.622 114.651 120.993 116.243 120.993C117.728 120.993 118.865 120.69 119.656 120.085C120.447 119.479 120.843 118.654 120.843 117.609C120.843 116.564 120.477 115.759 119.744 115.192C119.012 114.616 117.684 114.05 115.76 113.493ZM129.412 107.15L129.485 108.908C130.647 107.541 132.215 106.857 134.188 106.857C136.404 106.857 137.913 107.707 138.714 109.406C139.241 108.645 139.925 108.029 140.765 107.561C141.614 107.092 142.615 106.857 143.768 106.857C147.244 106.857 149.012 108.698 149.07 112.38V123H146.36V112.541C146.36 111.408 146.102 110.563 145.584 110.007C145.066 109.44 144.197 109.157 142.977 109.157C141.971 109.157 141.136 109.46 140.472 110.065C139.808 110.661 139.422 111.467 139.314 112.482V123H136.59V112.614C136.59 110.31 135.462 109.157 133.206 109.157C131.429 109.157 130.213 109.914 129.559 111.428V123H126.849V107.15H129.412ZM162.957 123C162.801 122.688 162.674 122.131 162.576 121.33C161.316 122.639 159.812 123.293 158.064 123.293C156.502 123.293 155.218 122.854 154.212 121.975C153.216 121.086 152.718 119.963 152.718 118.605C152.718 116.955 153.343 115.676 154.593 114.768C155.853 113.85 157.62 113.391 159.896 113.391H162.532V112.146C162.532 111.198 162.249 110.446 161.683 109.89C161.116 109.323 160.281 109.04 159.178 109.04C158.211 109.04 157.4 109.284 156.746 109.772C156.092 110.261 155.765 110.852 155.765 111.545H153.04C153.04 110.754 153.318 109.992 153.875 109.26C154.441 108.518 155.203 107.932 156.16 107.502C157.127 107.072 158.187 106.857 159.339 106.857C161.165 106.857 162.596 107.316 163.631 108.234C164.666 109.143 165.203 110.397 165.242 111.999V119.294C165.242 120.749 165.428 121.906 165.799 122.766V123H162.957ZM158.46 120.935C159.31 120.935 160.115 120.715 160.877 120.275C161.639 119.836 162.19 119.265 162.532 118.562V115.31H160.408C157.088 115.31 155.428 116.281 155.428 118.225C155.428 119.074 155.711 119.738 156.277 120.217C156.844 120.695 157.571 120.935 158.46 120.935ZM177.151 109.582C176.741 109.514 176.297 109.479 175.818 109.479C174.041 109.479 172.835 110.236 172.2 111.75V123H169.49V107.15H172.127L172.171 108.981C173.06 107.565 174.319 106.857 175.95 106.857C176.478 106.857 176.878 106.926 177.151 107.062V109.582ZM184.065 103.312V107.15H187.024V109.245H184.065V119.074C184.065 119.709 184.197 120.188 184.461 120.51C184.725 120.822 185.174 120.979 185.809 120.979C186.121 120.979 186.551 120.92 187.098 120.803V123C186.385 123.195 185.691 123.293 185.018 123.293C183.807 123.293 182.894 122.927 182.278 122.194C181.663 121.462 181.355 120.422 181.355 119.074V109.245H178.47V107.15H181.355V103.312H184.065ZM198.069 123V101.672H205.042C207.356 101.672 209.095 102.15 210.257 103.107C211.429 104.064 212.015 105.48 212.015 107.355C212.015 108.352 211.731 109.235 211.165 110.007C210.599 110.769 209.827 111.359 208.851 111.779C210.003 112.102 210.911 112.717 211.575 113.625C212.249 114.523 212.586 115.598 212.586 116.848C212.586 118.762 211.966 120.266 210.726 121.359C209.485 122.453 207.732 123 205.467 123H198.069ZM200.882 113.024V120.7H205.525C206.834 120.7 207.864 120.363 208.616 119.689C209.378 119.006 209.759 118.068 209.759 116.877C209.759 114.309 208.362 113.024 205.569 113.024H200.882ZM200.882 110.769H205.13C206.36 110.769 207.342 110.461 208.074 109.846C208.816 109.23 209.188 108.396 209.188 107.341C209.188 106.169 208.846 105.319 208.162 104.792C207.479 104.255 206.438 103.986 205.042 103.986H200.882V110.769ZM219.28 123H216.57V107.15H219.28V123ZM216.351 102.946C216.351 102.507 216.482 102.136 216.746 101.833C217.02 101.53 217.42 101.379 217.947 101.379C218.475 101.379 218.875 101.53 219.148 101.833C219.422 102.136 219.559 102.507 219.559 102.946C219.559 103.386 219.422 103.752 219.148 104.045C218.875 104.338 218.475 104.484 217.947 104.484C217.42 104.484 217.02 104.338 216.746 104.045C216.482 103.752 216.351 103.386 216.351 102.946ZM231.292 109.582C230.882 109.514 230.438 109.479 229.959 109.479C228.182 109.479 226.976 110.236 226.341 111.75V123H223.631V107.15H226.268L226.312 108.981C227.2 107.565 228.46 106.857 230.091 106.857C230.618 106.857 231.019 106.926 231.292 107.062V109.582ZM232.845 114.943C232.845 112.512 233.421 110.559 234.573 109.084C235.726 107.6 237.234 106.857 239.1 106.857C240.955 106.857 242.425 107.492 243.509 108.762V100.5H246.219V123H243.729L243.597 121.301C242.513 122.629 241.004 123.293 239.07 123.293C237.234 123.293 235.735 122.541 234.573 121.037C233.421 119.533 232.845 117.57 232.845 115.148V114.943ZM235.555 115.251C235.555 117.048 235.926 118.454 236.668 119.47C237.41 120.485 238.436 120.993 239.744 120.993C241.463 120.993 242.718 120.222 243.509 118.679V111.398C242.698 109.904 241.453 109.157 239.773 109.157C238.445 109.157 237.41 109.67 236.668 110.695C235.926 111.721 235.555 113.239 235.555 115.251ZM259.666 118.796C259.666 118.063 259.388 117.497 258.831 117.097C258.284 116.687 257.322 116.335 255.945 116.042C254.578 115.749 253.489 115.397 252.679 114.987C251.878 114.577 251.282 114.089 250.892 113.522C250.511 112.956 250.32 112.282 250.32 111.501C250.32 110.202 250.867 109.104 251.961 108.205C253.064 107.307 254.471 106.857 256.18 106.857C257.977 106.857 259.432 107.321 260.545 108.249C261.668 109.177 262.229 110.363 262.229 111.809H259.505C259.505 111.066 259.188 110.427 258.553 109.89C257.928 109.353 257.137 109.084 256.18 109.084C255.193 109.084 254.422 109.299 253.865 109.729C253.309 110.158 253.03 110.72 253.03 111.413C253.03 112.067 253.289 112.561 253.807 112.893C254.324 113.225 255.257 113.542 256.604 113.845C257.962 114.147 259.061 114.509 259.9 114.929C260.74 115.349 261.36 115.856 261.761 116.452C262.171 117.038 262.376 117.756 262.376 118.605C262.376 120.021 261.81 121.159 260.677 122.019C259.544 122.868 258.074 123.293 256.268 123.293C254.998 123.293 253.875 123.068 252.898 122.619C251.922 122.17 251.155 121.545 250.599 120.744C250.052 119.934 249.778 119.06 249.778 118.122H252.488C252.537 119.03 252.898 119.753 253.572 120.29C254.256 120.817 255.154 121.081 256.268 121.081C257.293 121.081 258.113 120.876 258.729 120.466C259.354 120.046 259.666 119.489 259.666 118.796Z" fill="#0B0B0B"/>
<path d="M31.2451 940.966L31.4912 942.653L31.8516 941.133L34.3828 932.203H35.8066L38.2764 941.133L38.6279 942.68L38.9004 940.957L40.8867 932.203H42.583L39.4805 945H37.9424L35.3057 935.675L35.1035 934.699L34.9014 935.675L32.168 945H30.6299L27.5361 932.203H29.2236L31.2451 940.966ZM47.874 945.176C46.585 945.176 45.5361 944.754 44.7275 943.91C43.9189 943.061 43.5146 941.927 43.5146 940.509V940.21C43.5146 939.267 43.6934 938.426 44.0508 937.688C44.4141 936.943 44.918 936.363 45.5625 935.947C46.2129 935.525 46.916 935.314 47.6719 935.314C48.9082 935.314 49.8691 935.722 50.5547 936.536C51.2402 937.351 51.583 938.517 51.583 940.034V940.711H45.1406C45.1641 941.648 45.4365 942.407 45.958 942.987C46.4854 943.562 47.1533 943.849 47.9619 943.849C48.5361 943.849 49.0225 943.731 49.4209 943.497C49.8193 943.263 50.168 942.952 50.4668 942.565L51.46 943.339C50.6631 944.563 49.4678 945.176 47.874 945.176ZM47.6719 936.65C47.0156 936.65 46.4648 936.891 46.0195 937.371C45.5742 937.846 45.2988 938.514 45.1934 939.375H49.957V939.252C49.9102 938.426 49.6875 937.787 49.2891 937.336C48.8906 936.879 48.3516 936.65 47.6719 936.65ZM61.5234 940.351C61.5234 941.804 61.1895 942.973 60.5215 943.857C59.8535 944.736 58.957 945.176 57.832 945.176C56.6309 945.176 55.7021 944.751 55.0459 943.901L54.9668 945H53.4727V931.5H55.0986V936.536C55.7549 935.722 56.6602 935.314 57.8145 935.314C58.9688 935.314 59.874 935.751 60.5303 936.624C61.1924 937.497 61.5234 938.692 61.5234 940.21V940.351ZM59.8975 940.166C59.8975 939.059 59.6836 938.203 59.2559 937.6C58.8281 936.996 58.2129 936.694 57.4102 936.694C56.3379 936.694 55.5674 937.192 55.0986 938.188V942.302C55.5967 943.298 56.373 943.796 57.4277 943.796C58.207 943.796 58.8135 943.494 59.2471 942.891C59.6807 942.287 59.8975 941.379 59.8975 940.166ZM75.3662 941.66H70.0049L68.8008 945H67.0605L71.9473 932.203H73.4238L78.3193 945H76.5879L75.3662 941.66ZM70.5146 940.271H74.8652L72.6855 934.286L70.5146 940.271ZM87.8203 940.351C87.8203 941.798 87.4893 942.964 86.8271 943.849C86.165 944.733 85.2686 945.176 84.1377 945.176C82.9834 945.176 82.0752 944.81 81.4131 944.077V948.656H79.7871V935.49H81.2725L81.3516 936.545C82.0137 935.725 82.9336 935.314 84.1113 935.314C85.2539 935.314 86.1562 935.745 86.8184 936.606C87.4863 937.468 87.8203 938.666 87.8203 940.201V940.351ZM86.1943 940.166C86.1943 939.094 85.9658 938.247 85.5088 937.626C85.0518 937.005 84.4248 936.694 83.6279 936.694C82.6436 936.694 81.9053 937.131 81.4131 938.004V942.548C81.8994 943.415 82.6436 943.849 83.6455 943.849C84.4248 943.849 85.043 943.541 85.5 942.926C85.9629 942.305 86.1943 941.385 86.1943 940.166ZM97.9277 940.351C97.9277 941.798 97.5967 942.964 96.9346 943.849C96.2725 944.733 95.376 945.176 94.2451 945.176C93.0908 945.176 92.1826 944.81 91.5205 944.077V948.656H89.8945V935.49H91.3799L91.459 936.545C92.1211 935.725 93.041 935.314 94.2188 935.314C95.3613 935.314 96.2637 935.745 96.9258 936.606C97.5938 937.468 97.9277 938.666 97.9277 940.201V940.351ZM96.3018 940.166C96.3018 939.094 96.0732 938.247 95.6162 937.626C95.1592 937.005 94.5322 936.694 93.7354 936.694C92.751 936.694 92.0127 937.131 91.5205 938.004V942.548C92.0068 943.415 92.751 943.849 93.7529 943.849C94.5322 943.849 95.1504 943.541 95.6074 942.926C96.0703 942.305 96.3018 941.385 96.3018 940.166ZM101.769 945H100.143V931.5H101.769V945ZM106.146 945H104.52V935.49H106.146V945ZM104.388 932.968C104.388 932.704 104.467 932.481 104.625 932.3C104.789 932.118 105.029 932.027 105.346 932.027C105.662 932.027 105.902 932.118 106.066 932.3C106.23 932.481 106.312 932.704 106.312 932.968C106.312 933.231 106.23 933.451 106.066 933.627C105.902 933.803 105.662 933.891 105.346 933.891C105.029 933.891 104.789 933.803 104.625 933.627C104.467 933.451 104.388 933.231 104.388 932.968ZM112.57 943.849C113.15 943.849 113.657 943.673 114.091 943.321C114.524 942.97 114.765 942.53 114.812 942.003H116.35C116.32 942.548 116.133 943.066 115.787 943.559C115.441 944.051 114.979 944.443 114.398 944.736C113.824 945.029 113.215 945.176 112.57 945.176C111.275 945.176 110.244 944.745 109.477 943.884C108.715 943.017 108.334 941.833 108.334 940.333V940.061C108.334 939.135 108.504 938.312 108.844 937.591C109.184 936.87 109.67 936.311 110.303 935.912C110.941 935.514 111.694 935.314 112.562 935.314C113.628 935.314 114.513 935.634 115.216 936.272C115.925 936.911 116.303 937.74 116.35 938.76H114.812C114.765 938.145 114.53 937.641 114.108 937.248C113.692 936.85 113.177 936.65 112.562 936.65C111.735 936.65 111.094 936.949 110.637 937.547C110.186 938.139 109.96 938.997 109.96 940.122V940.43C109.96 941.525 110.186 942.369 110.637 942.961C111.088 943.553 111.732 943.849 112.57 943.849ZM124.049 945C123.955 944.812 123.879 944.479 123.82 943.998C123.064 944.783 122.162 945.176 121.113 945.176C120.176 945.176 119.405 944.912 118.802 944.385C118.204 943.852 117.905 943.178 117.905 942.363C117.905 941.373 118.28 940.605 119.03 940.061C119.786 939.51 120.847 939.234 122.212 939.234H123.794V938.487C123.794 937.919 123.624 937.468 123.284 937.134C122.944 936.794 122.443 936.624 121.781 936.624C121.201 936.624 120.715 936.771 120.322 937.063C119.93 937.356 119.733 937.711 119.733 938.127H118.099C118.099 937.652 118.266 937.195 118.6 936.756C118.939 936.311 119.396 935.959 119.971 935.701C120.551 935.443 121.187 935.314 121.878 935.314C122.974 935.314 123.832 935.59 124.453 936.141C125.074 936.686 125.396 937.438 125.42 938.399V942.776C125.42 943.649 125.531 944.344 125.754 944.859V945H124.049ZM121.351 943.761C121.86 943.761 122.344 943.629 122.801 943.365C123.258 943.102 123.589 942.759 123.794 942.337V940.386H122.52C120.527 940.386 119.531 940.969 119.531 942.135C119.531 942.645 119.701 943.043 120.041 943.33C120.381 943.617 120.817 943.761 121.351 943.761ZM130.175 933.188V935.49H131.95V936.747H130.175V942.645C130.175 943.025 130.254 943.312 130.412 943.506C130.57 943.693 130.84 943.787 131.221 943.787C131.408 943.787 131.666 943.752 131.994 943.682V945C131.566 945.117 131.15 945.176 130.746 945.176C130.02 945.176 129.472 944.956 129.103 944.517C128.733 944.077 128.549 943.453 128.549 942.645V936.747H126.817V935.49H128.549V933.188H130.175ZM135.624 945H133.998V935.49H135.624V945ZM133.866 932.968C133.866 932.704 133.945 932.481 134.104 932.3C134.268 932.118 134.508 932.027 134.824 932.027C135.141 932.027 135.381 932.118 135.545 932.3C135.709 932.481 135.791 932.704 135.791 932.968C135.791 933.231 135.709 933.451 135.545 933.627C135.381 933.803 135.141 933.891 134.824 933.891C134.508 933.891 134.268 933.803 134.104 933.627C133.945 933.451 133.866 933.231 133.866 932.968ZM137.804 940.157C137.804 939.226 137.985 938.388 138.349 937.644C138.718 936.899 139.228 936.325 139.878 935.921C140.534 935.517 141.281 935.314 142.119 935.314C143.414 935.314 144.46 935.763 145.257 936.659C146.06 937.556 146.461 938.748 146.461 940.236V940.351C146.461 941.276 146.282 942.108 145.925 942.847C145.573 943.579 145.066 944.15 144.404 944.561C143.748 944.971 142.992 945.176 142.137 945.176C140.848 945.176 139.802 944.728 138.999 943.831C138.202 942.935 137.804 941.748 137.804 940.271V940.157ZM139.438 940.351C139.438 941.405 139.682 942.252 140.168 942.891C140.66 943.529 141.316 943.849 142.137 943.849C142.963 943.849 143.619 943.526 144.105 942.882C144.592 942.231 144.835 941.323 144.835 940.157C144.835 939.114 144.586 938.271 144.088 937.626C143.596 936.976 142.939 936.65 142.119 936.65C141.316 936.65 140.669 936.97 140.177 937.608C139.685 938.247 139.438 939.161 139.438 940.351ZM150.038 935.49L150.091 936.686C150.817 935.771 151.767 935.314 152.938 935.314C154.948 935.314 155.962 936.448 155.979 938.716V945H154.354V938.707C154.348 938.021 154.189 937.515 153.879 937.187C153.574 936.858 153.097 936.694 152.446 936.694C151.919 936.694 151.456 936.835 151.058 937.116C150.659 937.397 150.349 937.767 150.126 938.224V945H148.5V935.49H150.038ZM163.969 942.478C163.969 942.038 163.802 941.698 163.468 941.458C163.14 941.212 162.562 941.001 161.736 940.825C160.916 940.649 160.263 940.438 159.776 940.192C159.296 939.946 158.938 939.653 158.704 939.313C158.476 938.974 158.361 938.569 158.361 938.101C158.361 937.321 158.689 936.662 159.346 936.123C160.008 935.584 160.852 935.314 161.877 935.314C162.955 935.314 163.828 935.593 164.496 936.149C165.17 936.706 165.507 937.418 165.507 938.285H163.872C163.872 937.84 163.682 937.456 163.301 937.134C162.926 936.812 162.451 936.65 161.877 936.65C161.285 936.65 160.822 936.779 160.488 937.037C160.154 937.295 159.987 937.632 159.987 938.048C159.987 938.44 160.143 938.736 160.453 938.936C160.764 939.135 161.323 939.325 162.132 939.507C162.946 939.688 163.605 939.905 164.109 940.157C164.613 940.409 164.985 940.714 165.226 941.071C165.472 941.423 165.595 941.854 165.595 942.363C165.595 943.213 165.255 943.896 164.575 944.411C163.896 944.921 163.014 945.176 161.93 945.176C161.168 945.176 160.494 945.041 159.908 944.771C159.322 944.502 158.862 944.127 158.528 943.646C158.2 943.16 158.036 942.636 158.036 942.073H159.662C159.691 942.618 159.908 943.052 160.312 943.374C160.723 943.69 161.262 943.849 161.93 943.849C162.545 943.849 163.037 943.726 163.406 943.479C163.781 943.228 163.969 942.894 163.969 942.478ZM172.433 945V932.203H176.045C177.158 932.203 178.143 932.449 178.998 932.941C179.854 933.434 180.513 934.134 180.976 935.042C181.444 935.95 181.682 936.993 181.688 938.171V938.988C181.688 940.195 181.453 941.253 180.984 942.161C180.521 943.069 179.856 943.767 178.989 944.253C178.128 944.739 177.123 944.988 175.975 945H172.433ZM174.12 933.592V943.62H175.896C177.196 943.62 178.207 943.216 178.928 942.407C179.654 941.599 180.018 940.447 180.018 938.953V938.206C180.018 936.753 179.675 935.625 178.989 934.822C178.31 934.014 177.343 933.604 176.089 933.592H174.12ZM187.937 945.176C186.647 945.176 185.599 944.754 184.79 943.91C183.981 943.061 183.577 941.927 183.577 940.509V940.21C183.577 939.267 183.756 938.426 184.113 937.688C184.477 936.943 184.98 936.363 185.625 935.947C186.275 935.525 186.979 935.314 187.734 935.314C188.971 935.314 189.932 935.722 190.617 936.536C191.303 937.351 191.646 938.517 191.646 940.034V940.711H185.203C185.227 941.648 185.499 942.407 186.021 942.987C186.548 943.562 187.216 943.849 188.024 943.849C188.599 943.849 189.085 943.731 189.483 943.497C189.882 943.263 190.23 942.952 190.529 942.565L191.522 943.339C190.726 944.563 189.53 945.176 187.937 945.176ZM187.734 936.65C187.078 936.65 186.527 936.891 186.082 937.371C185.637 937.846 185.361 938.514 185.256 939.375H190.02V939.252C189.973 938.426 189.75 937.787 189.352 937.336C188.953 936.879 188.414 936.65 187.734 936.65ZM196.55 942.794L198.905 935.49H200.566L197.156 945H195.917L192.472 935.49H194.133L196.55 942.794ZM205.954 945.176C204.665 945.176 203.616 944.754 202.808 943.91C201.999 943.061 201.595 941.927 201.595 940.509V940.21C201.595 939.267 201.773 938.426 202.131 937.688C202.494 936.943 202.998 936.363 203.643 935.947C204.293 935.525 204.996 935.314 205.752 935.314C206.988 935.314 207.949 935.722 208.635 936.536C209.32 937.351 209.663 938.517 209.663 940.034V940.711H203.221C203.244 941.648 203.517 942.407 204.038 942.987C204.565 943.562 205.233 943.849 206.042 943.849C206.616 943.849 207.103 943.731 207.501 943.497C207.899 943.263 208.248 942.952 208.547 942.565L209.54 943.339C208.743 944.563 207.548 945.176 205.954 945.176ZM205.752 936.65C205.096 936.65 204.545 936.891 204.1 937.371C203.654 937.846 203.379 938.514 203.273 939.375H208.037V939.252C207.99 938.426 207.768 937.787 207.369 937.336C206.971 936.879 206.432 936.65 205.752 936.65ZM213.319 945H211.693V931.5H213.319V945ZM215.499 940.157C215.499 939.226 215.681 938.388 216.044 937.644C216.413 936.899 216.923 936.325 217.573 935.921C218.229 935.517 218.977 935.314 219.814 935.314C221.109 935.314 222.155 935.763 222.952 936.659C223.755 937.556 224.156 938.748 224.156 940.236V940.351C224.156 941.276 223.978 942.108 223.62 942.847C223.269 943.579 222.762 944.15 222.1 944.561C221.443 944.971 220.688 945.176 219.832 945.176C218.543 945.176 217.497 944.728 216.694 943.831C215.897 942.935 215.499 941.748 215.499 940.271V940.157ZM217.134 940.351C217.134 941.405 217.377 942.252 217.863 942.891C218.355 943.529 219.012 943.849 219.832 943.849C220.658 943.849 221.314 943.526 221.801 942.882C222.287 942.231 222.53 941.323 222.53 940.157C222.53 939.114 222.281 938.271 221.783 937.626C221.291 936.976 220.635 936.65 219.814 936.65C219.012 936.65 218.364 936.97 217.872 937.608C217.38 938.247 217.134 939.161 217.134 940.351ZM234.229 940.351C234.229 941.798 233.897 942.964 233.235 943.849C232.573 944.733 231.677 945.176 230.546 945.176C229.392 945.176 228.483 944.81 227.821 944.077V948.656H226.195V935.49H227.681L227.76 936.545C228.422 935.725 229.342 935.314 230.52 935.314C231.662 935.314 232.564 935.745 233.227 936.606C233.895 937.468 234.229 938.666 234.229 940.201V940.351ZM232.603 940.166C232.603 939.094 232.374 938.247 231.917 937.626C231.46 937.005 230.833 936.694 230.036 936.694C229.052 936.694 228.313 937.131 227.821 938.004V942.548C228.308 943.415 229.052 943.849 230.054 943.849C230.833 943.849 231.451 943.541 231.908 942.926C232.371 942.305 232.603 941.385 232.603 940.166ZM237.832 935.49L237.876 936.545C238.573 935.725 239.514 935.314 240.697 935.314C242.027 935.314 242.933 935.824 243.413 936.844C243.729 936.387 244.14 936.018 244.644 935.736C245.153 935.455 245.754 935.314 246.445 935.314C248.531 935.314 249.592 936.419 249.627 938.628V945H248.001V938.725C248.001 938.045 247.846 937.538 247.535 937.204C247.225 936.864 246.703 936.694 245.971 936.694C245.367 936.694 244.866 936.876 244.468 937.239C244.069 937.597 243.838 938.08 243.773 938.689V945H242.139V938.769C242.139 937.386 241.462 936.694 240.108 936.694C239.042 936.694 238.312 937.148 237.92 938.057V945H236.294V935.49H237.832ZM256.034 945.176C254.745 945.176 253.696 944.754 252.888 943.91C252.079 943.061 251.675 941.927 251.675 940.509V940.21C251.675 939.267 251.854 938.426 252.211 937.688C252.574 936.943 253.078 936.363 253.723 935.947C254.373 935.525 255.076 935.314 255.832 935.314C257.068 935.314 258.029 935.722 258.715 936.536C259.4 937.351 259.743 938.517 259.743 940.034V940.711H253.301C253.324 941.648 253.597 942.407 254.118 942.987C254.646 943.562 255.313 943.849 256.122 943.849C256.696 943.849 257.183 943.731 257.581 943.497C257.979 943.263 258.328 942.952 258.627 942.565L259.62 943.339C258.823 944.563 257.628 945.176 256.034 945.176ZM255.832 936.65C255.176 936.65 254.625 936.891 254.18 937.371C253.734 937.846 253.459 938.514 253.354 939.375H258.117V939.252C258.07 938.426 257.848 937.787 257.449 937.336C257.051 936.879 256.512 936.65 255.832 936.65ZM263.171 935.49L263.224 936.686C263.95 935.771 264.899 935.314 266.071 935.314C268.081 935.314 269.095 936.448 269.112 938.716V945H267.486V938.707C267.48 938.021 267.322 937.515 267.012 937.187C266.707 936.858 266.229 936.694 265.579 936.694C265.052 936.694 264.589 936.835 264.19 937.116C263.792 937.397 263.481 937.767 263.259 938.224V945H261.633V935.49H263.171ZM273.771 933.188V935.49H275.546V936.747H273.771V942.645C273.771 943.025 273.85 943.312 274.008 943.506C274.166 943.693 274.436 943.787 274.816 943.787C275.004 943.787 275.262 943.752 275.59 943.682V945C275.162 945.117 274.746 945.176 274.342 945.176C273.615 945.176 273.067 944.956 272.698 944.517C272.329 944.077 272.145 943.453 272.145 942.645V936.747H270.413V935.49H272.145V933.188H273.771Z" fill="#959595"/>
<rect x="2.5" y="155.5" width="1421" height="733" fill="#EAEAEA" stroke="#C4C4C4"/>
<path d="M13.9507 161.168L396.337 358.546" stroke="#C4C4C4"/>
<path d="M1029.67 685.454L1412.05 882.832" stroke="#C4C4C4"/>
<path d="M1029.67 358.546L1412.05 161.168" stroke="#C4C4C4"/>
<path d="M13.9507 882.832L396.337 685.454" stroke="#C4C4C4"/>
<g filter="url(#filter0_d)">
<rect x="204" y="234" width="1018" height="603" rx="4" fill="white"/>
<rect x="204.5" y="234.5" width="1017" height="602" rx="3.5" stroke="#D4D4D4"/>
</g>
<path d="M422.516 441.125H413.562V519.5H422.516V526.625H404.844V434H422.516V441.125ZM505.625 503.047C503.312 506.359 500.078 508.844 495.922 510.5C491.797 512.125 486.984 512.938 481.484 512.938C475.922 512.938 470.984 511.641 466.672 509.047C462.359 506.422 459.016 502.703 456.641 497.891C454.297 493.078 453.094 487.5 453.031 481.156V475.203C453.031 464.922 455.422 456.953 460.203 451.297C465.016 445.641 471.766 442.812 480.453 442.812C487.578 442.812 493.312 444.641 497.656 448.297C502 451.922 504.656 457.078 505.625 463.766H496.625C494.938 454.734 489.562 450.219 480.5 450.219C474.469 450.219 469.891 452.344 466.766 456.594C463.672 460.812 462.109 466.938 462.078 474.969V480.547C462.078 488.203 463.828 494.297 467.328 498.828C470.828 503.328 475.562 505.578 481.531 505.578C484.906 505.578 487.859 505.203 490.391 504.453C492.922 503.703 495.016 502.438 496.672 500.656V485.328H480.875V478.016H505.625V503.047ZM558.359 494.188H529.766L523.344 512H514.062L540.125 443.75H548L574.109 512H564.875L558.359 494.188ZM532.484 486.781H555.688L544.062 454.859L532.484 486.781ZM594.922 443.75L617.234 499.438L639.547 443.75H651.219V512H642.219V485.422L643.062 456.734L620.656 512H613.766L591.406 456.875L592.297 485.422V512H583.297V443.75H594.922ZM705.688 480.453H676.109V504.641H710.469V512H667.109V443.75H710V451.156H676.109V473.094H705.688V480.453ZM797.984 480.078C797.984 486.766 796.859 492.609 794.609 497.609C792.359 502.578 789.172 506.375 785.047 509C780.922 511.625 776.109 512.938 770.609 512.938C765.234 512.938 760.469 511.625 756.312 509C752.156 506.344 748.922 502.578 746.609 497.703C744.328 492.797 743.156 487.125 743.094 480.688V475.766C743.094 469.203 744.234 463.406 746.516 458.375C748.797 453.344 752.016 449.5 756.172 446.844C760.359 444.156 765.141 442.812 770.516 442.812C775.984 442.812 780.797 444.141 784.953 446.797C789.141 449.422 792.359 453.25 794.609 458.281C796.859 463.281 797.984 469.109 797.984 475.766V480.078ZM789.031 475.672C789.031 467.578 787.406 461.375 784.156 457.062C780.906 452.719 776.359 450.547 770.516 450.547C764.828 450.547 760.344 452.719 757.062 457.062C753.812 461.375 752.141 467.375 752.047 475.062V480.078C752.047 487.922 753.688 494.094 756.969 498.594C760.281 503.062 764.828 505.297 770.609 505.297C776.422 505.297 780.922 503.188 784.109 498.969C787.297 494.719 788.938 488.641 789.031 480.734V475.672ZM833.047 500.047L852.547 443.75H862.391L837.078 512H829.109L803.844 443.75H813.641L833.047 500.047ZM910.156 480.453H880.578V504.641H914.938V512H871.578V443.75H914.469V451.156H880.578V473.094H910.156V480.453ZM951.172 484.391H935.141V512H926.094V443.75H948.688C956.375 443.75 962.281 445.5 966.406 449C970.562 452.5 972.641 457.594 972.641 464.281C972.641 468.531 971.484 472.234 969.172 475.391C966.891 478.547 963.703 480.906 959.609 482.469L975.641 511.438V512H965.984L951.172 484.391ZM935.141 477.031H948.969C953.438 477.031 956.984 475.875 959.609 473.562C962.266 471.25 963.594 468.156 963.594 464.281C963.594 460.062 962.328 456.828 959.797 454.578C957.297 452.328 953.672 451.188 948.922 451.156H935.141V477.031ZM1001.61 434H1019.33V526.625H1001.61V519.5H1010.66V441.125H1001.61V434Z" fill="#959595"/>
<rect x="360" y="697" width="278" height="66" fill="#3241C9"/>
<rect x="752" y="697" width="275" height="66" fill="#CD3939"/>
<path d="M442.131 734.668C441.873 737.398 440.865 739.531 439.107 741.066C437.35 742.59 435.012 743.352 432.094 743.352C430.055 743.352 428.256 742.871 426.697 741.91C425.15 740.938 423.955 739.561 423.111 737.779C422.268 735.998 421.828 733.93 421.793 731.574V729.184C421.793 726.77 422.221 724.643 423.076 722.803C423.932 720.963 425.156 719.545 426.75 718.549C428.355 717.553 430.207 717.055 432.305 717.055C435.129 717.055 437.402 717.822 439.125 719.357C440.848 720.893 441.85 723.061 442.131 725.861H437.701C437.49 724.021 436.951 722.697 436.084 721.889C435.229 721.068 433.969 720.658 432.305 720.658C430.371 720.658 428.883 721.367 427.84 722.785C426.809 724.191 426.281 726.26 426.258 728.99V731.258C426.258 734.023 426.75 736.133 427.734 737.586C428.73 739.039 430.184 739.766 432.094 739.766C433.84 739.766 435.152 739.373 436.031 738.588C436.91 737.803 437.467 736.496 437.701 734.668H442.131ZM444.908 733.314C444.908 731.451 445.277 729.775 446.016 728.287C446.754 726.787 447.791 725.639 449.127 724.842C450.463 724.033 451.998 723.629 453.732 723.629C456.299 723.629 458.379 724.455 459.973 726.107C461.578 727.76 462.445 729.951 462.574 732.682L462.592 733.684C462.592 735.559 462.229 737.234 461.502 738.711C460.787 740.188 459.756 741.33 458.408 742.139C457.072 742.947 455.525 743.352 453.768 743.352C451.084 743.352 448.934 742.461 447.316 740.68C445.711 738.887 444.908 736.502 444.908 733.525V733.314ZM449.18 733.684C449.18 735.641 449.584 737.176 450.393 738.289C451.201 739.391 452.326 739.941 453.768 739.941C455.209 739.941 456.328 739.379 457.125 738.254C457.934 737.129 458.338 735.482 458.338 733.314C458.338 731.393 457.922 729.869 457.09 728.744C456.27 727.619 455.15 727.057 453.732 727.057C452.338 727.057 451.23 727.613 450.41 728.727C449.59 729.828 449.18 731.48 449.18 733.684ZM470.168 723.98L470.291 726.178C471.697 724.479 473.543 723.629 475.828 723.629C479.789 723.629 481.805 725.896 481.875 730.432V743H477.604V730.678C477.604 729.471 477.34 728.58 476.812 728.006C476.297 727.42 475.447 727.127 474.264 727.127C472.541 727.127 471.258 727.906 470.414 729.465V743H466.143V723.98H470.168ZM491.596 719.357V723.98H494.953V727.145H491.596V737.762C491.596 738.488 491.736 739.016 492.018 739.344C492.311 739.66 492.826 739.818 493.564 739.818C494.057 739.818 494.555 739.76 495.059 739.643V742.947C494.086 743.217 493.148 743.352 492.246 743.352C488.965 743.352 487.324 741.541 487.324 737.92V727.145H484.195V723.98H487.324V719.357H491.596ZM502.775 743H498.504V723.98H502.775V743ZM498.24 719.041C498.24 718.385 498.445 717.84 498.855 717.406C499.277 716.973 499.875 716.756 500.648 716.756C501.422 716.756 502.02 716.973 502.441 717.406C502.863 717.84 503.074 718.385 503.074 719.041C503.074 719.686 502.863 720.225 502.441 720.658C502.02 721.08 501.422 721.291 500.648 721.291C499.875 721.291 499.277 721.08 498.855 720.658C498.445 720.225 498.24 719.686 498.24 719.041ZM511.406 723.98L511.529 726.178C512.936 724.479 514.781 723.629 517.066 723.629C521.027 723.629 523.043 725.896 523.113 730.432V743H518.842V730.678C518.842 729.471 518.578 728.58 518.051 728.006C517.535 727.42 516.686 727.127 515.502 727.127C513.779 727.127 512.496 727.906 511.652 729.465V743H507.381V723.98H511.406ZM539.004 741.137C537.75 742.613 535.969 743.352 533.66 743.352C531.598 743.352 530.033 742.748 528.967 741.541C527.912 740.334 527.385 738.588 527.385 736.303V723.98H531.656V736.25C531.656 738.664 532.658 739.871 534.662 739.871C536.736 739.871 538.137 739.127 538.863 737.639V723.98H543.135V743H539.109L539.004 741.137ZM555.861 743.352C553.154 743.352 550.957 742.502 549.27 740.803C547.594 739.092 546.756 736.818 546.756 733.982V733.455C546.756 731.557 547.119 729.863 547.846 728.375C548.584 726.875 549.615 725.709 550.939 724.877C552.264 724.045 553.74 723.629 555.369 723.629C557.959 723.629 559.957 724.455 561.363 726.107C562.781 727.76 563.49 730.098 563.49 733.121V734.844H551.062C551.191 736.414 551.713 737.656 552.627 738.57C553.553 739.484 554.713 739.941 556.107 739.941C558.064 739.941 559.658 739.15 560.889 737.568L563.191 739.766C562.43 740.902 561.41 741.787 560.133 742.42C558.867 743.041 557.443 743.352 555.861 743.352ZM555.352 727.057C554.18 727.057 553.23 727.467 552.504 728.287C551.789 729.107 551.332 730.25 551.133 731.715H559.271V731.398C559.178 729.969 558.797 728.891 558.129 728.164C557.461 727.426 556.535 727.057 555.352 727.057Z" fill="white"/>
<path d="M804.939 729.871C804.939 732.297 804.553 734.4 803.779 736.182C803.018 737.951 801.945 739.357 800.562 740.4L804.957 743.828L802.074 746.43L796.625 742.123C795.91 742.275 795.143 742.352 794.322 742.352C792.26 742.352 790.414 741.848 788.785 740.84C787.168 739.82 785.914 738.373 785.023 736.498C784.145 734.623 783.699 732.461 783.688 730.012V728.57C783.688 726.074 784.127 723.871 785.006 721.961C785.896 720.051 787.145 718.592 788.75 717.584C790.367 716.564 792.213 716.055 794.287 716.055C796.396 716.055 798.254 716.559 799.859 717.566C801.477 718.562 802.725 720.004 803.604 721.891C804.482 723.766 804.928 725.951 804.939 728.447V729.871ZM800.475 728.535C800.475 725.652 799.936 723.467 798.857 721.979C797.779 720.49 796.256 719.746 794.287 719.746C792.377 719.746 790.877 720.502 789.787 722.014C788.709 723.514 788.158 725.635 788.135 728.377V729.871C788.135 732.637 788.674 734.799 789.752 736.357C790.842 737.916 792.365 738.695 794.322 738.695C796.303 738.695 797.82 737.945 798.875 736.445C799.941 734.945 800.475 732.754 800.475 729.871V728.535ZM820.566 740.137C819.312 741.613 817.531 742.352 815.223 742.352C813.16 742.352 811.596 741.748 810.529 740.541C809.475 739.334 808.947 737.588 808.947 735.303V722.98H813.219V735.25C813.219 737.664 814.221 738.871 816.225 738.871C818.299 738.871 819.699 738.127 820.426 736.639V722.98H824.697V742H820.672L820.566 740.137ZM833.592 742H829.32V722.98H833.592V742ZM829.057 718.041C829.057 717.385 829.262 716.84 829.672 716.406C830.094 715.973 830.691 715.756 831.465 715.756C832.238 715.756 832.836 715.973 833.258 716.406C833.68 716.84 833.891 717.385 833.891 718.041C833.891 718.686 833.68 719.225 833.258 719.658C832.836 720.08 832.238 720.291 831.465 720.291C830.691 720.291 830.094 720.08 829.672 719.658C829.262 719.225 829.057 718.686 829.057 718.041ZM843.611 718.357V722.98H846.969V726.145H843.611V736.762C843.611 737.488 843.752 738.016 844.033 738.344C844.326 738.66 844.842 738.818 845.58 738.818C846.072 738.818 846.57 738.76 847.074 738.643V741.947C846.102 742.217 845.164 742.352 844.262 742.352C840.98 742.352 839.34 740.541 839.34 736.92V726.145H836.211V722.98H839.34V718.357H843.611ZM873.002 735.408C873.002 734.283 872.604 733.416 871.807 732.807C871.021 732.197 869.598 731.582 867.535 730.961C865.473 730.34 863.832 729.648 862.613 728.887C860.281 727.422 859.115 725.512 859.115 723.156C859.115 721.094 859.953 719.395 861.629 718.059C863.316 716.723 865.502 716.055 868.186 716.055C869.967 716.055 871.555 716.383 872.949 717.039C874.344 717.695 875.439 718.633 876.236 719.852C877.033 721.059 877.432 722.4 877.432 723.877H873.002C873.002 722.541 872.58 721.498 871.736 720.748C870.904 719.986 869.709 719.605 868.15 719.605C866.697 719.605 865.566 719.916 864.758 720.537C863.961 721.158 863.562 722.025 863.562 723.139C863.562 724.076 863.996 724.861 864.863 725.494C865.73 726.115 867.16 726.725 869.152 727.322C871.145 727.908 872.744 728.582 873.951 729.344C875.158 730.094 876.043 730.961 876.605 731.945C877.168 732.918 877.449 734.061 877.449 735.373C877.449 737.506 876.629 739.205 874.988 740.471C873.359 741.725 871.145 742.352 868.344 742.352C866.492 742.352 864.787 742.012 863.229 741.332C861.682 740.641 860.475 739.691 859.607 738.484C858.752 737.277 858.324 735.871 858.324 734.266H862.771C862.771 735.719 863.252 736.844 864.213 737.641C865.174 738.438 866.551 738.836 868.344 738.836C869.891 738.836 871.051 738.525 871.824 737.904C872.609 737.271 873.002 736.439 873.002 735.408ZM889.314 742.352C886.607 742.352 884.41 741.502 882.723 739.803C881.047 738.092 880.209 735.818 880.209 732.982V732.455C880.209 730.557 880.572 728.863 881.299 727.375C882.037 725.875 883.068 724.709 884.393 723.877C885.717 723.045 887.193 722.629 888.822 722.629C891.412 722.629 893.41 723.455 894.816 725.107C896.234 726.76 896.943 729.098 896.943 732.121V733.844H884.516C884.645 735.414 885.166 736.656 886.08 737.57C887.006 738.484 888.166 738.941 889.561 738.941C891.518 738.941 893.111 738.15 894.342 736.568L896.645 738.766C895.883 739.902 894.863 740.787 893.586 741.42C892.32 742.041 890.896 742.352 889.314 742.352ZM888.805 726.057C887.633 726.057 886.684 726.467 885.957 727.287C885.242 728.107 884.785 729.25 884.586 730.715H892.725V730.398C892.631 728.969 892.25 727.891 891.582 727.164C890.914 726.426 889.988 726.057 888.805 726.057ZM910.936 736.832C910.936 736.07 910.619 735.49 909.986 735.092C909.365 734.693 908.328 734.342 906.875 734.037C905.422 733.732 904.209 733.346 903.236 732.877C901.104 731.846 900.037 730.352 900.037 728.395C900.037 726.754 900.729 725.383 902.111 724.281C903.494 723.18 905.252 722.629 907.385 722.629C909.658 722.629 911.492 723.191 912.887 724.316C914.293 725.441 914.996 726.9 914.996 728.693H910.725C910.725 727.873 910.42 727.193 909.811 726.654C909.201 726.104 908.393 725.828 907.385 725.828C906.447 725.828 905.68 726.045 905.082 726.479C904.496 726.912 904.203 727.492 904.203 728.219C904.203 728.875 904.479 729.385 905.029 729.748C905.58 730.111 906.693 730.48 908.369 730.855C910.045 731.219 911.357 731.658 912.307 732.174C913.268 732.678 913.977 733.287 914.434 734.002C914.902 734.717 915.137 735.584 915.137 736.604C915.137 738.314 914.428 739.703 913.01 740.77C911.592 741.824 909.734 742.352 907.438 742.352C905.879 742.352 904.49 742.07 903.271 741.508C902.053 740.945 901.104 740.172 900.424 739.188C899.744 738.203 899.404 737.143 899.404 736.006H903.553C903.611 737.014 903.992 737.793 904.695 738.344C905.398 738.883 906.33 739.152 907.49 739.152C908.615 739.152 909.471 738.941 910.057 738.52C910.643 738.086 910.936 737.523 910.936 736.832ZM929.533 736.832C929.533 736.07 929.217 735.49 928.584 735.092C927.963 734.693 926.926 734.342 925.473 734.037C924.02 733.732 922.807 733.346 921.834 732.877C919.701 731.846 918.635 730.352 918.635 728.395C918.635 726.754 919.326 725.383 920.709 724.281C922.092 723.18 923.85 722.629 925.982 722.629C928.256 722.629 930.09 723.191 931.484 724.316C932.891 725.441 933.594 726.9 933.594 728.693H929.322C929.322 727.873 929.018 727.193 928.408 726.654C927.799 726.104 926.99 725.828 925.982 725.828C925.045 725.828 924.277 726.045 923.68 726.479C923.094 726.912 922.801 727.492 922.801 728.219C922.801 728.875 923.076 729.385 923.627 729.748C924.178 730.111 925.291 730.48 926.967 730.855C928.643 731.219 929.955 731.658 930.904 732.174C931.865 732.678 932.574 733.287 933.031 734.002C933.5 734.717 933.734 735.584 933.734 736.604C933.734 738.314 933.025 739.703 931.607 740.77C930.189 741.824 928.332 742.352 926.035 742.352C924.477 742.352 923.088 742.07 921.869 741.508C920.65 740.945 919.701 740.172 919.021 739.188C918.342 738.203 918.002 737.143 918.002 736.006H922.15C922.209 737.014 922.59 737.793 923.293 738.344C923.996 738.883 924.928 739.152 926.088 739.152C927.213 739.152 928.068 738.941 928.654 738.52C929.24 738.086 929.533 737.523 929.533 736.832ZM942.014 742H937.742V722.98H942.014V742ZM937.479 718.041C937.479 717.385 937.684 716.84 938.094 716.406C938.516 715.973 939.113 715.756 939.887 715.756C940.66 715.756 941.258 715.973 941.68 716.406C942.102 716.84 942.312 717.385 942.312 718.041C942.312 718.686 942.102 719.225 941.68 719.658C941.258 720.08 940.66 720.291 939.887 720.291C939.113 720.291 938.516 720.08 938.094 719.658C937.684 719.225 937.479 718.686 937.479 718.041ZM945.881 732.314C945.881 730.451 946.25 728.775 946.988 727.287C947.727 725.787 948.764 724.639 950.1 723.842C951.436 723.033 952.971 722.629 954.705 722.629C957.271 722.629 959.352 723.455 960.945 725.107C962.551 726.76 963.418 728.951 963.547 731.682L963.564 732.684C963.564 734.559 963.201 736.234 962.475 737.711C961.76 739.188 960.729 740.33 959.381 741.139C958.045 741.947 956.498 742.352 954.74 742.352C952.057 742.352 949.906 741.461 948.289 739.68C946.684 737.887 945.881 735.502 945.881 732.525V732.314ZM950.152 732.684C950.152 734.641 950.557 736.176 951.365 737.289C952.174 738.391 953.299 738.941 954.74 738.941C956.182 738.941 957.301 738.379 958.098 737.254C958.906 736.129 959.311 734.482 959.311 732.314C959.311 730.393 958.895 728.869 958.062 727.744C957.242 726.619 956.123 726.057 954.705 726.057C953.311 726.057 952.203 726.613 951.383 727.727C950.562 728.828 950.152 730.48 950.152 732.684ZM971.141 722.98L971.264 725.178C972.67 723.479 974.516 722.629 976.801 722.629C980.762 722.629 982.777 724.896 982.848 729.432V742H978.576V729.678C978.576 728.471 978.312 727.58 977.785 727.006C977.27 726.42 976.42 726.127 975.236 726.127C973.514 726.127 972.23 726.906 971.387 728.465V742H967.115V722.98H971.141Z" fill="white"/>
<rect x="19.5" y="64.5" width="84" height="78" fill="#EAEAEA" stroke="#C4C4C4"/>
<path d="M19.7144 64.6639L42.5715 85.9076" stroke="#C4C4C4"/>
<path d="M80.4287 121.092L103.286 142.336" stroke="#C4C4C4"/>
<path d="M80.4287 85.9076L103.286 64.6639" stroke="#C4C4C4"/>
<path d="M19.7144 142.336L42.5715 121.092" stroke="#C4C4C4"/>
<path d="M46 95.6C46 93.6118 47.6926 92 49.7805 92C51.8684 92 53.561 93.6118 53.561 95.6C53.561 97.5882 51.8684 99.2 49.7805 99.2C47.6926 99.2 46 97.5882 46 95.6Z" fill="#959595"/>
<path d="M77 110H46.7561V105.68L50.4907 102.124C50.9336 101.702 51.6517 101.702 52.0946 102.124L55.8293 105.68L67.1248 94.9237C67.5678 94.5019 68.2859 94.5019 68.7288 94.9237L77 102.8V110Z" fill="#959595"/>
<defs>
<filter id="filter0_d" x="189" y="227" width="1048" height="633" filterUnits="userSpaceOnUse" color-interpolation-filters="sRGB">
<feFlood flood-opacity="0" result="BackgroundImageFix"/>
<feColorMatrix in="SourceAlpha" type="matrix" values="0 0 0 0 0 0 0 0 0 0 0 0 0 0 0 0 0 0 127 0"/>
<feOffset dy="8"/>
<feGaussianBlur stdDeviation="7.5"/>
<feColorMatrix type="matrix" values="0 0 0 0 0 0 0 0 0 0 0 0 0 0 0 0 0 0 0.2 0"/>
<feBlend mode="normal" in2="BackgroundImageFix" result="effect1_dropShadow"/>
<feBlend mode="normal" in="SourceGraphic" in2="effect1_dropShadow" result="shape"/>
</filter>
</defs>
</svg>
