<svg width="1440" height="1024" viewBox="0 0 1440 1024" fill="none" xmlns="http://www.w3.org/2000/svg">
<rect width="1440" height="1024" fill="white"/>
<rect x="0.5" y="0.5" width="1439" height="1023" fill="white" stroke="#C4C4C4"/>
<rect width="1440" height="53" fill="#EDEDED"/>
<rect x="97" y="13" width="1330" height="27" fill="white"/>
<ellipse cx="26.8077" cy="26.7942" rx="7.88462" ry="7.88066" fill="#C4C4C4"/>
<ellipse cx="48.8846" cy="26.7942" rx="7.88462" ry="7.88066" fill="#C4C4C4"/>
<ellipse cx="70.9615" cy="26.7942" rx="7.88462" ry="7.88066" fill="#C4C4C4"/>
<path d="M109.222 24.499C109.782 23.8109 110.511 23.4668 111.409 23.4668C112.972 23.4668 113.761 24.3486 113.774 26.1123V31H112.51V26.1055C112.505 25.5723 112.382 25.1781 112.141 24.9229C111.904 24.6676 111.532 24.54 111.026 24.54C110.616 24.54 110.256 24.6494 109.946 24.8682C109.636 25.0869 109.395 25.374 109.222 25.7295V31H107.957V20.5H109.222V24.499ZM117.384 21.8125V23.6035H118.765V24.5811H117.384V29.168C117.384 29.4642 117.445 29.6875 117.568 29.8379C117.691 29.9837 117.901 30.0566 118.197 30.0566C118.343 30.0566 118.544 30.0293 118.799 29.9746V31C118.466 31.0911 118.143 31.1367 117.828 31.1367C117.263 31.1367 116.837 30.9658 116.55 30.624C116.263 30.2822 116.119 29.7969 116.119 29.168V24.5811H114.772V23.6035H116.119V21.8125H117.384ZM121.964 21.8125V23.6035H123.345V24.5811H121.964V29.168C121.964 29.4642 122.025 29.6875 122.148 29.8379C122.271 29.9837 122.481 30.0566 122.777 30.0566C122.923 30.0566 123.124 30.0293 123.379 29.9746V31C123.046 31.0911 122.723 31.1367 122.408 31.1367C121.843 31.1367 121.417 30.9658 121.13 30.624C120.843 30.2822 120.699 29.7969 120.699 29.168V24.5811H119.353V23.6035H120.699V21.8125H121.964ZM131.076 27.3838C131.076 28.5094 130.819 29.4163 130.304 30.1045C129.789 30.7926 129.091 31.1367 128.212 31.1367C127.314 31.1367 126.608 30.8519 126.093 30.2822V33.8438H124.828V23.6035H125.983L126.045 24.4238C126.56 23.7858 127.275 23.4668 128.191 23.4668C129.08 23.4668 129.782 23.8018 130.297 24.4717C130.816 25.1416 131.076 26.0736 131.076 27.2676V27.3838ZM129.812 27.2402C129.812 26.4062 129.634 25.7477 129.278 25.2646C128.923 24.7816 128.435 24.54 127.815 24.54C127.05 24.54 126.476 24.8796 126.093 25.5586V29.0928C126.471 29.7673 127.05 30.1045 127.829 30.1045C128.435 30.1045 128.916 29.8652 129.271 29.3867C129.632 28.9036 129.812 28.1882 129.812 27.2402ZM132.648 30.3369C132.648 30.1182 132.712 29.9359 132.84 29.79C132.972 29.6442 133.168 29.5713 133.428 29.5713C133.688 29.5713 133.883 29.6442 134.016 29.79C134.152 29.9359 134.221 30.1182 134.221 30.3369C134.221 30.5465 134.152 30.722 134.016 30.8633C133.883 31.0046 133.688 31.0752 133.428 31.0752C133.168 31.0752 132.972 31.0046 132.84 30.8633C132.712 30.722 132.648 30.5465 132.648 30.3369ZM132.655 24.3008C132.655 24.082 132.719 23.8997 132.847 23.7539C132.979 23.6081 133.175 23.5352 133.435 23.5352C133.694 23.5352 133.89 23.6081 134.022 23.7539C134.159 23.8997 134.228 24.082 134.228 24.3008C134.228 24.5104 134.159 24.6859 134.022 24.8271C133.89 24.9684 133.694 25.0391 133.435 25.0391C133.175 25.0391 132.979 24.9684 132.847 24.8271C132.719 24.6859 132.655 24.5104 132.655 24.3008ZM136.333 31.8545H135.246L139.402 21.0469H140.482L136.333 31.8545ZM140.571 31.8545H139.484L143.641 21.0469H144.721L140.571 31.8545ZM150.709 21.5732C150.144 21.4821 149.688 21.4365 149.342 21.4365C148.43 21.4365 147.975 21.915 147.975 22.8721V23.6035H149.554V24.5811H147.975V31H146.71V24.5811H145.541V23.6035H146.71V22.7969C146.715 22.0085 146.936 21.4046 147.373 20.9854C147.811 20.5661 148.433 20.3564 149.239 20.3564C149.7 20.3564 150.611 20.4954 151.974 20.7734V31H150.709V21.5732ZM156.465 29.1475L158.188 23.6035H159.541L156.567 32.1416C156.107 33.3721 155.376 33.9873 154.373 33.9873L154.134 33.9668L153.662 33.8779V32.8525L154.004 32.8799C154.432 32.8799 154.765 32.7933 155.002 32.6201C155.243 32.4469 155.442 32.1302 155.597 31.6699L155.877 30.918L153.238 23.6035H154.619L156.465 29.1475ZM166.938 27.3838C166.938 28.514 166.678 29.4232 166.158 30.1113C165.639 30.7949 164.941 31.1367 164.066 31.1367C163.132 31.1367 162.41 30.8063 161.899 30.1455L161.838 31H160.676V20.5H161.94V24.417C162.451 23.7835 163.155 23.4668 164.053 23.4668C164.951 23.4668 165.655 23.8063 166.165 24.4854C166.68 25.1644 166.938 26.0941 166.938 27.2744V27.3838ZM165.673 27.2402C165.673 26.3789 165.507 25.7135 165.174 25.2441C164.841 24.7747 164.363 24.54 163.738 24.54C162.904 24.54 162.305 24.9274 161.94 25.7021V28.9014C162.328 29.6761 162.932 30.0635 163.752 30.0635C164.358 30.0635 164.83 29.8288 165.167 29.3594C165.504 28.89 165.673 28.1836 165.673 27.2402ZM169.911 31H168.646V23.6035H169.911V31ZM168.544 21.6416C168.544 21.4365 168.605 21.2633 168.729 21.1221C168.856 20.9808 169.043 20.9102 169.289 20.9102C169.535 20.9102 169.722 20.9808 169.85 21.1221C169.977 21.2633 170.041 21.4365 170.041 21.6416C170.041 21.8467 169.977 22.0176 169.85 22.1543C169.722 22.291 169.535 22.3594 169.289 22.3594C169.043 22.3594 168.856 22.291 168.729 22.1543C168.605 22.0176 168.544 21.8467 168.544 21.6416ZM175.517 24.7383C175.325 24.7064 175.118 24.6904 174.895 24.6904C174.065 24.6904 173.502 25.0436 173.206 25.75V31H171.941V23.6035H173.172L173.192 24.458C173.607 23.7972 174.195 23.4668 174.956 23.4668C175.202 23.4668 175.389 23.4987 175.517 23.5625V24.7383ZM176.241 27.2402C176.241 26.1055 176.51 25.194 177.048 24.5059C177.586 23.8132 178.29 23.4668 179.16 23.4668C180.026 23.4668 180.712 23.763 181.218 24.3555V20.5H182.482V31H181.32L181.259 30.207C180.753 30.8268 180.049 31.1367 179.146 31.1367C178.29 31.1367 177.59 30.7858 177.048 30.084C176.51 29.3822 176.241 28.4661 176.241 27.3359V27.2402ZM177.506 27.3838C177.506 28.2223 177.679 28.8786 178.025 29.3525C178.372 29.8265 178.85 30.0635 179.461 30.0635C180.263 30.0635 180.849 29.7035 181.218 28.9834V25.5859C180.84 24.8887 180.258 24.54 179.475 24.54C178.855 24.54 178.372 24.7793 178.025 25.2578C177.679 25.7363 177.506 26.445 177.506 27.3838ZM189.072 21.5732C188.507 21.4821 188.051 21.4365 187.705 21.4365C186.794 21.4365 186.338 21.915 186.338 22.8721V23.6035H187.917V24.5811H186.338V31H185.073V24.5811H183.904V23.6035H185.073V22.7969C185.078 22.0085 185.299 21.4046 185.736 20.9854C186.174 20.5661 186.796 20.3564 187.603 20.3564C188.063 20.3564 188.974 20.4954 190.337 20.7734V31H189.072V21.5732ZM194.828 29.1475L196.551 23.6035H197.904L194.931 32.1416C194.47 33.3721 193.739 33.9873 192.736 33.9873L192.497 33.9668L192.025 33.8779V32.8525L192.367 32.8799C192.796 32.8799 193.128 32.7933 193.365 32.6201C193.607 32.4469 193.805 32.1302 193.96 31.6699L194.24 30.918L191.602 23.6035H192.982L194.828 29.1475ZM198.328 30.3369C198.328 30.1182 198.392 29.9359 198.52 29.79C198.652 29.6442 198.848 29.5713 199.107 29.5713C199.367 29.5713 199.563 29.6442 199.695 29.79C199.832 29.9359 199.9 30.1182 199.9 30.3369C199.9 30.5465 199.832 30.722 199.695 30.8633C199.563 31.0046 199.367 31.0752 199.107 31.0752C198.848 31.0752 198.652 31.0046 198.52 30.8633C198.392 30.722 198.328 30.5465 198.328 30.3369ZM204.959 30.1045C205.41 30.1045 205.804 29.9678 206.142 29.6943C206.479 29.4209 206.666 29.0791 206.702 28.6689H207.898C207.876 29.0928 207.73 29.4961 207.461 29.8789C207.192 30.2617 206.832 30.5671 206.381 30.7949C205.934 31.0228 205.46 31.1367 204.959 31.1367C203.952 31.1367 203.15 30.8018 202.553 30.1318C201.96 29.4574 201.664 28.5368 201.664 27.3701V27.1582C201.664 26.4382 201.796 25.7979 202.061 25.2373C202.325 24.6768 202.703 24.2415 203.195 23.9316C203.692 23.6217 204.278 23.4668 204.952 23.4668C205.782 23.4668 206.47 23.7152 207.017 24.2119C207.568 24.7087 207.862 25.3535 207.898 26.1465H206.702C206.666 25.668 206.483 25.276 206.155 24.9707C205.832 24.6608 205.431 24.5059 204.952 24.5059C204.31 24.5059 203.811 24.7383 203.455 25.2031C203.104 25.6634 202.929 26.3311 202.929 27.2061V27.4453C202.929 28.2975 203.104 28.9538 203.455 29.4141C203.806 29.8743 204.307 30.1045 204.959 30.1045ZM208.985 27.2334C208.985 26.5088 209.127 25.8571 209.409 25.2783C209.696 24.6995 210.093 24.2529 210.599 23.9385C211.109 23.624 211.69 23.4668 212.342 23.4668C213.349 23.4668 214.162 23.8154 214.782 24.5127C215.407 25.21 215.719 26.1374 215.719 27.2949V27.3838C215.719 28.1038 215.58 28.751 215.302 29.3252C215.028 29.8949 214.634 30.3392 214.119 30.6582C213.609 30.9772 213.021 31.1367 212.355 31.1367C211.353 31.1367 210.539 30.7881 209.915 30.0908C209.295 29.3936 208.985 28.4707 208.985 27.3223V27.2334ZM210.257 27.3838C210.257 28.2041 210.446 28.8626 210.824 29.3594C211.207 29.8561 211.717 30.1045 212.355 30.1045C212.998 30.1045 213.508 29.8538 213.887 29.3525C214.265 28.8467 214.454 28.1403 214.454 27.2334C214.454 26.4222 214.26 25.766 213.873 25.2646C213.49 24.7588 212.98 24.5059 212.342 24.5059C211.717 24.5059 211.214 24.7542 210.831 25.251C210.448 25.7477 210.257 26.4587 210.257 27.3838ZM218.494 23.6035L218.528 24.4238C219.071 23.7858 219.802 23.4668 220.723 23.4668C221.757 23.4668 222.461 23.8633 222.835 24.6562C223.081 24.3008 223.4 24.0137 223.792 23.7949C224.188 23.5762 224.656 23.4668 225.193 23.4668C226.816 23.4668 227.641 24.3258 227.668 26.0439V31H226.403V26.1191C226.403 25.5905 226.283 25.1963 226.041 24.9365C225.799 24.6722 225.394 24.54 224.824 24.54C224.355 24.54 223.965 24.6813 223.655 24.9639C223.345 25.2419 223.165 25.6178 223.115 26.0918V31H221.844V26.1533C221.844 25.0778 221.317 24.54 220.265 24.54C219.435 24.54 218.868 24.8932 218.562 25.5996V31H217.298V23.6035H218.494Z" fill="black"/>
<rect x="1.5" y="54.5" width="1437" height="99" rx="2.5" stroke="#C4C4C4" stroke-width="3"/>
<rect x="1.5" y="889.5" width="1437" height="99" rx="2.5" stroke="#C4C4C4" stroke-width="3"/>
<rect x="1.5" y="991.5" width="1437" height="31" rx="2.5" fill="black" stroke="black" stroke-width="3"/>
<path d="M1394.9 936.9L1392.29 939.476C1390.21 941.492 1388.9 943.2 1388.9 947.4H1383.1V946C1383.1 942.892 1384.41 940.092 1386.49 938.076L1390.09 934.548C1391.16 933.54 1391.8 932.14 1391.8 930.6C1391.8 927.492 1389.19 925 1386 925C1384.46 925 1382.99 925.59 1381.9 926.64C1380.81 927.69 1380.2 929.115 1380.2 930.6H1374.4C1374.4 927.63 1375.62 924.781 1377.8 922.68C1379.97 920.58 1382.92 919.4 1386 919.4C1389.08 919.4 1392.03 920.58 1394.2 922.68C1396.38 924.781 1397.6 927.63 1397.6 930.6C1397.6 933.064 1396.56 935.276 1394.9 936.9ZM1388.9 958.6H1383.1V953H1388.9V958.6ZM1386 911C1382.19 911 1378.42 911.724 1374.9 913.131C1371.38 914.539 1368.19 916.601 1365.49 919.201C1360.06 924.452 1357 931.574 1357 939C1357 946.426 1360.06 953.548 1365.49 958.799C1368.19 961.399 1371.38 963.461 1374.9 964.869C1378.42 966.276 1382.19 967 1386 967C1393.69 967 1401.07 964.05 1406.51 958.799C1411.94 953.548 1415 946.426 1415 939C1415 923.516 1401.95 911 1386 911Z" fill="#686B6F"/>
<path d="M57 114.6C57 112.612 58.6926 111 60.7805 111C62.8684 111 64.561 112.612 64.561 114.6C64.561 116.588 62.8684 118.2 60.7805 118.2C58.6926 118.2 57 116.588 57 114.6Z" fill="#959595"/>
<path d="M88 129H57.7561V124.68L61.4907 121.124C61.9336 120.702 62.6517 120.702 63.0946 121.124L66.8293 124.68L78.1248 113.924C78.5678 113.502 79.2859 113.502 79.7288 113.924L88 121.8V129Z" fill="#959595"/>
<path d="M115.76 113.493C113.348 112.8 111.59 111.95 110.486 110.944C109.393 109.929 108.846 108.679 108.846 107.194C108.846 105.515 109.515 104.128 110.853 103.034C112.2 101.931 113.948 101.379 116.097 101.379C117.562 101.379 118.865 101.662 120.008 102.229C121.16 102.795 122.049 103.576 122.674 104.572C123.309 105.568 123.626 106.657 123.626 107.839H120.799C120.799 106.55 120.389 105.539 119.568 104.807C118.748 104.064 117.591 103.693 116.097 103.693C114.71 103.693 113.626 104.001 112.845 104.616C112.073 105.222 111.688 106.066 111.688 107.15C111.688 108.02 112.054 108.757 112.786 109.362C113.528 109.958 114.783 110.505 116.551 111.003C118.328 111.501 119.715 112.053 120.711 112.658C121.717 113.254 122.459 113.952 122.938 114.753C123.426 115.554 123.67 116.496 123.67 117.58C123.67 119.309 122.996 120.695 121.648 121.74C120.301 122.775 118.499 123.293 116.243 123.293C114.778 123.293 113.411 123.015 112.142 122.458C110.872 121.892 109.891 121.12 109.197 120.144C108.514 119.167 108.172 118.059 108.172 116.818H110.999C110.999 118.107 111.473 119.128 112.42 119.88C113.377 120.622 114.651 120.993 116.243 120.993C117.728 120.993 118.865 120.69 119.656 120.085C120.447 119.479 120.843 118.654 120.843 117.609C120.843 116.564 120.477 115.759 119.744 115.192C119.012 114.616 117.684 114.05 115.76 113.493ZM129.412 107.15L129.485 108.908C130.647 107.541 132.215 106.857 134.188 106.857C136.404 106.857 137.913 107.707 138.714 109.406C139.241 108.645 139.925 108.029 140.765 107.561C141.614 107.092 142.615 106.857 143.768 106.857C147.244 106.857 149.012 108.698 149.07 112.38V123H146.36V112.541C146.36 111.408 146.102 110.563 145.584 110.007C145.066 109.44 144.197 109.157 142.977 109.157C141.971 109.157 141.136 109.46 140.472 110.065C139.808 110.661 139.422 111.467 139.314 112.482V123H136.59V112.614C136.59 110.31 135.462 109.157 133.206 109.157C131.429 109.157 130.213 109.914 129.559 111.428V123H126.849V107.15H129.412ZM162.957 123C162.801 122.688 162.674 122.131 162.576 121.33C161.316 122.639 159.812 123.293 158.064 123.293C156.502 123.293 155.218 122.854 154.212 121.975C153.216 121.086 152.718 119.963 152.718 118.605C152.718 116.955 153.343 115.676 154.593 114.768C155.853 113.85 157.62 113.391 159.896 113.391H162.532V112.146C162.532 111.198 162.249 110.446 161.683 109.89C161.116 109.323 160.281 109.04 159.178 109.04C158.211 109.04 157.4 109.284 156.746 109.772C156.092 110.261 155.765 110.852 155.765 111.545H153.04C153.04 110.754 153.318 109.992 153.875 109.26C154.441 108.518 155.203 107.932 156.16 107.502C157.127 107.072 158.187 106.857 159.339 106.857C161.165 106.857 162.596 107.316 163.631 108.234C164.666 109.143 165.203 110.397 165.242 111.999V119.294C165.242 120.749 165.428 121.906 165.799 122.766V123H162.957ZM158.46 120.935C159.31 120.935 160.115 120.715 160.877 120.275C161.639 119.836 162.19 119.265 162.532 118.562V115.31H160.408C157.088 115.31 155.428 116.281 155.428 118.225C155.428 119.074 155.711 119.738 156.277 120.217C156.844 120.695 157.571 120.935 158.46 120.935ZM177.151 109.582C176.741 109.514 176.297 109.479 175.818 109.479C174.041 109.479 172.835 110.236 172.2 111.75V123H169.49V107.15H172.127L172.171 108.981C173.06 107.565 174.319 106.857 175.95 106.857C176.478 106.857 176.878 106.926 177.151 107.062V109.582ZM184.065 103.312V107.15H187.024V109.245H184.065V119.074C184.065 119.709 184.197 120.188 184.461 120.51C184.725 120.822 185.174 120.979 185.809 120.979C186.121 120.979 186.551 120.92 187.098 120.803V123C186.385 123.195 185.691 123.293 185.018 123.293C183.807 123.293 182.894 122.927 182.278 122.194C181.663 121.462 181.355 120.422 181.355 119.074V109.245H178.47V107.15H181.355V103.312H184.065ZM198.069 123V101.672H205.042C207.356 101.672 209.095 102.15 210.257 103.107C211.429 104.064 212.015 105.48 212.015 107.355C212.015 108.352 211.731 109.235 211.165 110.007C210.599 110.769 209.827 111.359 208.851 111.779C210.003 112.102 210.911 112.717 211.575 113.625C212.249 114.523 212.586 115.598 212.586 116.848C212.586 118.762 211.966 120.266 210.726 121.359C209.485 122.453 207.732 123 205.467 123H198.069ZM200.882 113.024V120.7H205.525C206.834 120.7 207.864 120.363 208.616 119.689C209.378 119.006 209.759 118.068 209.759 116.877C209.759 114.309 208.362 113.024 205.569 113.024H200.882ZM200.882 110.769H205.13C206.36 110.769 207.342 110.461 208.074 109.846C208.816 109.23 209.188 108.396 209.188 107.341C209.188 106.169 208.846 105.319 208.162 104.792C207.479 104.255 206.438 103.986 205.042 103.986H200.882V110.769ZM219.28 123H216.57V107.15H219.28V123ZM216.351 102.946C216.351 102.507 216.482 102.136 216.746 101.833C217.02 101.53 217.42 101.379 217.947 101.379C218.475 101.379 218.875 101.53 219.148 101.833C219.422 102.136 219.559 102.507 219.559 102.946C219.559 103.386 219.422 103.752 219.148 104.045C218.875 104.338 218.475 104.484 217.947 104.484C217.42 104.484 217.02 104.338 216.746 104.045C216.482 103.752 216.351 103.386 216.351 102.946ZM231.292 109.582C230.882 109.514 230.438 109.479 229.959 109.479C228.182 109.479 226.976 110.236 226.341 111.75V123H223.631V107.15H226.268L226.312 108.981C227.2 107.565 228.46 106.857 230.091 106.857C230.618 106.857 231.019 106.926 231.292 107.062V109.582ZM232.845 114.943C232.845 112.512 233.421 110.559 234.573 109.084C235.726 107.6 237.234 106.857 239.1 106.857C240.955 106.857 242.425 107.492 243.509 108.762V100.5H246.219V123H243.729L243.597 121.301C242.513 122.629 241.004 123.293 239.07 123.293C237.234 123.293 235.735 122.541 234.573 121.037C233.421 119.533 232.845 117.57 232.845 115.148V114.943ZM235.555 115.251C235.555 117.048 235.926 118.454 236.668 119.47C237.41 120.485 238.436 120.993 239.744 120.993C241.463 120.993 242.718 120.222 243.509 118.679V111.398C242.698 109.904 241.453 109.157 239.773 109.157C238.445 109.157 237.41 109.67 236.668 110.695C235.926 111.721 235.555 113.239 235.555 115.251ZM259.666 118.796C259.666 118.063 259.388 117.497 258.831 117.097C258.284 116.687 257.322 116.335 255.945 116.042C254.578 115.749 253.489 115.397 252.679 114.987C251.878 114.577 251.282 114.089 250.892 113.522C250.511 112.956 250.32 112.282 250.32 111.501C250.32 110.202 250.867 109.104 251.961 108.205C253.064 107.307 254.471 106.857 256.18 106.857C257.977 106.857 259.432 107.321 260.545 108.249C261.668 109.177 262.229 110.363 262.229 111.809H259.505C259.505 111.066 259.188 110.427 258.553 109.89C257.928 109.353 257.137 109.084 256.18 109.084C255.193 109.084 254.422 109.299 253.865 109.729C253.309 110.158 253.03 110.72 253.03 111.413C253.03 112.067 253.289 112.561 253.807 112.893C254.324 113.225 255.257 113.542 256.604 113.845C257.962 114.147 259.061 114.509 259.9 114.929C260.74 115.349 261.36 115.856 261.761 116.452C262.171 117.038 262.376 117.756 262.376 118.605C262.376 120.021 261.81 121.159 260.677 122.019C259.544 122.868 258.074 123.293 256.268 123.293C254.998 123.293 253.875 123.068 252.898 122.619C251.922 122.17 251.155 121.545 250.599 120.744C250.052 119.934 249.778 119.06 249.778 118.122H252.488C252.537 119.03 252.898 119.753 253.572 120.29C254.256 120.817 255.154 121.081 256.268 121.081C257.293 121.081 258.113 120.876 258.729 120.466C259.354 120.046 259.666 119.489 259.666 118.796Z" fill="black"/>
<rect x="19.5" y="65.5" width="84" height="78" fill="#EAEAEA" stroke="#C4C4C4"/>
<path d="M19.7142 65.6639L42.5714 86.9076" stroke="#C4C4C4"/>
<path d="M80.4286 122.092L103.286 143.336" stroke="#C4C4C4"/>
<path d="M80.4286 86.9076L103.286 65.6639" stroke="#C4C4C4"/>
<path d="M19.7142 143.336L42.5714 122.092" stroke="#C4C4C4"/>
<rect x="3.5" y="155.5" width="1436" height="732" fill="#EAEAEA" stroke="#C4C4C4"/>
<path d="M15.0768 161.16L401.497 358.269" stroke="#C4C4C4"/>
<path d="M1041.51 684.731L1427.93 881.84" stroke="#C4C4C4"/>
<path d="M1041.51 358.269L1427.93 161.16" stroke="#C4C4C4"/>
<path d="M15.0768 881.84L401.497 684.731" stroke="#C4C4C4"/>
<path d="M23.2451 940.966L23.4912 942.653L23.8516 941.133L26.3828 932.203H27.8066L30.2764 941.133L30.6279 942.68L30.9004 940.957L32.8867 932.203H34.583L31.4805 945H29.9424L27.3057 935.675L27.1035 934.699L26.9014 935.675L24.168 945H22.6299L19.5361 932.203H21.2236L23.2451 940.966ZM39.874 945.176C38.585 945.176 37.5361 944.754 36.7275 943.91C35.9189 943.061 35.5146 941.927 35.5146 940.509V940.21C35.5146 939.267 35.6934 938.426 36.0508 937.688C36.4141 936.943 36.918 936.363 37.5625 935.947C38.2129 935.525 38.916 935.314 39.6719 935.314C40.9082 935.314 41.8691 935.722 42.5547 936.536C43.2402 937.351 43.583 938.517 43.583 940.034V940.711H37.1406C37.1641 941.648 37.4365 942.407 37.958 942.987C38.4854 943.562 39.1533 943.849 39.9619 943.849C40.5361 943.849 41.0225 943.731 41.4209 943.497C41.8193 943.263 42.168 942.952 42.4668 942.565L43.46 943.339C42.6631 944.563 41.4678 945.176 39.874 945.176ZM39.6719 936.65C39.0156 936.65 38.4648 936.891 38.0195 937.371C37.5742 937.846 37.2988 938.514 37.1934 939.375H41.957V939.252C41.9102 938.426 41.6875 937.787 41.2891 937.336C40.8906 936.879 40.3516 936.65 39.6719 936.65ZM53.5234 940.351C53.5234 941.804 53.1895 942.973 52.5215 943.857C51.8535 944.736 50.957 945.176 49.832 945.176C48.6309 945.176 47.7021 944.751 47.0459 943.901L46.9668 945H45.4727V931.5H47.0986V936.536C47.7549 935.722 48.6602 935.314 49.8145 935.314C50.9688 935.314 51.874 935.751 52.5303 936.624C53.1924 937.497 53.5234 938.692 53.5234 940.21V940.351ZM51.8975 940.166C51.8975 939.059 51.6836 938.203 51.2559 937.6C50.8281 936.996 50.2129 936.694 49.4102 936.694C48.3379 936.694 47.5674 937.192 47.0986 938.188V942.302C47.5967 943.298 48.373 943.796 49.4277 943.796C50.207 943.796 50.8135 943.494 51.2471 942.891C51.6807 942.287 51.8975 941.379 51.8975 940.166ZM67.3662 941.66H62.0049L60.8008 945H59.0605L63.9473 932.203H65.4238L70.3193 945H68.5879L67.3662 941.66ZM62.5146 940.271H66.8652L64.6855 934.286L62.5146 940.271ZM79.8203 940.351C79.8203 941.798 79.4893 942.964 78.8271 943.849C78.165 944.733 77.2686 945.176 76.1377 945.176C74.9834 945.176 74.0752 944.81 73.4131 944.077V948.656H71.7871V935.49H73.2725L73.3516 936.545C74.0137 935.725 74.9336 935.314 76.1113 935.314C77.2539 935.314 78.1562 935.745 78.8184 936.606C79.4863 937.468 79.8203 938.666 79.8203 940.201V940.351ZM78.1943 940.166C78.1943 939.094 77.9658 938.247 77.5088 937.626C77.0518 937.005 76.4248 936.694 75.6279 936.694C74.6436 936.694 73.9053 937.131 73.4131 938.004V942.548C73.8994 943.415 74.6436 943.849 75.6455 943.849C76.4248 943.849 77.043 943.541 77.5 942.926C77.9629 942.305 78.1943 941.385 78.1943 940.166ZM89.9277 940.351C89.9277 941.798 89.5967 942.964 88.9346 943.849C88.2725 944.733 87.376 945.176 86.2451 945.176C85.0908 945.176 84.1826 944.81 83.5205 944.077V948.656H81.8945V935.49H83.3799L83.459 936.545C84.1211 935.725 85.041 935.314 86.2188 935.314C87.3613 935.314 88.2637 935.745 88.9258 936.606C89.5938 937.468 89.9277 938.666 89.9277 940.201V940.351ZM88.3018 940.166C88.3018 939.094 88.0732 938.247 87.6162 937.626C87.1592 937.005 86.5322 936.694 85.7354 936.694C84.751 936.694 84.0127 937.131 83.5205 938.004V942.548C84.0068 943.415 84.751 943.849 85.7529 943.849C86.5322 943.849 87.1504 943.541 87.6074 942.926C88.0703 942.305 88.3018 941.385 88.3018 940.166ZM93.7686 945H92.1426V931.5H93.7686V945ZM98.1455 945H96.5195V935.49H98.1455V945ZM96.3877 932.968C96.3877 932.704 96.4668 932.481 96.625 932.3C96.7891 932.118 97.0293 932.027 97.3457 932.027C97.6621 932.027 97.9023 932.118 98.0664 932.3C98.2305 932.481 98.3125 932.704 98.3125 932.968C98.3125 933.231 98.2305 933.451 98.0664 933.627C97.9023 933.803 97.6621 933.891 97.3457 933.891C97.0293 933.891 96.7891 933.803 96.625 933.627C96.4668 933.451 96.3877 933.231 96.3877 932.968ZM104.57 943.849C105.15 943.849 105.657 943.673 106.091 943.321C106.524 942.97 106.765 942.53 106.812 942.003H108.35C108.32 942.548 108.133 943.066 107.787 943.559C107.441 944.051 106.979 944.443 106.398 944.736C105.824 945.029 105.215 945.176 104.57 945.176C103.275 945.176 102.244 944.745 101.477 943.884C100.715 943.017 100.334 941.833 100.334 940.333V940.061C100.334 939.135 100.504 938.312 100.844 937.591C101.184 936.87 101.67 936.311 102.303 935.912C102.941 935.514 103.694 935.314 104.562 935.314C105.628 935.314 106.513 935.634 107.216 936.272C107.925 936.911 108.303 937.74 108.35 938.76H106.812C106.765 938.145 106.53 937.641 106.108 937.248C105.692 936.85 105.177 936.65 104.562 936.65C103.735 936.65 103.094 936.949 102.637 937.547C102.186 938.139 101.96 938.997 101.96 940.122V940.43C101.96 941.525 102.186 942.369 102.637 942.961C103.088 943.553 103.732 943.849 104.57 943.849ZM116.049 945C115.955 944.812 115.879 944.479 115.82 943.998C115.064 944.783 114.162 945.176 113.113 945.176C112.176 945.176 111.405 944.912 110.802 944.385C110.204 943.852 109.905 943.178 109.905 942.363C109.905 941.373 110.28 940.605 111.03 940.061C111.786 939.51 112.847 939.234 114.212 939.234H115.794V938.487C115.794 937.919 115.624 937.468 115.284 937.134C114.944 936.794 114.443 936.624 113.781 936.624C113.201 936.624 112.715 936.771 112.322 937.063C111.93 937.356 111.733 937.711 111.733 938.127H110.099C110.099 937.652 110.266 937.195 110.6 936.756C110.939 936.311 111.396 935.959 111.971 935.701C112.551 935.443 113.187 935.314 113.878 935.314C114.974 935.314 115.832 935.59 116.453 936.141C117.074 936.686 117.396 937.438 117.42 938.399V942.776C117.42 943.649 117.531 944.344 117.754 944.859V945H116.049ZM113.351 943.761C113.86 943.761 114.344 943.629 114.801 943.365C115.258 943.102 115.589 942.759 115.794 942.337V940.386H114.52C112.527 940.386 111.531 940.969 111.531 942.135C111.531 942.645 111.701 943.043 112.041 943.33C112.381 943.617 112.817 943.761 113.351 943.761ZM122.175 933.188V935.49H123.95V936.747H122.175V942.645C122.175 943.025 122.254 943.312 122.412 943.506C122.57 943.693 122.84 943.787 123.221 943.787C123.408 943.787 123.666 943.752 123.994 943.682V945C123.566 945.117 123.15 945.176 122.746 945.176C122.02 945.176 121.472 944.956 121.103 944.517C120.733 944.077 120.549 943.453 120.549 942.645V936.747H118.817V935.49H120.549V933.188H122.175ZM127.624 945H125.998V935.49H127.624V945ZM125.866 932.968C125.866 932.704 125.945 932.481 126.104 932.3C126.268 932.118 126.508 932.027 126.824 932.027C127.141 932.027 127.381 932.118 127.545 932.3C127.709 932.481 127.791 932.704 127.791 932.968C127.791 933.231 127.709 933.451 127.545 933.627C127.381 933.803 127.141 933.891 126.824 933.891C126.508 933.891 126.268 933.803 126.104 933.627C125.945 933.451 125.866 933.231 125.866 932.968ZM129.804 940.157C129.804 939.226 129.985 938.388 130.349 937.644C130.718 936.899 131.228 936.325 131.878 935.921C132.534 935.517 133.281 935.314 134.119 935.314C135.414 935.314 136.46 935.763 137.257 936.659C138.06 937.556 138.461 938.748 138.461 940.236V940.351C138.461 941.276 138.282 942.108 137.925 942.847C137.573 943.579 137.066 944.15 136.404 944.561C135.748 944.971 134.992 945.176 134.137 945.176C132.848 945.176 131.802 944.728 130.999 943.831C130.202 942.935 129.804 941.748 129.804 940.271V940.157ZM131.438 940.351C131.438 941.405 131.682 942.252 132.168 942.891C132.66 943.529 133.316 943.849 134.137 943.849C134.963 943.849 135.619 943.526 136.105 942.882C136.592 942.231 136.835 941.323 136.835 940.157C136.835 939.114 136.586 938.271 136.088 937.626C135.596 936.976 134.939 936.65 134.119 936.65C133.316 936.65 132.669 936.97 132.177 937.608C131.685 938.247 131.438 939.161 131.438 940.351ZM142.038 935.49L142.091 936.686C142.817 935.771 143.767 935.314 144.938 935.314C146.948 935.314 147.962 936.448 147.979 938.716V945H146.354V938.707C146.348 938.021 146.189 937.515 145.879 937.187C145.574 936.858 145.097 936.694 144.446 936.694C143.919 936.694 143.456 936.835 143.058 937.116C142.659 937.397 142.349 937.767 142.126 938.224V945H140.5V935.49H142.038ZM155.969 942.478C155.969 942.038 155.802 941.698 155.468 941.458C155.14 941.212 154.562 941.001 153.736 940.825C152.916 940.649 152.263 940.438 151.776 940.192C151.296 939.946 150.938 939.653 150.704 939.313C150.476 938.974 150.361 938.569 150.361 938.101C150.361 937.321 150.689 936.662 151.346 936.123C152.008 935.584 152.852 935.314 153.877 935.314C154.955 935.314 155.828 935.593 156.496 936.149C157.17 936.706 157.507 937.418 157.507 938.285H155.872C155.872 937.84 155.682 937.456 155.301 937.134C154.926 936.812 154.451 936.65 153.877 936.65C153.285 936.65 152.822 936.779 152.488 937.037C152.154 937.295 151.987 937.632 151.987 938.048C151.987 938.44 152.143 938.736 152.453 938.936C152.764 939.135 153.323 939.325 154.132 939.507C154.946 939.688 155.605 939.905 156.109 940.157C156.613 940.409 156.985 940.714 157.226 941.071C157.472 941.423 157.595 941.854 157.595 942.363C157.595 943.213 157.255 943.896 156.575 944.411C155.896 944.921 155.014 945.176 153.93 945.176C153.168 945.176 152.494 945.041 151.908 944.771C151.322 944.502 150.862 944.127 150.528 943.646C150.2 943.16 150.036 942.636 150.036 942.073H151.662C151.691 942.618 151.908 943.052 152.312 943.374C152.723 943.69 153.262 943.849 153.93 943.849C154.545 943.849 155.037 943.726 155.406 943.479C155.781 943.228 155.969 942.894 155.969 942.478ZM164.433 945V932.203H168.045C169.158 932.203 170.143 932.449 170.998 932.941C171.854 933.434 172.513 934.134 172.976 935.042C173.444 935.95 173.682 936.993 173.688 938.171V938.988C173.688 940.195 173.453 941.253 172.984 942.161C172.521 943.069 171.856 943.767 170.989 944.253C170.128 944.739 169.123 944.988 167.975 945H164.433ZM166.12 933.592V943.62H167.896C169.196 943.62 170.207 943.216 170.928 942.407C171.654 941.599 172.018 940.447 172.018 938.953V938.206C172.018 936.753 171.675 935.625 170.989 934.822C170.31 934.014 169.343 933.604 168.089 933.592H166.12ZM179.937 945.176C178.647 945.176 177.599 944.754 176.79 943.91C175.981 943.061 175.577 941.927 175.577 940.509V940.21C175.577 939.267 175.756 938.426 176.113 937.688C176.477 936.943 176.98 936.363 177.625 935.947C178.275 935.525 178.979 935.314 179.734 935.314C180.971 935.314 181.932 935.722 182.617 936.536C183.303 937.351 183.646 938.517 183.646 940.034V940.711H177.203C177.227 941.648 177.499 942.407 178.021 942.987C178.548 943.562 179.216 943.849 180.024 943.849C180.599 943.849 181.085 943.731 181.483 943.497C181.882 943.263 182.23 942.952 182.529 942.565L183.522 943.339C182.726 944.563 181.53 945.176 179.937 945.176ZM179.734 936.65C179.078 936.65 178.527 936.891 178.082 937.371C177.637 937.846 177.361 938.514 177.256 939.375H182.02V939.252C181.973 938.426 181.75 937.787 181.352 937.336C180.953 936.879 180.414 936.65 179.734 936.65ZM188.55 942.794L190.905 935.49H192.566L189.156 945H187.917L184.472 935.49H186.133L188.55 942.794ZM197.954 945.176C196.665 945.176 195.616 944.754 194.808 943.91C193.999 943.061 193.595 941.927 193.595 940.509V940.21C193.595 939.267 193.773 938.426 194.131 937.688C194.494 936.943 194.998 936.363 195.643 935.947C196.293 935.525 196.996 935.314 197.752 935.314C198.988 935.314 199.949 935.722 200.635 936.536C201.32 937.351 201.663 938.517 201.663 940.034V940.711H195.221C195.244 941.648 195.517 942.407 196.038 942.987C196.565 943.562 197.233 943.849 198.042 943.849C198.616 943.849 199.103 943.731 199.501 943.497C199.899 943.263 200.248 942.952 200.547 942.565L201.54 943.339C200.743 944.563 199.548 945.176 197.954 945.176ZM197.752 936.65C197.096 936.65 196.545 936.891 196.1 937.371C195.654 937.846 195.379 938.514 195.273 939.375H200.037V939.252C199.99 938.426 199.768 937.787 199.369 937.336C198.971 936.879 198.432 936.65 197.752 936.65ZM205.319 945H203.693V931.5H205.319V945ZM207.499 940.157C207.499 939.226 207.681 938.388 208.044 937.644C208.413 936.899 208.923 936.325 209.573 935.921C210.229 935.517 210.977 935.314 211.814 935.314C213.109 935.314 214.155 935.763 214.952 936.659C215.755 937.556 216.156 938.748 216.156 940.236V940.351C216.156 941.276 215.978 942.108 215.62 942.847C215.269 943.579 214.762 944.15 214.1 944.561C213.443 944.971 212.688 945.176 211.832 945.176C210.543 945.176 209.497 944.728 208.694 943.831C207.897 942.935 207.499 941.748 207.499 940.271V940.157ZM209.134 940.351C209.134 941.405 209.377 942.252 209.863 942.891C210.355 943.529 211.012 943.849 211.832 943.849C212.658 943.849 213.314 943.526 213.801 942.882C214.287 942.231 214.53 941.323 214.53 940.157C214.53 939.114 214.281 938.271 213.783 937.626C213.291 936.976 212.635 936.65 211.814 936.65C211.012 936.65 210.364 936.97 209.872 937.608C209.38 938.247 209.134 939.161 209.134 940.351ZM226.229 940.351C226.229 941.798 225.897 942.964 225.235 943.849C224.573 944.733 223.677 945.176 222.546 945.176C221.392 945.176 220.483 944.81 219.821 944.077V948.656H218.195V935.49H219.681L219.76 936.545C220.422 935.725 221.342 935.314 222.52 935.314C223.662 935.314 224.564 935.745 225.227 936.606C225.895 937.468 226.229 938.666 226.229 940.201V940.351ZM224.603 940.166C224.603 939.094 224.374 938.247 223.917 937.626C223.46 937.005 222.833 936.694 222.036 936.694C221.052 936.694 220.313 937.131 219.821 938.004V942.548C220.308 943.415 221.052 943.849 222.054 943.849C222.833 943.849 223.451 943.541 223.908 942.926C224.371 942.305 224.603 941.385 224.603 940.166ZM229.832 935.49L229.876 936.545C230.573 935.725 231.514 935.314 232.697 935.314C234.027 935.314 234.933 935.824 235.413 936.844C235.729 936.387 236.14 936.018 236.644 935.736C237.153 935.455 237.754 935.314 238.445 935.314C240.531 935.314 241.592 936.419 241.627 938.628V945H240.001V938.725C240.001 938.045 239.846 937.538 239.535 937.204C239.225 936.864 238.703 936.694 237.971 936.694C237.367 936.694 236.866 936.876 236.468 937.239C236.069 937.597 235.838 938.08 235.773 938.689V945H234.139V938.769C234.139 937.386 233.462 936.694 232.108 936.694C231.042 936.694 230.312 937.148 229.92 938.057V945H228.294V935.49H229.832ZM248.034 945.176C246.745 945.176 245.696 944.754 244.888 943.91C244.079 943.061 243.675 941.927 243.675 940.509V940.21C243.675 939.267 243.854 938.426 244.211 937.688C244.574 936.943 245.078 936.363 245.723 935.947C246.373 935.525 247.076 935.314 247.832 935.314C249.068 935.314 250.029 935.722 250.715 936.536C251.4 937.351 251.743 938.517 251.743 940.034V940.711H245.301C245.324 941.648 245.597 942.407 246.118 942.987C246.646 943.562 247.313 943.849 248.122 943.849C248.696 943.849 249.183 943.731 249.581 943.497C249.979 943.263 250.328 942.952 250.627 942.565L251.62 943.339C250.823 944.563 249.628 945.176 248.034 945.176ZM247.832 936.65C247.176 936.65 246.625 936.891 246.18 937.371C245.734 937.846 245.459 938.514 245.354 939.375H250.117V939.252C250.07 938.426 249.848 937.787 249.449 937.336C249.051 936.879 248.512 936.65 247.832 936.65ZM255.171 935.49L255.224 936.686C255.95 935.771 256.899 935.314 258.071 935.314C260.081 935.314 261.095 936.448 261.112 938.716V945H259.486V938.707C259.48 938.021 259.322 937.515 259.012 937.187C258.707 936.858 258.229 936.694 257.579 936.694C257.052 936.694 256.589 936.835 256.19 937.116C255.792 937.397 255.481 937.767 255.259 938.224V945H253.633V935.49H255.171ZM265.771 933.188V935.49H267.546V936.747H265.771V942.645C265.771 943.025 265.85 943.312 266.008 943.506C266.166 943.693 266.436 943.787 266.816 943.787C267.004 943.787 267.262 943.752 267.59 943.682V945C267.162 945.117 266.746 945.176 266.342 945.176C265.615 945.176 265.067 944.956 264.698 944.517C264.329 944.077 264.145 943.453 264.145 942.645V936.747H262.413V935.49H264.145V933.188H265.771Z" fill="#959595"/>
<g filter="url(#filter0_d)">
<rect x="309" y="270" width="905" height="484" rx="4" fill="white"/>
<rect x="309.5" y="270.5" width="904" height="483" rx="3.5" stroke="#D4D4D4"/>
</g>
<path fill-rule="evenodd" clip-rule="evenodd" d="M616 449C616 446.239 618.239 444 621 444H901C903.761 444 906 446.239 906 449V520C906 522.761 903.761 525 901 525H621C618.239 525 616 522.761 616 520V449Z" fill="#525252"/>
<path d="M675.244 484.668C674.986 487.398 673.979 489.531 672.221 491.066C670.463 492.59 668.125 493.352 665.207 493.352C663.168 493.352 661.369 492.871 659.811 491.91C658.264 490.938 657.068 489.561 656.225 487.779C655.381 485.998 654.941 483.93 654.906 481.574V479.184C654.906 476.77 655.334 474.643 656.189 472.803C657.045 470.963 658.27 469.545 659.863 468.549C661.469 467.553 663.32 467.055 665.418 467.055C668.242 467.055 670.516 467.822 672.238 469.357C673.961 470.893 674.963 473.061 675.244 475.861H670.814C670.604 474.021 670.064 472.697 669.197 471.889C668.342 471.068 667.082 470.658 665.418 470.658C663.484 470.658 661.996 471.367 660.953 472.785C659.922 474.191 659.395 476.26 659.371 478.99V481.258C659.371 484.023 659.863 486.133 660.848 487.586C661.844 489.039 663.297 489.766 665.207 489.766C666.953 489.766 668.266 489.373 669.145 488.588C670.023 487.803 670.58 486.496 670.814 484.668H675.244ZM688.779 477.883C688.217 477.789 687.637 477.742 687.039 477.742C685.082 477.742 683.764 478.492 683.084 479.992V493H678.812V473.98H682.891L682.996 476.107C684.027 474.455 685.457 473.629 687.285 473.629C687.895 473.629 688.398 473.711 688.797 473.875L688.779 477.883ZM699.502 493.352C696.795 493.352 694.598 492.502 692.91 490.803C691.234 489.092 690.396 486.818 690.396 483.982V483.455C690.396 481.557 690.76 479.863 691.486 478.375C692.225 476.875 693.256 475.709 694.58 474.877C695.904 474.045 697.381 473.629 699.01 473.629C701.6 473.629 703.598 474.455 705.004 476.107C706.422 477.76 707.131 480.098 707.131 483.121V484.844H694.703C694.832 486.414 695.354 487.656 696.268 488.57C697.193 489.484 698.354 489.941 699.748 489.941C701.705 489.941 703.299 489.15 704.529 487.568L706.832 489.766C706.07 490.902 705.051 491.787 703.773 492.42C702.508 493.041 701.084 493.352 699.502 493.352ZM698.992 477.057C697.82 477.057 696.871 477.467 696.145 478.287C695.43 479.107 694.973 480.25 694.773 481.715H702.912V481.398C702.818 479.969 702.438 478.891 701.77 478.164C701.102 477.426 700.176 477.057 698.992 477.057ZM721.826 493C721.639 492.637 721.475 492.045 721.334 491.225C719.975 492.643 718.311 493.352 716.342 493.352C714.432 493.352 712.873 492.807 711.666 491.717C710.459 490.627 709.855 489.279 709.855 487.674C709.855 485.646 710.605 484.094 712.105 483.016C713.617 481.926 715.773 481.381 718.574 481.381H721.193V480.133C721.193 479.148 720.918 478.363 720.367 477.777C719.816 477.18 718.979 476.881 717.854 476.881C716.881 476.881 716.084 477.127 715.463 477.619C714.842 478.1 714.531 478.715 714.531 479.465H710.26C710.26 478.422 710.605 477.449 711.297 476.547C711.988 475.633 712.926 474.918 714.109 474.402C715.305 473.887 716.635 473.629 718.1 473.629C720.326 473.629 722.102 474.191 723.426 475.316C724.75 476.43 725.43 478 725.465 480.027V488.605C725.465 490.316 725.705 491.682 726.186 492.701V493H721.826ZM717.133 489.924C717.977 489.924 718.768 489.719 719.506 489.309C720.256 488.898 720.818 488.348 721.193 487.656V484.07H718.891C717.309 484.07 716.119 484.346 715.322 484.896C714.525 485.447 714.127 486.227 714.127 487.234C714.127 488.055 714.396 488.711 714.936 489.203C715.486 489.684 716.219 489.924 717.133 489.924ZM735.291 469.357V473.98H738.648V477.145H735.291V487.762C735.291 488.488 735.432 489.016 735.713 489.344C736.006 489.66 736.521 489.818 737.26 489.818C737.752 489.818 738.25 489.76 738.754 489.643V492.947C737.781 493.217 736.844 493.352 735.941 493.352C732.66 493.352 731.02 491.541 731.02 487.92V477.145H727.891V473.98H731.02V469.357H735.291ZM750.303 493.352C747.596 493.352 745.398 492.502 743.711 490.803C742.035 489.092 741.197 486.818 741.197 483.982V483.455C741.197 481.557 741.561 479.863 742.287 478.375C743.025 476.875 744.057 475.709 745.381 474.877C746.705 474.045 748.182 473.629 749.811 473.629C752.4 473.629 754.398 474.455 755.805 476.107C757.223 477.76 757.932 480.098 757.932 483.121V484.844H745.504C745.633 486.414 746.154 487.656 747.068 488.57C747.994 489.484 749.154 489.941 750.549 489.941C752.506 489.941 754.1 489.15 755.33 487.568L757.633 489.766C756.871 490.902 755.852 491.787 754.574 492.42C753.309 493.041 751.885 493.352 750.303 493.352ZM749.793 477.057C748.621 477.057 747.672 477.467 746.945 478.287C746.23 479.107 745.773 480.25 745.574 481.715H753.713V481.398C753.619 479.969 753.238 478.891 752.57 478.164C751.902 477.426 750.977 477.057 749.793 477.057ZM776.406 467.406L783.789 487.023L791.154 467.406H796.902V493H792.473V484.562L792.912 473.277L785.354 493H782.172L774.631 473.295L775.07 484.562V493H770.641V467.406H776.406ZM813.127 493C812.939 492.637 812.775 492.045 812.635 491.225C811.275 492.643 809.611 493.352 807.643 493.352C805.732 493.352 804.174 492.807 802.967 491.717C801.76 490.627 801.156 489.279 801.156 487.674C801.156 485.646 801.906 484.094 803.406 483.016C804.918 481.926 807.074 481.381 809.875 481.381H812.494V480.133C812.494 479.148 812.219 478.363 811.668 477.777C811.117 477.18 810.279 476.881 809.154 476.881C808.182 476.881 807.385 477.127 806.764 477.619C806.143 478.1 805.832 478.715 805.832 479.465H801.561C801.561 478.422 801.906 477.449 802.598 476.547C803.289 475.633 804.227 474.918 805.41 474.402C806.605 473.887 807.936 473.629 809.4 473.629C811.627 473.629 813.402 474.191 814.727 475.316C816.051 476.43 816.73 478 816.766 480.027V488.605C816.766 490.316 817.006 491.682 817.486 492.701V493H813.127ZM808.434 489.924C809.277 489.924 810.068 489.719 810.807 489.309C811.557 488.898 812.119 488.348 812.494 487.656V484.07H810.191C808.609 484.07 807.42 484.346 806.623 484.896C805.826 485.447 805.428 486.227 805.428 487.234C805.428 488.055 805.697 488.711 806.236 489.203C806.787 489.684 807.52 489.924 808.434 489.924ZM826.592 469.357V473.98H829.949V477.145H826.592V487.762C826.592 488.488 826.732 489.016 827.014 489.344C827.307 489.66 827.822 489.818 828.561 489.818C829.053 489.818 829.551 489.76 830.055 489.643V492.947C829.082 493.217 828.145 493.352 827.242 493.352C823.961 493.352 822.32 491.541 822.32 487.92V477.145H819.191V473.98H822.32V469.357H826.592ZM841.041 489.941C842.107 489.941 842.992 489.631 843.695 489.01C844.398 488.389 844.773 487.621 844.82 486.707H848.846C848.799 487.891 848.43 488.998 847.738 490.029C847.047 491.049 846.109 491.857 844.926 492.455C843.742 493.053 842.465 493.352 841.094 493.352C838.434 493.352 836.324 492.49 834.766 490.768C833.207 489.045 832.428 486.666 832.428 483.631V483.191C832.428 480.297 833.201 477.982 834.748 476.248C836.295 474.502 838.404 473.629 841.076 473.629C843.338 473.629 845.178 474.291 846.596 475.615C848.025 476.928 848.775 478.656 848.846 480.801H844.82C844.773 479.711 844.398 478.814 843.695 478.111C843.004 477.408 842.119 477.057 841.041 477.057C839.658 477.057 838.592 477.561 837.842 478.568C837.092 479.564 836.711 481.082 836.699 483.121V483.807C836.699 485.869 837.068 487.41 837.807 488.43C838.557 489.438 839.635 489.941 841.041 489.941ZM856.281 476.055C857.676 474.438 859.439 473.629 861.572 473.629C865.627 473.629 867.684 475.943 867.742 480.572V493H863.471V480.73C863.471 479.418 863.184 478.492 862.609 477.953C862.047 477.402 861.215 477.127 860.113 477.127C858.402 477.127 857.125 477.889 856.281 479.412V493H852.01V466H856.281V476.055Z" fill="white"/>
<path fill-rule="evenodd" clip-rule="evenodd" d="M617 581C617 578.239 619.239 576 622 576H900C902.761 576 905 578.239 905 581V652C905 654.761 902.761 657 900 657H622C619.239 657 617 654.761 617 652V581Z" fill="#525252"/>
<path d="M684.297 599.406H688.727V617.354C688.727 619.803 687.959 621.748 686.424 623.189C684.9 624.631 682.885 625.352 680.377 625.352C677.705 625.352 675.643 624.678 674.189 623.33C672.736 621.982 672.01 620.107 672.01 617.705H676.439C676.439 619.064 676.773 620.09 677.441 620.781C678.121 621.461 679.1 621.801 680.377 621.801C681.572 621.801 682.521 621.408 683.225 620.623C683.939 619.826 684.297 618.73 684.297 617.336V599.406ZM692.611 615.314C692.611 613.451 692.98 611.775 693.719 610.287C694.457 608.787 695.494 607.639 696.83 606.842C698.166 606.033 699.701 605.629 701.436 605.629C704.002 605.629 706.082 606.455 707.676 608.107C709.281 609.76 710.148 611.951 710.277 614.682L710.295 615.684C710.295 617.559 709.932 619.234 709.205 620.711C708.49 622.188 707.459 623.33 706.111 624.139C704.775 624.947 703.229 625.352 701.471 625.352C698.787 625.352 696.637 624.461 695.02 622.68C693.414 620.887 692.611 618.502 692.611 615.525V615.314ZM696.883 615.684C696.883 617.641 697.287 619.176 698.096 620.289C698.904 621.391 700.029 621.941 701.471 621.941C702.912 621.941 704.031 621.379 704.828 620.254C705.637 619.129 706.041 617.482 706.041 615.314C706.041 613.393 705.625 611.869 704.793 610.744C703.973 609.619 702.854 609.057 701.436 609.057C700.041 609.057 698.934 609.613 698.113 610.727C697.293 611.828 696.883 613.48 696.883 615.684ZM718.451 625H714.18V605.98H718.451V625ZM713.916 601.041C713.916 600.385 714.121 599.84 714.531 599.406C714.953 598.973 715.551 598.756 716.324 598.756C717.098 598.756 717.695 598.973 718.117 599.406C718.539 599.84 718.75 600.385 718.75 601.041C718.75 601.686 718.539 602.225 718.117 602.658C717.695 603.08 717.098 603.291 716.324 603.291C715.551 603.291 714.953 603.08 714.531 602.658C714.121 602.225 713.916 601.686 713.916 601.041ZM727.082 605.98L727.205 608.178C728.611 606.479 730.457 605.629 732.742 605.629C736.703 605.629 738.719 607.896 738.789 612.432V625H734.518V612.678C734.518 611.471 734.254 610.58 733.727 610.006C733.211 609.42 732.361 609.127 731.178 609.127C729.455 609.127 728.172 609.906 727.328 611.465V625H723.057V605.98H727.082ZM758.301 599.406L765.684 619.023L773.049 599.406H778.797V625H774.367V616.562L774.807 605.277L767.248 625H764.066L756.525 605.295L756.965 616.562V625H752.535V599.406H758.301ZM795.021 625C794.834 624.637 794.67 624.045 794.529 623.225C793.17 624.643 791.506 625.352 789.537 625.352C787.627 625.352 786.068 624.807 784.861 623.717C783.654 622.627 783.051 621.279 783.051 619.674C783.051 617.646 783.801 616.094 785.301 615.016C786.812 613.926 788.969 613.381 791.77 613.381H794.389V612.133C794.389 611.148 794.113 610.363 793.562 609.777C793.012 609.18 792.174 608.881 791.049 608.881C790.076 608.881 789.279 609.127 788.658 609.619C788.037 610.1 787.727 610.715 787.727 611.465H783.455C783.455 610.422 783.801 609.449 784.492 608.547C785.184 607.633 786.121 606.918 787.305 606.402C788.5 605.887 789.83 605.629 791.295 605.629C793.521 605.629 795.297 606.191 796.621 607.316C797.945 608.43 798.625 610 798.66 612.027V620.605C798.66 622.316 798.9 623.682 799.381 624.701V625H795.021ZM790.328 621.924C791.172 621.924 791.963 621.719 792.701 621.309C793.451 620.898 794.014 620.348 794.389 619.656V616.07H792.086C790.504 616.07 789.314 616.346 788.518 616.896C787.721 617.447 787.322 618.227 787.322 619.234C787.322 620.055 787.592 620.711 788.131 621.203C788.682 621.684 789.414 621.924 790.328 621.924ZM808.486 601.357V605.98H811.844V609.145H808.486V619.762C808.486 620.488 808.627 621.016 808.908 621.344C809.201 621.66 809.717 621.818 810.455 621.818C810.947 621.818 811.445 621.76 811.949 621.643V624.947C810.977 625.217 810.039 625.352 809.137 625.352C805.855 625.352 804.215 623.541 804.215 619.92V609.145H801.086V605.98H804.215V601.357H808.486ZM822.936 621.941C824.002 621.941 824.887 621.631 825.59 621.01C826.293 620.389 826.668 619.621 826.715 618.707H830.74C830.693 619.891 830.324 620.998 829.633 622.029C828.941 623.049 828.004 623.857 826.82 624.455C825.637 625.053 824.359 625.352 822.988 625.352C820.328 625.352 818.219 624.49 816.66 622.768C815.102 621.045 814.322 618.666 814.322 615.631V615.191C814.322 612.297 815.096 609.982 816.643 608.248C818.189 606.502 820.299 605.629 822.971 605.629C825.232 605.629 827.072 606.291 828.49 607.615C829.92 608.928 830.67 610.656 830.74 612.801H826.715C826.668 611.711 826.293 610.814 825.59 610.111C824.898 609.408 824.014 609.057 822.936 609.057C821.553 609.057 820.486 609.561 819.736 610.568C818.986 611.564 818.605 613.082 818.594 615.121V615.807C818.594 617.869 818.963 619.41 819.701 620.43C820.451 621.438 821.529 621.941 822.936 621.941ZM838.176 608.055C839.57 606.438 841.334 605.629 843.467 605.629C847.521 605.629 849.578 607.943 849.637 612.572V625H845.365V612.73C845.365 611.418 845.078 610.492 844.504 609.953C843.941 609.402 843.109 609.127 842.008 609.127C840.297 609.127 839.02 609.889 838.176 611.412V625H833.904V598H838.176V608.055Z" fill="white"/>
<g filter="url(#filter1_d)">
<path d="M649.979 365.408C649.979 364.283 649.58 363.416 648.783 362.807C647.998 362.197 646.574 361.582 644.512 360.961C642.449 360.34 640.809 359.648 639.59 358.887C637.258 357.422 636.092 355.512 636.092 353.156C636.092 351.094 636.93 349.395 638.605 348.059C640.293 346.723 642.479 346.055 645.162 346.055C646.943 346.055 648.531 346.383 649.926 347.039C651.32 347.695 652.416 348.633 653.213 349.852C654.01 351.059 654.408 352.4 654.408 353.877H649.979C649.979 352.541 649.557 351.498 648.713 350.748C647.881 349.986 646.686 349.605 645.127 349.605C643.674 349.605 642.543 349.916 641.734 350.537C640.938 351.158 640.539 352.025 640.539 353.139C640.539 354.076 640.973 354.861 641.84 355.494C642.707 356.115 644.137 356.725 646.129 357.322C648.121 357.908 649.721 358.582 650.928 359.344C652.135 360.094 653.02 360.961 653.582 361.945C654.145 362.918 654.426 364.061 654.426 365.373C654.426 367.506 653.605 369.205 651.965 370.471C650.336 371.725 648.121 372.352 645.32 372.352C643.469 372.352 641.764 372.012 640.205 371.332C638.658 370.641 637.451 369.691 636.584 368.484C635.729 367.277 635.301 365.871 635.301 364.266H639.748C639.748 365.719 640.229 366.844 641.189 367.641C642.15 368.438 643.527 368.836 645.32 368.836C646.867 368.836 648.027 368.525 648.801 367.904C649.586 367.271 649.979 366.439 649.979 365.408ZM663.268 348.357V352.98H666.625V356.145H663.268V366.762C663.268 367.488 663.408 368.016 663.689 368.344C663.982 368.66 664.498 368.818 665.236 368.818C665.729 368.818 666.227 368.76 666.73 368.643V371.947C665.758 372.217 664.82 372.352 663.918 372.352C660.637 372.352 658.996 370.541 658.996 366.92V356.145H655.867V352.98H658.996V348.357H663.268ZM681.268 372C681.08 371.637 680.916 371.045 680.775 370.225C679.416 371.643 677.752 372.352 675.783 372.352C673.873 372.352 672.314 371.807 671.107 370.717C669.9 369.627 669.297 368.279 669.297 366.674C669.297 364.646 670.047 363.094 671.547 362.016C673.059 360.926 675.215 360.381 678.016 360.381H680.635V359.133C680.635 358.148 680.359 357.363 679.809 356.777C679.258 356.18 678.42 355.881 677.295 355.881C676.322 355.881 675.525 356.127 674.904 356.619C674.283 357.1 673.973 357.715 673.973 358.465H669.701C669.701 357.422 670.047 356.449 670.738 355.547C671.43 354.633 672.367 353.918 673.551 353.402C674.746 352.887 676.076 352.629 677.541 352.629C679.768 352.629 681.543 353.191 682.867 354.316C684.191 355.43 684.871 357 684.906 359.027V367.605C684.906 369.316 685.146 370.682 685.627 371.701V372H681.268ZM676.574 368.924C677.418 368.924 678.209 368.719 678.947 368.309C679.697 367.898 680.26 367.348 680.635 366.656V363.07H678.332C676.75 363.07 675.561 363.346 674.764 363.896C673.967 364.447 673.568 365.227 673.568 366.234C673.568 367.055 673.838 367.711 674.377 368.203C674.928 368.684 675.66 368.924 676.574 368.924ZM699.338 356.883C698.775 356.789 698.195 356.742 697.598 356.742C695.641 356.742 694.322 357.492 693.643 358.992V372H689.371V352.98H693.449L693.555 355.107C694.586 353.455 696.016 352.629 697.844 352.629C698.453 352.629 698.957 352.711 699.355 352.875L699.338 356.883ZM708.268 348.357V352.98H711.625V356.145H708.268V366.762C708.268 367.488 708.408 368.016 708.689 368.344C708.982 368.66 709.498 368.818 710.236 368.818C710.729 368.818 711.227 368.76 711.73 368.643V371.947C710.758 372.217 709.82 372.352 708.918 372.352C705.637 372.352 703.996 370.541 703.996 366.92V356.145H700.867V352.98H703.996V348.357H708.268ZM728.729 362.49V372H724.281V346.406H734.072C736.932 346.406 739.199 347.15 740.875 348.639C742.562 350.127 743.406 352.096 743.406 354.545C743.406 357.053 742.58 359.004 740.928 360.398C739.287 361.793 736.984 362.49 734.02 362.49H728.729ZM728.729 358.922H734.072C735.654 358.922 736.861 358.553 737.693 357.814C738.525 357.064 738.941 355.986 738.941 354.58C738.941 353.197 738.52 352.096 737.676 351.275C736.832 350.443 735.672 350.016 734.195 349.992H728.729V358.922ZM751.439 372H747.168V345H751.439V372ZM767.471 372C767.283 371.637 767.119 371.045 766.979 370.225C765.619 371.643 763.955 372.352 761.986 372.352C760.076 372.352 758.518 371.807 757.311 370.717C756.104 369.627 755.5 368.279 755.5 366.674C755.5 364.646 756.25 363.094 757.75 362.016C759.262 360.926 761.418 360.381 764.219 360.381H766.838V359.133C766.838 358.148 766.562 357.363 766.012 356.777C765.461 356.18 764.623 355.881 763.498 355.881C762.525 355.881 761.729 356.127 761.107 356.619C760.486 357.1 760.176 357.715 760.176 358.465H755.904C755.904 357.422 756.25 356.449 756.941 355.547C757.633 354.633 758.57 353.918 759.754 353.402C760.949 352.887 762.279 352.629 763.744 352.629C765.971 352.629 767.746 353.191 769.07 354.316C770.395 355.43 771.074 357 771.109 359.027V367.605C771.109 369.316 771.35 370.682 771.83 371.701V372H767.471ZM762.777 368.924C763.621 368.924 764.412 368.719 765.15 368.309C765.9 367.898 766.463 367.348 766.838 366.656V363.07H764.535C762.953 363.07 761.764 363.346 760.967 363.896C760.17 364.447 759.771 365.227 759.771 366.234C759.771 367.055 760.041 367.711 760.58 368.203C761.131 368.684 761.863 368.924 762.777 368.924ZM781.955 365.883L785.822 352.98H790.375L782.816 374.883C781.656 378.082 779.688 379.682 776.91 379.682C776.289 379.682 775.604 379.576 774.854 379.365V376.061L775.662 376.113C776.74 376.113 777.549 375.914 778.088 375.516C778.639 375.129 779.072 374.473 779.389 373.547L780.004 371.912L773.324 352.98H777.93L781.955 365.883ZM797.389 372H793.117V352.98H797.389V372ZM792.854 348.041C792.854 347.385 793.059 346.84 793.469 346.406C793.891 345.973 794.488 345.756 795.262 345.756C796.035 345.756 796.633 345.973 797.055 346.406C797.477 346.84 797.688 347.385 797.688 348.041C797.688 348.686 797.477 349.225 797.055 349.658C796.633 350.08 796.035 350.291 795.262 350.291C794.488 350.291 793.891 350.08 793.469 349.658C793.059 349.225 792.854 348.686 792.854 348.041ZM806.02 352.98L806.143 355.178C807.549 353.479 809.395 352.629 811.68 352.629C815.641 352.629 817.656 354.896 817.727 359.432V372H813.455V359.678C813.455 358.471 813.191 357.58 812.664 357.006C812.148 356.42 811.299 356.127 810.115 356.127C808.393 356.127 807.109 356.906 806.266 358.465V372H801.994V352.98H806.02ZM821.348 362.35C821.348 359.396 822.039 357.041 823.422 355.283C824.816 353.514 826.662 352.629 828.959 352.629C831.127 352.629 832.832 353.385 834.074 354.896L834.268 352.98H838.117V371.42C838.117 373.916 837.338 375.885 835.779 377.326C834.232 378.768 832.141 379.488 829.504 379.488C828.109 379.488 826.744 379.195 825.408 378.609C824.084 378.035 823.076 377.279 822.385 376.342L824.406 373.775C825.719 375.334 827.336 376.113 829.258 376.113C830.676 376.113 831.795 375.727 832.615 374.953C833.436 374.191 833.846 373.066 833.846 371.578V370.295C832.615 371.666 830.975 372.352 828.924 372.352C826.697 372.352 824.875 371.467 823.457 369.697C822.051 367.928 821.348 365.479 821.348 362.35ZM825.602 362.719C825.602 364.629 825.988 366.135 826.762 367.236C827.547 368.326 828.631 368.871 830.014 368.871C831.736 368.871 833.014 368.133 833.846 366.656V358.289C833.037 356.848 831.771 356.127 830.049 356.127C828.643 356.127 827.547 356.684 826.762 357.797C825.988 358.91 825.602 360.551 825.602 362.719ZM847.047 364.459H843.373L842.969 346.406H847.469L847.047 364.459ZM842.846 369.979C842.846 369.311 843.062 368.76 843.496 368.326C843.93 367.881 844.521 367.658 845.271 367.658C846.021 367.658 846.613 367.881 847.047 368.326C847.48 368.76 847.697 369.311 847.697 369.979C847.697 370.623 847.486 371.162 847.064 371.596C846.643 372.029 846.045 372.246 845.271 372.246C844.498 372.246 843.9 372.029 843.479 371.596C843.057 371.162 842.846 370.623 842.846 369.979Z" fill="black"/>
</g>
<g filter="url(#filter2_d)">
<rect x="351" y="315" width="782" height="394" rx="4" fill="white"/>
<rect x="351.5" y="315.5" width="781" height="393" rx="3.5" stroke="#D4D4D4"/>
</g>
<g filter="url(#filter3_d)">
<path d="M684.012 386.672L687.949 367.406H692.361L686.455 393H682.201L677.332 374.314L672.357 393H668.086L662.18 367.406H666.592L670.564 386.637L675.451 367.406H679.178L684.012 386.672ZM703.014 393.352C700.307 393.352 698.109 392.502 696.422 390.803C694.746 389.092 693.908 386.818 693.908 383.982V383.455C693.908 381.557 694.271 379.863 694.998 378.375C695.736 376.875 696.768 375.709 698.092 374.877C699.416 374.045 700.893 373.629 702.521 373.629C705.111 373.629 707.109 374.455 708.516 376.107C709.934 377.76 710.643 380.098 710.643 383.121V384.844H698.215C698.344 386.414 698.865 387.656 699.779 388.57C700.705 389.484 701.865 389.941 703.26 389.941C705.217 389.941 706.811 389.15 708.041 387.568L710.344 389.766C709.582 390.902 708.562 391.787 707.285 392.42C706.02 393.041 704.596 393.352 703.014 393.352ZM702.504 377.057C701.332 377.057 700.383 377.467 699.656 378.287C698.941 379.107 698.484 380.25 698.285 381.715H706.424V381.398C706.33 379.969 705.949 378.891 705.281 378.164C704.613 377.426 703.688 377.057 702.504 377.057ZM718.518 393H714.246V366H718.518V393ZM730.998 389.941C732.064 389.941 732.949 389.631 733.652 389.01C734.355 388.389 734.73 387.621 734.777 386.707H738.803C738.756 387.891 738.387 388.998 737.695 390.029C737.004 391.049 736.066 391.857 734.883 392.455C733.699 393.053 732.422 393.352 731.051 393.352C728.391 393.352 726.281 392.49 724.723 390.768C723.164 389.045 722.385 386.666 722.385 383.631V383.191C722.385 380.297 723.158 377.982 724.705 376.248C726.252 374.502 728.361 373.629 731.033 373.629C733.295 373.629 735.135 374.291 736.553 375.615C737.982 376.928 738.732 378.656 738.803 380.801H734.777C734.73 379.711 734.355 378.814 733.652 378.111C732.961 377.408 732.076 377.057 730.998 377.057C729.615 377.057 728.549 377.561 727.799 378.568C727.049 379.564 726.668 381.082 726.656 383.121V383.807C726.656 385.869 727.025 387.41 727.764 388.43C728.514 389.438 729.592 389.941 730.998 389.941ZM741.229 383.314C741.229 381.451 741.598 379.775 742.336 378.287C743.074 376.787 744.111 375.639 745.447 374.842C746.783 374.033 748.318 373.629 750.053 373.629C752.619 373.629 754.699 374.455 756.293 376.107C757.898 377.76 758.766 379.951 758.895 382.682L758.912 383.684C758.912 385.559 758.549 387.234 757.822 388.711C757.107 390.188 756.076 391.33 754.729 392.139C753.393 392.947 751.846 393.352 750.088 393.352C747.404 393.352 745.254 392.461 743.637 390.68C742.031 388.887 741.229 386.502 741.229 383.525V383.314ZM745.5 383.684C745.5 385.641 745.904 387.176 746.713 388.289C747.521 389.391 748.646 389.941 750.088 389.941C751.529 389.941 752.648 389.379 753.445 388.254C754.254 387.129 754.658 385.482 754.658 383.314C754.658 381.393 754.242 379.869 753.41 378.744C752.59 377.619 751.471 377.057 750.053 377.057C748.658 377.057 747.551 377.613 746.73 378.727C745.91 379.828 745.5 381.48 745.5 383.684ZM766.541 373.98L766.664 375.967C768 374.408 769.828 373.629 772.148 373.629C774.691 373.629 776.432 374.602 777.369 376.547C778.752 374.602 780.697 373.629 783.205 373.629C785.303 373.629 786.861 374.209 787.881 375.369C788.912 376.529 789.439 378.24 789.463 380.502V393H785.191V380.625C785.191 379.418 784.928 378.533 784.4 377.971C783.873 377.408 783 377.127 781.781 377.127C780.809 377.127 780.012 377.391 779.391 377.918C778.781 378.434 778.354 379.113 778.107 379.957L778.125 393H773.854V380.484C773.795 378.246 772.652 377.127 770.426 377.127C768.715 377.127 767.502 377.824 766.787 379.219V393H762.516V373.98H766.541ZM802.225 393.352C799.518 393.352 797.32 392.502 795.633 390.803C793.957 389.092 793.119 386.818 793.119 383.982V383.455C793.119 381.557 793.482 379.863 794.209 378.375C794.947 376.875 795.979 375.709 797.303 374.877C798.627 374.045 800.104 373.629 801.732 373.629C804.322 373.629 806.32 374.455 807.727 376.107C809.145 377.76 809.854 380.098 809.854 383.121V384.844H797.426C797.555 386.414 798.076 387.656 798.99 388.57C799.916 389.484 801.076 389.941 802.471 389.941C804.428 389.941 806.021 389.15 807.252 387.568L809.555 389.766C808.793 390.902 807.773 391.787 806.496 392.42C805.23 393.041 803.807 393.352 802.225 393.352ZM801.715 377.057C800.543 377.057 799.594 377.467 798.867 378.287C798.152 379.107 797.695 380.25 797.496 381.715H805.635V381.398C805.541 379.969 805.16 378.891 804.492 378.164C803.824 377.426 802.898 377.057 801.715 377.057ZM817.711 385.459H814.037L813.633 367.406H818.133L817.711 385.459ZM813.51 390.979C813.51 390.311 813.727 389.76 814.16 389.326C814.594 388.881 815.186 388.658 815.936 388.658C816.686 388.658 817.277 388.881 817.711 389.326C818.145 389.76 818.361 390.311 818.361 390.979C818.361 391.623 818.15 392.162 817.729 392.596C817.307 393.029 816.709 393.246 815.936 393.246C815.162 393.246 814.564 393.029 814.143 392.596C813.721 392.162 813.51 391.623 813.51 390.979Z" fill="black"/>
</g>
<path fill-rule="evenodd" clip-rule="evenodd" d="M509 600C509 597.239 511.239 595 514 595H720C722.761 595 725 597.239 725 600V648C725 650.761 722.761 653 720 653H514C511.239 653 509 650.761 509 648V600Z" fill="#3241C9"/>
<path d="M595.203 610.406H599.633V628.354C599.633 630.803 598.865 632.748 597.33 634.189C595.807 635.631 593.791 636.352 591.283 636.352C588.611 636.352 586.549 635.678 585.096 634.33C583.643 632.982 582.916 631.107 582.916 628.705H587.346C587.346 630.064 587.68 631.09 588.348 631.781C589.027 632.461 590.006 632.801 591.283 632.801C592.479 632.801 593.428 632.408 594.131 631.623C594.846 630.826 595.203 629.73 595.203 628.336V610.406ZM603.518 626.314C603.518 624.451 603.887 622.775 604.625 621.287C605.363 619.787 606.4 618.639 607.736 617.842C609.072 617.033 610.607 616.629 612.342 616.629C614.908 616.629 616.988 617.455 618.582 619.107C620.188 620.76 621.055 622.951 621.184 625.682L621.201 626.684C621.201 628.559 620.838 630.234 620.111 631.711C619.396 633.188 618.365 634.33 617.018 635.139C615.682 635.947 614.135 636.352 612.377 636.352C609.693 636.352 607.543 635.461 605.926 633.68C604.32 631.887 603.518 629.502 603.518 626.525V626.314ZM607.789 626.684C607.789 628.641 608.193 630.176 609.002 631.289C609.811 632.391 610.936 632.941 612.377 632.941C613.818 632.941 614.938 632.379 615.734 631.254C616.543 630.129 616.947 628.482 616.947 626.314C616.947 624.393 616.531 622.869 615.699 621.744C614.879 620.619 613.76 620.057 612.342 620.057C610.947 620.057 609.84 620.613 609.02 621.727C608.199 622.828 607.789 624.48 607.789 626.684ZM629.357 636H625.086V616.98H629.357V636ZM624.822 612.041C624.822 611.385 625.027 610.84 625.438 610.406C625.859 609.973 626.457 609.756 627.23 609.756C628.004 609.756 628.602 609.973 629.023 610.406C629.445 610.84 629.656 611.385 629.656 612.041C629.656 612.686 629.445 613.225 629.023 613.658C628.602 614.08 628.004 614.291 627.23 614.291C626.457 614.291 625.859 614.08 625.438 613.658C625.027 613.225 624.822 612.686 624.822 612.041ZM637.988 616.98L638.111 619.178C639.518 617.479 641.363 616.629 643.648 616.629C647.609 616.629 649.625 618.896 649.695 623.432V636H645.424V623.678C645.424 622.471 645.16 621.58 644.633 621.006C644.117 620.42 643.268 620.127 642.084 620.127C640.361 620.127 639.078 620.906 638.234 622.465V636H633.963V616.98H637.988Z" fill="white"/>
<path fill-rule="evenodd" clip-rule="evenodd" d="M782 600C782 597.239 784.239 595 787 595H993C995.761 595 998 597.239 998 600V648C998 650.761 995.761 653 993 653H787C784.239 653 782 650.761 782 648V600Z" fill="#CD3939"/>
<path d="M856.918 627.668C856.66 630.398 855.652 632.531 853.895 634.066C852.137 635.59 849.799 636.352 846.881 636.352C844.842 636.352 843.043 635.871 841.484 634.91C839.938 633.938 838.742 632.561 837.898 630.779C837.055 628.998 836.615 626.93 836.58 624.574V622.184C836.58 619.77 837.008 617.643 837.863 615.803C838.719 613.963 839.943 612.545 841.537 611.549C843.143 610.553 844.994 610.055 847.092 610.055C849.916 610.055 852.189 610.822 853.912 612.357C855.635 613.893 856.637 616.061 856.918 618.861H852.488C852.277 617.021 851.738 615.697 850.871 614.889C850.016 614.068 848.756 613.658 847.092 613.658C845.158 613.658 843.67 614.367 842.627 615.785C841.596 617.191 841.068 619.26 841.045 621.99V624.258C841.045 627.023 841.537 629.133 842.521 630.586C843.518 632.039 844.971 632.766 846.881 632.766C848.627 632.766 849.939 632.373 850.818 631.588C851.697 630.803 852.254 629.496 852.488 627.668H856.918ZM871.859 636C871.672 635.637 871.508 635.045 871.367 634.225C870.008 635.643 868.344 636.352 866.375 636.352C864.465 636.352 862.906 635.807 861.699 634.717C860.492 633.627 859.889 632.279 859.889 630.674C859.889 628.646 860.639 627.094 862.139 626.016C863.65 624.926 865.807 624.381 868.607 624.381H871.227V623.133C871.227 622.148 870.951 621.363 870.4 620.777C869.85 620.18 869.012 619.881 867.887 619.881C866.914 619.881 866.117 620.127 865.496 620.619C864.875 621.1 864.564 621.715 864.564 622.465H860.293C860.293 621.422 860.639 620.449 861.33 619.547C862.021 618.633 862.959 617.918 864.143 617.402C865.338 616.887 866.668 616.629 868.133 616.629C870.359 616.629 872.135 617.191 873.459 618.316C874.783 619.43 875.463 621 875.498 623.027V631.605C875.498 633.316 875.738 634.682 876.219 635.701V636H871.859ZM867.166 632.924C868.01 632.924 868.801 632.719 869.539 632.309C870.289 631.898 870.852 631.348 871.227 630.656V627.07H868.924C867.342 627.07 866.152 627.346 865.355 627.896C864.559 628.447 864.16 629.227 864.16 630.234C864.16 631.055 864.43 631.711 864.969 632.203C865.52 632.684 866.252 632.924 867.166 632.924ZM883.936 616.98L884.059 619.178C885.465 617.479 887.311 616.629 889.596 616.629C893.557 616.629 895.572 618.896 895.643 623.432V636H891.371V623.678C891.371 622.471 891.107 621.58 890.58 621.006C890.064 620.42 889.215 620.127 888.031 620.127C886.309 620.127 885.025 620.906 884.182 622.465V636H879.91V616.98H883.936ZM907.824 632.941C908.891 632.941 909.775 632.631 910.479 632.01C911.182 631.389 911.557 630.621 911.604 629.707H915.629C915.582 630.891 915.213 631.998 914.521 633.029C913.83 634.049 912.893 634.857 911.709 635.455C910.525 636.053 909.248 636.352 907.877 636.352C905.217 636.352 903.107 635.49 901.549 633.768C899.99 632.045 899.211 629.666 899.211 626.631V626.191C899.211 623.297 899.984 620.982 901.531 619.248C903.078 617.502 905.188 616.629 907.859 616.629C910.121 616.629 911.961 617.291 913.379 618.615C914.809 619.928 915.559 621.656 915.629 623.801H911.604C911.557 622.711 911.182 621.814 910.479 621.111C909.787 620.408 908.902 620.057 907.824 620.057C906.441 620.057 905.375 620.561 904.625 621.568C903.875 622.564 903.494 624.082 903.482 626.121V626.807C903.482 628.869 903.852 630.41 904.59 631.43C905.34 632.438 906.418 632.941 907.824 632.941ZM927.23 636.352C924.523 636.352 922.326 635.502 920.639 633.803C918.963 632.092 918.125 629.818 918.125 626.982V626.455C918.125 624.557 918.488 622.863 919.215 621.375C919.953 619.875 920.984 618.709 922.309 617.877C923.633 617.045 925.109 616.629 926.738 616.629C929.328 616.629 931.326 617.455 932.732 619.107C934.15 620.76 934.859 623.098 934.859 626.121V627.844H922.432C922.561 629.414 923.082 630.656 923.996 631.57C924.922 632.484 926.082 632.941 927.477 632.941C929.434 632.941 931.027 632.15 932.258 630.568L934.561 632.766C933.799 633.902 932.779 634.787 931.502 635.42C930.236 636.041 928.812 636.352 927.23 636.352ZM926.721 620.057C925.549 620.057 924.6 620.467 923.873 621.287C923.158 622.107 922.701 623.25 922.502 624.715H930.641V624.398C930.547 622.969 930.166 621.891 929.498 621.164C928.83 620.426 927.904 620.057 926.721 620.057ZM942.734 636H938.463V609H942.734V636Z" fill="white"/>
<rect x="478" y="425" width="565" height="58" rx="5" fill="white" stroke="#D4D4D4" stroke-width="2"/>
<path d="M537.883 453.17H526.791V462.24H539.676V465H523.416V439.406H539.5V442.184H526.791V450.41H537.883V453.17ZM546.443 445.98L546.549 448.371C548.002 446.543 549.9 445.629 552.244 445.629C556.264 445.629 558.291 447.896 558.326 452.432V465H555.074V452.414C555.062 451.043 554.746 450.029 554.125 449.373C553.516 448.717 552.561 448.389 551.26 448.389C550.205 448.389 549.279 448.67 548.482 449.232C547.686 449.795 547.064 450.533 546.619 451.447V465H543.367V445.98H546.443ZM567.643 441.375V445.98H571.193V448.494H567.643V460.289C567.643 461.051 567.801 461.625 568.117 462.012C568.434 462.387 568.973 462.574 569.734 462.574C570.109 462.574 570.625 462.504 571.281 462.363V465C570.426 465.234 569.594 465.352 568.785 465.352C567.332 465.352 566.236 464.912 565.498 464.033C564.76 463.154 564.391 461.906 564.391 460.289V448.494H560.928V445.98H564.391V441.375H567.643ZM582.9 465.352C580.322 465.352 578.225 464.508 576.607 462.82C574.99 461.121 574.182 458.854 574.182 456.018V455.42C574.182 453.533 574.539 451.852 575.254 450.375C575.98 448.887 576.988 447.727 578.277 446.895C579.578 446.051 580.984 445.629 582.496 445.629C584.969 445.629 586.891 446.443 588.262 448.072C589.633 449.701 590.318 452.033 590.318 455.068V456.422H577.434C577.48 458.297 578.025 459.814 579.068 460.975C580.123 462.123 581.459 462.697 583.076 462.697C584.225 462.697 585.197 462.463 585.994 461.994C586.791 461.525 587.488 460.904 588.086 460.131L590.072 461.678C588.479 464.127 586.088 465.352 582.9 465.352ZM582.496 448.301C581.184 448.301 580.082 448.781 579.191 449.742C578.301 450.691 577.75 452.027 577.539 453.75H587.066V453.504C586.973 451.852 586.527 450.574 585.73 449.672C584.934 448.758 583.855 448.301 582.496 448.301ZM603.291 448.898C602.799 448.816 602.266 448.775 601.691 448.775C599.559 448.775 598.111 449.684 597.35 451.5V465H594.098V445.98H597.262L597.314 448.178C598.381 446.479 599.893 445.629 601.85 445.629C602.482 445.629 602.963 445.711 603.291 445.875V448.898ZM626.969 463.119C625.703 464.607 623.846 465.352 621.396 465.352C619.369 465.352 617.822 464.766 616.756 463.594C615.701 462.41 615.168 460.664 615.156 458.355V445.98H618.408V458.268C618.408 461.15 619.58 462.592 621.924 462.592C624.408 462.592 626.061 461.666 626.881 459.814V445.98H630.133V465H627.039L626.969 463.119ZM646.164 459.955C646.164 459.076 645.83 458.396 645.162 457.916C644.506 457.424 643.352 457.002 641.699 456.65C640.059 456.299 638.752 455.877 637.779 455.385C636.818 454.893 636.104 454.307 635.635 453.627C635.178 452.947 634.949 452.139 634.949 451.201C634.949 449.643 635.605 448.324 636.918 447.246C638.242 446.168 639.93 445.629 641.98 445.629C644.137 445.629 645.883 446.186 647.219 447.299C648.566 448.412 649.24 449.836 649.24 451.57H645.971C645.971 450.68 645.59 449.912 644.828 449.268C644.078 448.623 643.129 448.301 641.98 448.301C640.797 448.301 639.871 448.559 639.203 449.074C638.535 449.59 638.201 450.264 638.201 451.096C638.201 451.881 638.512 452.473 639.133 452.871C639.754 453.27 640.873 453.65 642.49 454.014C644.119 454.377 645.438 454.811 646.445 455.314C647.453 455.818 648.197 456.428 648.678 457.143C649.17 457.846 649.416 458.707 649.416 459.727C649.416 461.426 648.736 462.791 647.377 463.822C646.018 464.842 644.254 465.352 642.086 465.352C640.562 465.352 639.215 465.082 638.043 464.543C636.871 464.004 635.951 463.254 635.283 462.293C634.627 461.32 634.299 460.271 634.299 459.146H637.551C637.609 460.236 638.043 461.104 638.852 461.748C639.672 462.381 640.75 462.697 642.086 462.697C643.316 462.697 644.301 462.451 645.039 461.959C645.789 461.455 646.164 460.787 646.164 459.955ZM661.545 465.352C658.967 465.352 656.869 464.508 655.252 462.82C653.635 461.121 652.826 458.854 652.826 456.018V455.42C652.826 453.533 653.184 451.852 653.898 450.375C654.625 448.887 655.633 447.727 656.922 446.895C658.223 446.051 659.629 445.629 661.141 445.629C663.613 445.629 665.535 446.443 666.906 448.072C668.277 449.701 668.963 452.033 668.963 455.068V456.422H656.078C656.125 458.297 656.67 459.814 657.713 460.975C658.768 462.123 660.104 462.697 661.721 462.697C662.869 462.697 663.842 462.463 664.639 461.994C665.436 461.525 666.133 460.904 666.73 460.131L668.717 461.678C667.123 464.127 664.732 465.352 661.545 465.352ZM661.141 448.301C659.828 448.301 658.727 448.781 657.836 449.742C656.945 450.691 656.395 452.027 656.184 453.75H665.711V453.504C665.617 451.852 665.172 450.574 664.375 449.672C663.578 448.758 662.5 448.301 661.141 448.301ZM681.936 448.898C681.443 448.816 680.91 448.775 680.336 448.775C678.203 448.775 676.756 449.684 675.994 451.5V465H672.742V445.98H675.906L675.959 448.178C677.025 446.479 678.537 445.629 680.494 445.629C681.127 445.629 681.607 445.711 681.936 445.875V448.898ZM688.018 445.98L688.123 448.371C689.576 446.543 691.475 445.629 693.818 445.629C697.838 445.629 699.865 447.896 699.9 452.432V465H696.648V452.414C696.637 451.043 696.32 450.029 695.699 449.373C695.09 448.717 694.135 448.389 692.834 448.389C691.779 448.389 690.854 448.67 690.057 449.232C689.26 449.795 688.639 450.533 688.193 451.447V465H684.941V445.98H688.018ZM716.547 465C716.359 464.625 716.207 463.957 716.09 462.996C714.578 464.566 712.773 465.352 710.676 465.352C708.801 465.352 707.26 464.824 706.053 463.77C704.857 462.703 704.26 461.355 704.26 459.727C704.26 457.746 705.01 456.211 706.51 455.121C708.021 454.02 710.143 453.469 712.873 453.469H716.037V451.975C716.037 450.838 715.697 449.936 715.018 449.268C714.338 448.588 713.336 448.248 712.012 448.248C710.852 448.248 709.879 448.541 709.094 449.127C708.309 449.713 707.916 450.422 707.916 451.254H704.646C704.646 450.305 704.98 449.391 705.648 448.512C706.328 447.621 707.242 446.918 708.391 446.402C709.551 445.887 710.822 445.629 712.205 445.629C714.396 445.629 716.113 446.18 717.355 447.281C718.598 448.371 719.242 449.877 719.289 451.799V460.553C719.289 462.299 719.512 463.688 719.957 464.719V465H716.547ZM711.15 462.521C712.17 462.521 713.137 462.258 714.051 461.73C714.965 461.203 715.627 460.518 716.037 459.674V455.771H713.488C709.504 455.771 707.512 456.938 707.512 459.27C707.512 460.289 707.852 461.086 708.531 461.66C709.211 462.234 710.084 462.521 711.15 462.521ZM727.445 445.98L727.533 448.09C728.928 446.449 730.809 445.629 733.176 445.629C735.836 445.629 737.646 446.648 738.607 448.688C739.24 447.773 740.061 447.035 741.068 446.473C742.088 445.91 743.289 445.629 744.672 445.629C748.844 445.629 750.965 447.838 751.035 452.256V465H747.783V452.449C747.783 451.09 747.473 450.076 746.852 449.408C746.23 448.729 745.188 448.389 743.723 448.389C742.516 448.389 741.514 448.752 740.717 449.479C739.92 450.193 739.457 451.16 739.328 452.379V465H736.059V452.537C736.059 449.771 734.705 448.389 731.998 448.389C729.865 448.389 728.406 449.297 727.621 451.113V465H724.369V445.98H727.445ZM763.85 465.352C761.271 465.352 759.174 464.508 757.557 462.82C755.939 461.121 755.131 458.854 755.131 456.018V455.42C755.131 453.533 755.488 451.852 756.203 450.375C756.93 448.887 757.938 447.727 759.227 446.895C760.527 446.051 761.934 445.629 763.445 445.629C765.918 445.629 767.84 446.443 769.211 448.072C770.582 449.701 771.268 452.033 771.268 455.068V456.422H758.383C758.43 458.297 758.975 459.814 760.018 460.975C761.072 462.123 762.408 462.697 764.025 462.697C765.174 462.697 766.146 462.463 766.943 461.994C767.74 461.525 768.438 460.904 769.035 460.131L771.021 461.678C769.428 464.127 767.037 465.352 763.85 465.352ZM763.445 448.301C762.133 448.301 761.031 448.781 760.141 449.742C759.25 450.691 758.699 452.027 758.488 453.75H768.016V453.504C767.922 451.852 767.477 450.574 766.68 449.672C765.883 448.758 764.805 448.301 763.445 448.301ZM775.117 463.295C775.117 462.732 775.281 462.264 775.609 461.889C775.949 461.514 776.453 461.326 777.121 461.326C777.789 461.326 778.293 461.514 778.633 461.889C778.984 462.264 779.16 462.732 779.16 463.295C779.16 463.834 778.984 464.285 778.633 464.648C778.293 465.012 777.789 465.193 777.121 465.193C776.453 465.193 775.949 465.012 775.609 464.648C775.281 464.285 775.117 463.834 775.117 463.295ZM784.609 463.295C784.609 462.732 784.773 462.264 785.102 461.889C785.441 461.514 785.945 461.326 786.613 461.326C787.281 461.326 787.785 461.514 788.125 461.889C788.477 462.264 788.652 462.732 788.652 463.295C788.652 463.834 788.477 464.285 788.125 464.648C787.785 465.012 787.281 465.193 786.613 465.193C785.945 465.193 785.441 465.012 785.102 464.648C784.773 464.285 784.609 463.834 784.609 463.295ZM794.102 463.295C794.102 462.732 794.266 462.264 794.594 461.889C794.934 461.514 795.438 461.326 796.105 461.326C796.773 461.326 797.277 461.514 797.617 461.889C797.969 462.264 798.145 462.732 798.145 463.295C798.145 463.834 797.969 464.285 797.617 464.648C797.277 465.012 796.773 465.193 796.105 465.193C795.438 465.193 794.934 465.012 794.594 464.648C794.266 464.285 794.102 463.834 794.102 463.295ZM803.594 463.295C803.594 462.732 803.758 462.264 804.086 461.889C804.426 461.514 804.93 461.326 805.598 461.326C806.266 461.326 806.77 461.514 807.109 461.889C807.461 462.264 807.637 462.732 807.637 463.295C807.637 463.834 807.461 464.285 807.109 464.648C806.77 465.012 806.266 465.193 805.598 465.193C804.93 465.193 804.426 465.012 804.086 464.648C803.758 464.285 803.594 463.834 803.594 463.295Z" fill="#959595"/>
<rect x="481" y="509" width="565" height="58" rx="5" fill="white" stroke="#D4D4D4" stroke-width="2"/>
<path d="M538.545 537.17H527.453V546.24H540.338V549H524.078V523.406H540.162V526.184H527.453V534.41H538.545V537.17ZM547.105 529.98L547.211 532.371C548.664 530.543 550.562 529.629 552.906 529.629C556.926 529.629 558.953 531.896 558.988 536.432V549H555.736V536.414C555.725 535.043 555.408 534.029 554.787 533.373C554.178 532.717 553.223 532.389 551.922 532.389C550.867 532.389 549.941 532.67 549.145 533.232C548.348 533.795 547.727 534.533 547.281 535.447V549H544.029V529.98H547.105ZM568.305 525.375V529.98H571.855V532.494H568.305V544.289C568.305 545.051 568.463 545.625 568.779 546.012C569.096 546.387 569.635 546.574 570.396 546.574C570.771 546.574 571.287 546.504 571.943 546.363V549C571.088 549.234 570.256 549.352 569.447 549.352C567.994 549.352 566.898 548.912 566.16 548.033C565.422 547.154 565.053 545.906 565.053 544.289V532.494H561.59V529.98H565.053V525.375H568.305ZM583.562 549.352C580.984 549.352 578.887 548.508 577.27 546.82C575.652 545.121 574.844 542.854 574.844 540.018V539.42C574.844 537.533 575.201 535.852 575.916 534.375C576.643 532.887 577.65 531.727 578.939 530.895C580.24 530.051 581.646 529.629 583.158 529.629C585.631 529.629 587.553 530.443 588.924 532.072C590.295 533.701 590.98 536.033 590.98 539.068V540.422H578.096C578.143 542.297 578.688 543.814 579.73 544.975C580.785 546.123 582.121 546.697 583.738 546.697C584.887 546.697 585.859 546.463 586.656 545.994C587.453 545.525 588.15 544.904 588.748 544.131L590.734 545.678C589.141 548.127 586.75 549.352 583.562 549.352ZM583.158 532.301C581.846 532.301 580.744 532.781 579.854 533.742C578.963 534.691 578.412 536.027 578.201 537.75H587.729V537.504C587.635 535.852 587.189 534.574 586.393 533.672C585.596 532.758 584.518 532.301 583.158 532.301ZM603.953 532.898C603.461 532.816 602.928 532.775 602.354 532.775C600.221 532.775 598.773 533.684 598.012 535.5V549H594.76V529.98H597.924L597.977 532.178C599.043 530.479 600.555 529.629 602.512 529.629C603.145 529.629 603.625 529.711 603.953 529.875V532.898ZM626.963 543.955C626.963 543.076 626.629 542.396 625.961 541.916C625.305 541.424 624.15 541.002 622.498 540.65C620.857 540.299 619.551 539.877 618.578 539.385C617.617 538.893 616.902 538.307 616.434 537.627C615.977 536.947 615.748 536.139 615.748 535.201C615.748 533.643 616.404 532.324 617.717 531.246C619.041 530.168 620.729 529.629 622.779 529.629C624.936 529.629 626.682 530.186 628.018 531.299C629.365 532.412 630.039 533.836 630.039 535.57H626.77C626.77 534.68 626.389 533.912 625.627 533.268C624.877 532.623 623.928 532.301 622.779 532.301C621.596 532.301 620.67 532.559 620.002 533.074C619.334 533.59 619 534.264 619 535.096C619 535.881 619.311 536.473 619.932 536.871C620.553 537.27 621.672 537.65 623.289 538.014C624.918 538.377 626.236 538.811 627.244 539.314C628.252 539.818 628.996 540.428 629.477 541.143C629.969 541.846 630.215 542.707 630.215 543.727C630.215 545.426 629.535 546.791 628.176 547.822C626.816 548.842 625.053 549.352 622.885 549.352C621.361 549.352 620.014 549.082 618.842 548.543C617.67 548.004 616.75 547.254 616.082 546.293C615.426 545.32 615.098 544.271 615.098 543.146H618.35C618.408 544.236 618.842 545.104 619.65 545.748C620.471 546.381 621.549 546.697 622.885 546.697C624.115 546.697 625.1 546.451 625.838 545.959C626.588 545.455 626.963 544.787 626.963 543.955ZM642.344 549.352C639.766 549.352 637.668 548.508 636.051 546.82C634.434 545.121 633.625 542.854 633.625 540.018V539.42C633.625 537.533 633.982 535.852 634.697 534.375C635.424 532.887 636.432 531.727 637.721 530.895C639.021 530.051 640.428 529.629 641.939 529.629C644.412 529.629 646.334 530.443 647.705 532.072C649.076 533.701 649.762 536.033 649.762 539.068V540.422H636.877C636.924 542.297 637.469 543.814 638.512 544.975C639.566 546.123 640.902 546.697 642.52 546.697C643.668 546.697 644.641 546.463 645.438 545.994C646.234 545.525 646.932 544.904 647.529 544.131L649.516 545.678C647.922 548.127 645.531 549.352 642.344 549.352ZM641.939 532.301C640.627 532.301 639.525 532.781 638.635 533.742C637.744 534.691 637.193 536.027 636.982 537.75H646.51V537.504C646.416 535.852 645.971 534.574 645.174 533.672C644.377 532.758 643.299 532.301 641.939 532.301ZM664.615 543.955C664.615 543.076 664.281 542.396 663.613 541.916C662.957 541.424 661.803 541.002 660.15 540.65C658.51 540.299 657.203 539.877 656.23 539.385C655.27 538.893 654.555 538.307 654.086 537.627C653.629 536.947 653.4 536.139 653.4 535.201C653.4 533.643 654.057 532.324 655.369 531.246C656.693 530.168 658.381 529.629 660.432 529.629C662.588 529.629 664.334 530.186 665.67 531.299C667.018 532.412 667.691 533.836 667.691 535.57H664.422C664.422 534.68 664.041 533.912 663.279 533.268C662.529 532.623 661.58 532.301 660.432 532.301C659.248 532.301 658.322 532.559 657.654 533.074C656.986 533.59 656.652 534.264 656.652 535.096C656.652 535.881 656.963 536.473 657.584 536.871C658.205 537.27 659.324 537.65 660.941 538.014C662.57 538.377 663.889 538.811 664.896 539.314C665.904 539.818 666.648 540.428 667.129 541.143C667.621 541.846 667.867 542.707 667.867 543.727C667.867 545.426 667.188 546.791 665.828 547.822C664.469 548.842 662.705 549.352 660.537 549.352C659.014 549.352 657.666 549.082 656.494 548.543C655.322 548.004 654.402 547.254 653.734 546.293C653.078 545.32 652.75 544.271 652.75 543.146H656.002C656.061 544.236 656.494 545.104 657.303 545.748C658.123 546.381 659.201 546.697 660.537 546.697C661.768 546.697 662.752 546.451 663.49 545.959C664.24 545.455 664.615 544.787 664.615 543.955ZM683.178 543.955C683.178 543.076 682.844 542.396 682.176 541.916C681.52 541.424 680.365 541.002 678.713 540.65C677.072 540.299 675.766 539.877 674.793 539.385C673.832 538.893 673.117 538.307 672.648 537.627C672.191 536.947 671.963 536.139 671.963 535.201C671.963 533.643 672.619 532.324 673.932 531.246C675.256 530.168 676.943 529.629 678.994 529.629C681.15 529.629 682.896 530.186 684.232 531.299C685.58 532.412 686.254 533.836 686.254 535.57H682.984C682.984 534.68 682.604 533.912 681.842 533.268C681.092 532.623 680.143 532.301 678.994 532.301C677.811 532.301 676.885 532.559 676.217 533.074C675.549 533.59 675.215 534.264 675.215 535.096C675.215 535.881 675.525 536.473 676.146 536.871C676.768 537.27 677.887 537.65 679.504 538.014C681.133 538.377 682.451 538.811 683.459 539.314C684.467 539.818 685.211 540.428 685.691 541.143C686.184 541.846 686.43 542.707 686.43 543.727C686.43 545.426 685.75 546.791 684.391 547.822C683.031 548.842 681.268 549.352 679.1 549.352C677.576 549.352 676.229 549.082 675.057 548.543C673.885 548.004 672.965 547.254 672.297 546.293C671.641 545.32 671.312 544.271 671.312 543.146H674.564C674.623 544.236 675.057 545.104 675.865 545.748C676.686 546.381 677.764 546.697 679.1 546.697C680.33 546.697 681.314 546.451 682.053 545.959C682.803 545.455 683.178 544.787 683.178 543.955ZM694.199 549H690.947V529.98H694.199V549ZM690.684 524.936C690.684 524.408 690.842 523.963 691.158 523.6C691.486 523.236 691.967 523.055 692.6 523.055C693.232 523.055 693.713 523.236 694.041 523.6C694.369 523.963 694.533 524.408 694.533 524.936C694.533 525.463 694.369 525.902 694.041 526.254C693.713 526.605 693.232 526.781 692.6 526.781C691.967 526.781 691.486 526.605 691.158 526.254C690.842 525.902 690.684 525.463 690.684 524.936ZM698.559 539.314C698.559 537.451 698.922 535.775 699.648 534.287C700.387 532.799 701.406 531.65 702.707 530.842C704.02 530.033 705.514 529.629 707.189 529.629C709.779 529.629 711.871 530.525 713.465 532.318C715.07 534.111 715.873 536.496 715.873 539.473V539.701C715.873 541.553 715.516 543.217 714.801 544.693C714.098 546.158 713.084 547.301 711.76 548.121C710.447 548.941 708.936 549.352 707.225 549.352C704.646 549.352 702.555 548.455 700.949 546.662C699.355 544.869 698.559 542.496 698.559 539.543V539.314ZM701.828 539.701C701.828 541.811 702.314 543.504 703.287 544.781C704.271 546.059 705.584 546.697 707.225 546.697C708.877 546.697 710.189 546.053 711.162 544.764C712.135 543.463 712.621 541.646 712.621 539.314C712.621 537.229 712.123 535.541 711.127 534.252C710.143 532.951 708.83 532.301 707.189 532.301C705.584 532.301 704.289 532.939 703.305 534.217C702.32 535.494 701.828 537.322 701.828 539.701ZM723.027 529.98L723.133 532.371C724.586 530.543 726.484 529.629 728.828 529.629C732.848 529.629 734.875 531.896 734.91 536.432V549H731.658V536.414C731.646 535.043 731.33 534.029 730.709 533.373C730.1 532.717 729.145 532.389 727.844 532.389C726.789 532.389 725.863 532.67 725.066 533.232C724.27 533.795 723.648 534.533 723.203 535.447V549H719.951V529.98H723.027ZM752.875 549H749.5V523.406H752.875V549ZM759.062 549V523.406H766.287C768.514 523.406 770.482 523.898 772.193 524.883C773.904 525.867 775.223 527.268 776.148 529.084C777.086 530.9 777.561 532.986 777.572 535.342V536.977C777.572 539.391 777.104 541.506 776.166 543.322C775.24 545.139 773.91 546.533 772.176 547.506C770.453 548.479 768.443 548.977 766.146 549H759.062ZM762.438 526.184V546.24H765.988C768.59 546.24 770.611 545.432 772.053 543.814C773.506 542.197 774.232 539.895 774.232 536.906V535.412C774.232 532.506 773.547 530.25 772.176 528.645C770.816 527.027 768.883 526.207 766.375 526.184H762.438ZM780.455 547.295C780.455 546.732 780.619 546.264 780.947 545.889C781.287 545.514 781.791 545.326 782.459 545.326C783.127 545.326 783.631 545.514 783.971 545.889C784.322 546.264 784.498 546.732 784.498 547.295C784.498 547.834 784.322 548.285 783.971 548.648C783.631 549.012 783.127 549.193 782.459 549.193C781.791 549.193 781.287 549.012 780.947 548.648C780.619 548.285 780.455 547.834 780.455 547.295ZM789.947 547.295C789.947 546.732 790.111 546.264 790.439 545.889C790.779 545.514 791.283 545.326 791.951 545.326C792.619 545.326 793.123 545.514 793.463 545.889C793.814 546.264 793.99 546.732 793.99 547.295C793.99 547.834 793.814 548.285 793.463 548.648C793.123 549.012 792.619 549.193 791.951 549.193C791.283 549.193 790.779 549.012 790.439 548.648C790.111 548.285 789.947 547.834 789.947 547.295ZM799.439 547.295C799.439 546.732 799.604 546.264 799.932 545.889C800.271 545.514 800.775 545.326 801.443 545.326C802.111 545.326 802.615 545.514 802.955 545.889C803.307 546.264 803.482 546.732 803.482 547.295C803.482 547.834 803.307 548.285 802.955 548.648C802.615 549.012 802.111 549.193 801.443 549.193C800.775 549.193 800.271 549.012 799.932 548.648C799.604 548.285 799.439 547.834 799.439 547.295ZM808.932 547.295C808.932 546.732 809.096 546.264 809.424 545.889C809.764 545.514 810.268 545.326 810.936 545.326C811.604 545.326 812.107 545.514 812.447 545.889C812.799 546.264 812.975 546.732 812.975 547.295C812.975 547.834 812.799 548.285 812.447 548.648C812.107 549.012 811.604 549.193 810.936 549.193C810.268 549.193 809.764 549.012 809.424 548.648C809.096 548.285 808.932 547.834 808.932 547.295Z" fill="#959595"/>
<path d="M46 96.6C46 94.6118 47.6926 93 49.7805 93C51.8684 93 53.561 94.6118 53.561 96.6C53.561 98.5882 51.8684 100.2 49.7805 100.2C47.6926 100.2 46 98.5882 46 96.6Z" fill="#959595"/>
<path d="M77 111H46.7561V106.68L50.4907 103.124C50.9336 102.702 51.6517 102.702 52.0946 103.124L55.8293 106.68L67.1248 95.9237C67.5678 95.5019 68.2859 95.5019 68.7288 95.9237L77 103.8V111Z" fill="#959595"/>
<defs>
<filter id="filter0_d" x="294" y="263" width="935" height="514" filterUnits="userSpaceOnUse" color-interpolation-filters="sRGB">
<feFlood flood-opacity="0" result="BackgroundImageFix"/>
<feColorMatrix in="SourceAlpha" type="matrix" values="0 0 0 0 0 0 0 0 0 0 0 0 0 0 0 0 0 0 127 0"/>
<feOffset dy="8"/>
<feGaussianBlur stdDeviation="7.5"/>
<feColorMatrix type="matrix" values="0 0 0 0 0 0 0 0 0 0 0 0 0 0 0 0 0 0 0.2 0"/>
<feBlend mode="normal" in2="BackgroundImageFix" result="effect1_dropShadow"/>
<feBlend mode="normal" in="SourceGraphic" in2="effect1_dropShadow" result="shape"/>
</filter>
<filter id="filter1_d" x="631.301" y="345" width="220.396" height="42.6816" filterUnits="userSpaceOnUse" color-interpolation-filters="sRGB">
<feFlood flood-opacity="0" result="BackgroundImageFix"/>
<feColorMatrix in="SourceAlpha" type="matrix" values="0 0 0 0 0 0 0 0 0 0 0 0 0 0 0 0 0 0 127 0"/>
<feOffset dy="4"/>
<feGaussianBlur stdDeviation="2"/>
<feColorMatrix type="matrix" values="0 0 0 0 0 0 0 0 0 0 0 0 0 0 0 0 0 0 0.25 0"/>
<feBlend mode="normal" in2="BackgroundImageFix" result="effect1_dropShadow"/>
<feBlend mode="normal" in="SourceGraphic" in2="effect1_dropShadow" result="shape"/>
</filter>
<filter id="filter2_d" x="336" y="308" width="812" height="424" filterUnits="userSpaceOnUse" color-interpolation-filters="sRGB">
<feFlood flood-opacity="0" result="BackgroundImageFix"/>
<feColorMatrix in="SourceAlpha" type="matrix" values="0 0 0 0 0 0 0 0 0 0 0 0 0 0 0 0 0 0 127 0"/>
<feOffset dy="8"/>
<feGaussianBlur stdDeviation="7.5"/>
<feColorMatrix type="matrix" values="0 0 0 0 0 0 0 0 0 0 0 0 0 0 0 0 0 0 0.2 0"/>
<feBlend mode="normal" in2="BackgroundImageFix" result="effect1_dropShadow"/>
<feBlend mode="normal" in="SourceGraphic" in2="effect1_dropShadow" result="shape"/>
</filter>
<filter id="filter3_d" x="658.18" y="366" width="164.182" height="35.3516" filterUnits="userSpaceOnUse" color-interpolation-filters="sRGB">
<feFlood flood-opacity="0" result="BackgroundImageFix"/>
<feColorMatrix in="SourceAlpha" type="matrix" values="0 0 0 0 0 0 0 0 0 0 0 0 0 0 0 0 0 0 127 0"/>
<feOffset dy="4"/>
<feGaussianBlur stdDeviation="2"/>
<feColorMatrix type="matrix" values="0 0 0 0 0 0 0 0 0 0 0 0 0 0 0 0 0 0 0.25 0"/>
<feBlend mode="normal" in2="BackgroundImageFix" result="effect1_dropShadow"/>
<feBlend mode="normal" in="SourceGraphic" in2="effect1_dropShadow" result="shape"/>
</filter>
</defs>
</svg>
