<svg width="1440" height="1024" viewBox="0 0 1440 1024" fill="none" xmlns="http://www.w3.org/2000/svg">
<rect width="1440" height="1024" fill="white"/>
<rect x="0.5" y="0.5" width="1439" height="1023" fill="white" stroke="#C4C4C4"/>
<rect width="1440" height="53" fill="#EDEDED"/>
<rect x="97" y="13" width="1330" height="27" fill="white"/>
<ellipse cx="26.8077" cy="26.7942" rx="7.88462" ry="7.88066" fill="#C4C4C4"/>
<ellipse cx="48.8846" cy="26.7942" rx="7.88462" ry="7.88066" fill="#C4C4C4"/>
<ellipse cx="70.9615" cy="26.7942" rx="7.88462" ry="7.88066" fill="#C4C4C4"/>
<path d="M109.222 24.499C109.782 23.8109 110.511 23.4668 111.409 23.4668C112.972 23.4668 113.761 24.3486 113.774 26.1123V31H112.51V26.1055C112.505 25.5723 112.382 25.1781 112.141 24.9229C111.904 24.6676 111.532 24.54 111.026 24.54C110.616 24.54 110.256 24.6494 109.946 24.8682C109.636 25.0869 109.395 25.374 109.222 25.7295V31H107.957V20.5H109.222V24.499ZM117.384 21.8125V23.6035H118.765V24.5811H117.384V29.168C117.384 29.4642 117.445 29.6875 117.568 29.8379C117.691 29.9837 117.901 30.0566 118.197 30.0566C118.343 30.0566 118.544 30.0293 118.799 29.9746V31C118.466 31.0911 118.143 31.1367 117.828 31.1367C117.263 31.1367 116.837 30.9658 116.55 30.624C116.263 30.2822 116.119 29.7969 116.119 29.168V24.5811H114.772V23.6035H116.119V21.8125H117.384ZM121.964 21.8125V23.6035H123.345V24.5811H121.964V29.168C121.964 29.4642 122.025 29.6875 122.148 29.8379C122.271 29.9837 122.481 30.0566 122.777 30.0566C122.923 30.0566 123.124 30.0293 123.379 29.9746V31C123.046 31.0911 122.723 31.1367 122.408 31.1367C121.843 31.1367 121.417 30.9658 121.13 30.624C120.843 30.2822 120.699 29.7969 120.699 29.168V24.5811H119.353V23.6035H120.699V21.8125H121.964ZM131.076 27.3838C131.076 28.5094 130.819 29.4163 130.304 30.1045C129.789 30.7926 129.091 31.1367 128.212 31.1367C127.314 31.1367 126.608 30.8519 126.093 30.2822V33.8438H124.828V23.6035H125.983L126.045 24.4238C126.56 23.7858 127.275 23.4668 128.191 23.4668C129.08 23.4668 129.782 23.8018 130.297 24.4717C130.816 25.1416 131.076 26.0736 131.076 27.2676V27.3838ZM129.812 27.2402C129.812 26.4062 129.634 25.7477 129.278 25.2646C128.923 24.7816 128.435 24.54 127.815 24.54C127.05 24.54 126.476 24.8796 126.093 25.5586V29.0928C126.471 29.7673 127.05 30.1045 127.829 30.1045C128.435 30.1045 128.916 29.8652 129.271 29.3867C129.632 28.9036 129.812 28.1882 129.812 27.2402ZM132.648 30.3369C132.648 30.1182 132.712 29.9359 132.84 29.79C132.972 29.6442 133.168 29.5713 133.428 29.5713C133.688 29.5713 133.883 29.6442 134.016 29.79C134.152 29.9359 134.221 30.1182 134.221 30.3369C134.221 30.5465 134.152 30.722 134.016 30.8633C133.883 31.0046 133.688 31.0752 133.428 31.0752C133.168 31.0752 132.972 31.0046 132.84 30.8633C132.712 30.722 132.648 30.5465 132.648 30.3369ZM132.655 24.3008C132.655 24.082 132.719 23.8997 132.847 23.7539C132.979 23.6081 133.175 23.5352 133.435 23.5352C133.694 23.5352 133.89 23.6081 134.022 23.7539C134.159 23.8997 134.228 24.082 134.228 24.3008C134.228 24.5104 134.159 24.6859 134.022 24.8271C133.89 24.9684 133.694 25.0391 133.435 25.0391C133.175 25.0391 132.979 24.9684 132.847 24.8271C132.719 24.6859 132.655 24.5104 132.655 24.3008ZM136.333 31.8545H135.246L139.402 21.0469H140.482L136.333 31.8545ZM140.571 31.8545H139.484L143.641 21.0469H144.721L140.571 31.8545ZM150.709 21.5732C150.144 21.4821 149.688 21.4365 149.342 21.4365C148.43 21.4365 147.975 21.915 147.975 22.8721V23.6035H149.554V24.5811H147.975V31H146.71V24.5811H145.541V23.6035H146.71V22.7969C146.715 22.0085 146.936 21.4046 147.373 20.9854C147.811 20.5661 148.433 20.3564 149.239 20.3564C149.7 20.3564 150.611 20.4954 151.974 20.7734V31H150.709V21.5732ZM156.465 29.1475L158.188 23.6035H159.541L156.567 32.1416C156.107 33.3721 155.376 33.9873 154.373 33.9873L154.134 33.9668L153.662 33.8779V32.8525L154.004 32.8799C154.432 32.8799 154.765 32.7933 155.002 32.6201C155.243 32.4469 155.442 32.1302 155.597 31.6699L155.877 30.918L153.238 23.6035H154.619L156.465 29.1475ZM166.938 27.3838C166.938 28.514 166.678 29.4232 166.158 30.1113C165.639 30.7949 164.941 31.1367 164.066 31.1367C163.132 31.1367 162.41 30.8063 161.899 30.1455L161.838 31H160.676V20.5H161.94V24.417C162.451 23.7835 163.155 23.4668 164.053 23.4668C164.951 23.4668 165.655 23.8063 166.165 24.4854C166.68 25.1644 166.938 26.0941 166.938 27.2744V27.3838ZM165.673 27.2402C165.673 26.3789 165.507 25.7135 165.174 25.2441C164.841 24.7747 164.363 24.54 163.738 24.54C162.904 24.54 162.305 24.9274 161.94 25.7021V28.9014C162.328 29.6761 162.932 30.0635 163.752 30.0635C164.358 30.0635 164.83 29.8288 165.167 29.3594C165.504 28.89 165.673 28.1836 165.673 27.2402ZM169.911 31H168.646V23.6035H169.911V31ZM168.544 21.6416C168.544 21.4365 168.605 21.2633 168.729 21.1221C168.856 20.9808 169.043 20.9102 169.289 20.9102C169.535 20.9102 169.722 20.9808 169.85 21.1221C169.977 21.2633 170.041 21.4365 170.041 21.6416C170.041 21.8467 169.977 22.0176 169.85 22.1543C169.722 22.291 169.535 22.3594 169.289 22.3594C169.043 22.3594 168.856 22.291 168.729 22.1543C168.605 22.0176 168.544 21.8467 168.544 21.6416ZM175.517 24.7383C175.325 24.7064 175.118 24.6904 174.895 24.6904C174.065 24.6904 173.502 25.0436 173.206 25.75V31H171.941V23.6035H173.172L173.192 24.458C173.607 23.7972 174.195 23.4668 174.956 23.4668C175.202 23.4668 175.389 23.4987 175.517 23.5625V24.7383ZM176.241 27.2402C176.241 26.1055 176.51 25.194 177.048 24.5059C177.586 23.8132 178.29 23.4668 179.16 23.4668C180.026 23.4668 180.712 23.763 181.218 24.3555V20.5H182.482V31H181.32L181.259 30.207C180.753 30.8268 180.049 31.1367 179.146 31.1367C178.29 31.1367 177.59 30.7858 177.048 30.084C176.51 29.3822 176.241 28.4661 176.241 27.3359V27.2402ZM177.506 27.3838C177.506 28.2223 177.679 28.8786 178.025 29.3525C178.372 29.8265 178.85 30.0635 179.461 30.0635C180.263 30.0635 180.849 29.7035 181.218 28.9834V25.5859C180.84 24.8887 180.258 24.54 179.475 24.54C178.855 24.54 178.372 24.7793 178.025 25.2578C177.679 25.7363 177.506 26.445 177.506 27.3838ZM189.072 21.5732C188.507 21.4821 188.051 21.4365 187.705 21.4365C186.794 21.4365 186.338 21.915 186.338 22.8721V23.6035H187.917V24.5811H186.338V31H185.073V24.5811H183.904V23.6035H185.073V22.7969C185.078 22.0085 185.299 21.4046 185.736 20.9854C186.174 20.5661 186.796 20.3564 187.603 20.3564C188.063 20.3564 188.974 20.4954 190.337 20.7734V31H189.072V21.5732ZM194.828 29.1475L196.551 23.6035H197.904L194.931 32.1416C194.47 33.3721 193.739 33.9873 192.736 33.9873L192.497 33.9668L192.025 33.8779V32.8525L192.367 32.8799C192.796 32.8799 193.128 32.7933 193.365 32.6201C193.607 32.4469 193.805 32.1302 193.96 31.6699L194.24 30.918L191.602 23.6035H192.982L194.828 29.1475ZM198.328 30.3369C198.328 30.1182 198.392 29.9359 198.52 29.79C198.652 29.6442 198.848 29.5713 199.107 29.5713C199.367 29.5713 199.563 29.6442 199.695 29.79C199.832 29.9359 199.9 30.1182 199.9 30.3369C199.9 30.5465 199.832 30.722 199.695 30.8633C199.563 31.0046 199.367 31.0752 199.107 31.0752C198.848 31.0752 198.652 31.0046 198.52 30.8633C198.392 30.722 198.328 30.5465 198.328 30.3369ZM204.959 30.1045C205.41 30.1045 205.804 29.9678 206.142 29.6943C206.479 29.4209 206.666 29.0791 206.702 28.6689H207.898C207.876 29.0928 207.73 29.4961 207.461 29.8789C207.192 30.2617 206.832 30.5671 206.381 30.7949C205.934 31.0228 205.46 31.1367 204.959 31.1367C203.952 31.1367 203.15 30.8018 202.553 30.1318C201.96 29.4574 201.664 28.5368 201.664 27.3701V27.1582C201.664 26.4382 201.796 25.7979 202.061 25.2373C202.325 24.6768 202.703 24.2415 203.195 23.9316C203.692 23.6217 204.278 23.4668 204.952 23.4668C205.782 23.4668 206.47 23.7152 207.017 24.2119C207.568 24.7087 207.862 25.3535 207.898 26.1465H206.702C206.666 25.668 206.483 25.276 206.155 24.9707C205.832 24.6608 205.431 24.5059 204.952 24.5059C204.31 24.5059 203.811 24.7383 203.455 25.2031C203.104 25.6634 202.929 26.3311 202.929 27.2061V27.4453C202.929 28.2975 203.104 28.9538 203.455 29.4141C203.806 29.8743 204.307 30.1045 204.959 30.1045ZM208.985 27.2334C208.985 26.5088 209.127 25.8571 209.409 25.2783C209.696 24.6995 210.093 24.2529 210.599 23.9385C211.109 23.624 211.69 23.4668 212.342 23.4668C213.349 23.4668 214.162 23.8154 214.782 24.5127C215.407 25.21 215.719 26.1374 215.719 27.2949V27.3838C215.719 28.1038 215.58 28.751 215.302 29.3252C215.028 29.8949 214.634 30.3392 214.119 30.6582C213.609 30.9772 213.021 31.1367 212.355 31.1367C211.353 31.1367 210.539 30.7881 209.915 30.0908C209.295 29.3936 208.985 28.4707 208.985 27.3223V27.2334ZM210.257 27.3838C210.257 28.2041 210.446 28.8626 210.824 29.3594C211.207 29.8561 211.717 30.1045 212.355 30.1045C212.998 30.1045 213.508 29.8538 213.887 29.3525C214.265 28.8467 214.454 28.1403 214.454 27.2334C214.454 26.4222 214.26 25.766 213.873 25.2646C213.49 24.7588 212.98 24.5059 212.342 24.5059C211.717 24.5059 211.214 24.7542 210.831 25.251C210.448 25.7477 210.257 26.4587 210.257 27.3838ZM218.494 23.6035L218.528 24.4238C219.071 23.7858 219.802 23.4668 220.723 23.4668C221.757 23.4668 222.461 23.8633 222.835 24.6562C223.081 24.3008 223.4 24.0137 223.792 23.7949C224.188 23.5762 224.656 23.4668 225.193 23.4668C226.816 23.4668 227.641 24.3258 227.668 26.0439V31H226.403V26.1191C226.403 25.5905 226.283 25.1963 226.041 24.9365C225.799 24.6722 225.394 24.54 224.824 24.54C224.355 24.54 223.965 24.6813 223.655 24.9639C223.345 25.2419 223.165 25.6178 223.115 26.0918V31H221.844V26.1533C221.844 25.0778 221.317 24.54 220.265 24.54C219.435 24.54 218.868 24.8932 218.562 25.5996V31H217.298V23.6035H218.494Z" fill="black"/>
<rect x="1.5" y="54.5" width="1437" height="99" rx="2.5" stroke="#C4C4C4" stroke-width="3"/>
<rect x="1.5" y="889.5" width="1437" height="99" rx="2.5" stroke="#C4C4C4" stroke-width="3"/>
<rect x="1.5" y="991.5" width="1437" height="31" rx="2.5" fill="black" stroke="black" stroke-width="3"/>
<path d="M1394.9 936.9L1392.29 939.476C1390.21 941.492 1388.9 943.2 1388.9 947.4H1383.1V946C1383.1 942.892 1384.41 940.092 1386.49 938.076L1390.09 934.548C1391.16 933.54 1391.8 932.14 1391.8 930.6C1391.8 927.492 1389.19 925 1386 925C1384.46 925 1382.99 925.59 1381.9 926.64C1380.81 927.69 1380.2 929.115 1380.2 930.6H1374.4C1374.4 927.63 1375.62 924.781 1377.8 922.68C1379.97 920.58 1382.92 919.4 1386 919.4C1389.08 919.4 1392.03 920.58 1394.2 922.68C1396.38 924.781 1397.6 927.63 1397.6 930.6C1397.6 933.064 1396.56 935.276 1394.9 936.9ZM1388.9 958.6H1383.1V953H1388.9V958.6ZM1386 911C1382.19 911 1378.42 911.724 1374.9 913.131C1371.38 914.539 1368.19 916.601 1365.49 919.201C1360.06 924.452 1357 931.574 1357 939C1357 946.426 1360.06 953.548 1365.49 958.799C1368.19 961.399 1371.38 963.461 1374.9 964.869C1378.42 966.276 1382.19 967 1386 967C1393.69 967 1401.07 964.05 1406.51 958.799C1411.94 953.548 1415 946.426 1415 939C1415 923.516 1401.95 911 1386 911Z" fill="#686B6F"/>
<path d="M57 114.6C57 112.612 58.6926 111 60.7805 111C62.8684 111 64.561 112.612 64.561 114.6C64.561 116.588 62.8684 118.2 60.7805 118.2C58.6926 118.2 57 116.588 57 114.6Z" fill="#959595"/>
<path d="M88 129H57.7561V124.68L61.4907 121.124C61.9336 120.702 62.6517 120.702 63.0946 121.124L66.8293 124.68L78.1248 113.924C78.5678 113.502 79.2859 113.502 79.7288 113.924L88 121.8V129Z" fill="#959595"/>
<path d="M115.76 113.493C113.348 112.8 111.59 111.95 110.486 110.944C109.393 109.929 108.846 108.679 108.846 107.194C108.846 105.515 109.515 104.128 110.853 103.034C112.2 101.931 113.948 101.379 116.097 101.379C117.562 101.379 118.865 101.662 120.008 102.229C121.16 102.795 122.049 103.576 122.674 104.572C123.309 105.568 123.626 106.657 123.626 107.839H120.799C120.799 106.55 120.389 105.539 119.568 104.807C118.748 104.064 117.591 103.693 116.097 103.693C114.71 103.693 113.626 104.001 112.845 104.616C112.073 105.222 111.688 106.066 111.688 107.15C111.688 108.02 112.054 108.757 112.786 109.362C113.528 109.958 114.783 110.505 116.551 111.003C118.328 111.501 119.715 112.053 120.711 112.658C121.717 113.254 122.459 113.952 122.938 114.753C123.426 115.554 123.67 116.496 123.67 117.58C123.67 119.309 122.996 120.695 121.648 121.74C120.301 122.775 118.499 123.293 116.243 123.293C114.778 123.293 113.411 123.015 112.142 122.458C110.872 121.892 109.891 121.12 109.197 120.144C108.514 119.167 108.172 118.059 108.172 116.818H110.999C110.999 118.107 111.473 119.128 112.42 119.88C113.377 120.622 114.651 120.993 116.243 120.993C117.728 120.993 118.865 120.69 119.656 120.085C120.447 119.479 120.843 118.654 120.843 117.609C120.843 116.564 120.477 115.759 119.744 115.192C119.012 114.616 117.684 114.05 115.76 113.493ZM129.412 107.15L129.485 108.908C130.647 107.541 132.215 106.857 134.188 106.857C136.404 106.857 137.913 107.707 138.714 109.406C139.241 108.645 139.925 108.029 140.765 107.561C141.614 107.092 142.615 106.857 143.768 106.857C147.244 106.857 149.012 108.698 149.07 112.38V123H146.36V112.541C146.36 111.408 146.102 110.563 145.584 110.007C145.066 109.44 144.197 109.157 142.977 109.157C141.971 109.157 141.136 109.46 140.472 110.065C139.808 110.661 139.422 111.467 139.314 112.482V123H136.59V112.614C136.59 110.31 135.462 109.157 133.206 109.157C131.429 109.157 130.213 109.914 129.559 111.428V123H126.849V107.15H129.412ZM162.957 123C162.801 122.688 162.674 122.131 162.576 121.33C161.316 122.639 159.812 123.293 158.064 123.293C156.502 123.293 155.218 122.854 154.212 121.975C153.216 121.086 152.718 119.963 152.718 118.605C152.718 116.955 153.343 115.676 154.593 114.768C155.853 113.85 157.62 113.391 159.896 113.391H162.532V112.146C162.532 111.198 162.249 110.446 161.683 109.89C161.116 109.323 160.281 109.04 159.178 109.04C158.211 109.04 157.4 109.284 156.746 109.772C156.092 110.261 155.765 110.852 155.765 111.545H153.04C153.04 110.754 153.318 109.992 153.875 109.26C154.441 108.518 155.203 107.932 156.16 107.502C157.127 107.072 158.187 106.857 159.339 106.857C161.165 106.857 162.596 107.316 163.631 108.234C164.666 109.143 165.203 110.397 165.242 111.999V119.294C165.242 120.749 165.428 121.906 165.799 122.766V123H162.957ZM158.46 120.935C159.31 120.935 160.115 120.715 160.877 120.275C161.639 119.836 162.19 119.265 162.532 118.562V115.31H160.408C157.088 115.31 155.428 116.281 155.428 118.225C155.428 119.074 155.711 119.738 156.277 120.217C156.844 120.695 157.571 120.935 158.46 120.935ZM177.151 109.582C176.741 109.514 176.297 109.479 175.818 109.479C174.041 109.479 172.835 110.236 172.2 111.75V123H169.49V107.15H172.127L172.171 108.981C173.06 107.565 174.319 106.857 175.95 106.857C176.478 106.857 176.878 106.926 177.151 107.062V109.582ZM184.065 103.312V107.15H187.024V109.245H184.065V119.074C184.065 119.709 184.197 120.188 184.461 120.51C184.725 120.822 185.174 120.979 185.809 120.979C186.121 120.979 186.551 120.92 187.098 120.803V123C186.385 123.195 185.691 123.293 185.018 123.293C183.807 123.293 182.894 122.927 182.278 122.194C181.663 121.462 181.355 120.422 181.355 119.074V109.245H178.47V107.15H181.355V103.312H184.065ZM198.069 123V101.672H205.042C207.356 101.672 209.095 102.15 210.257 103.107C211.429 104.064 212.015 105.48 212.015 107.355C212.015 108.352 211.731 109.235 211.165 110.007C210.599 110.769 209.827 111.359 208.851 111.779C210.003 112.102 210.911 112.717 211.575 113.625C212.249 114.523 212.586 115.598 212.586 116.848C212.586 118.762 211.966 120.266 210.726 121.359C209.485 122.453 207.732 123 205.467 123H198.069ZM200.882 113.024V120.7H205.525C206.834 120.7 207.864 120.363 208.616 119.689C209.378 119.006 209.759 118.068 209.759 116.877C209.759 114.309 208.362 113.024 205.569 113.024H200.882ZM200.882 110.769H205.13C206.36 110.769 207.342 110.461 208.074 109.846C208.816 109.23 209.188 108.396 209.188 107.341C209.188 106.169 208.846 105.319 208.162 104.792C207.479 104.255 206.438 103.986 205.042 103.986H200.882V110.769ZM219.28 123H216.57V107.15H219.28V123ZM216.351 102.946C216.351 102.507 216.482 102.136 216.746 101.833C217.02 101.53 217.42 101.379 217.947 101.379C218.475 101.379 218.875 101.53 219.148 101.833C219.422 102.136 219.559 102.507 219.559 102.946C219.559 103.386 219.422 103.752 219.148 104.045C218.875 104.338 218.475 104.484 217.947 104.484C217.42 104.484 217.02 104.338 216.746 104.045C216.482 103.752 216.351 103.386 216.351 102.946ZM231.292 109.582C230.882 109.514 230.438 109.479 229.959 109.479C228.182 109.479 226.976 110.236 226.341 111.75V123H223.631V107.15H226.268L226.312 108.981C227.2 107.565 228.46 106.857 230.091 106.857C230.618 106.857 231.019 106.926 231.292 107.062V109.582ZM232.845 114.943C232.845 112.512 233.421 110.559 234.573 109.084C235.726 107.6 237.234 106.857 239.1 106.857C240.955 106.857 242.425 107.492 243.509 108.762V100.5H246.219V123H243.729L243.597 121.301C242.513 122.629 241.004 123.293 239.07 123.293C237.234 123.293 235.735 122.541 234.573 121.037C233.421 119.533 232.845 117.57 232.845 115.148V114.943ZM235.555 115.251C235.555 117.048 235.926 118.454 236.668 119.47C237.41 120.485 238.436 120.993 239.744 120.993C241.463 120.993 242.718 120.222 243.509 118.679V111.398C242.698 109.904 241.453 109.157 239.773 109.157C238.445 109.157 237.41 109.67 236.668 110.695C235.926 111.721 235.555 113.239 235.555 115.251ZM259.666 118.796C259.666 118.063 259.388 117.497 258.831 117.097C258.284 116.687 257.322 116.335 255.945 116.042C254.578 115.749 253.489 115.397 252.679 114.987C251.878 114.577 251.282 114.089 250.892 113.522C250.511 112.956 250.32 112.282 250.32 111.501C250.32 110.202 250.867 109.104 251.961 108.205C253.064 107.307 254.471 106.857 256.18 106.857C257.977 106.857 259.432 107.321 260.545 108.249C261.668 109.177 262.229 110.363 262.229 111.809H259.505C259.505 111.066 259.188 110.427 258.553 109.89C257.928 109.353 257.137 109.084 256.18 109.084C255.193 109.084 254.422 109.299 253.865 109.729C253.309 110.158 253.03 110.72 253.03 111.413C253.03 112.067 253.289 112.561 253.807 112.893C254.324 113.225 255.257 113.542 256.604 113.845C257.962 114.147 259.061 114.509 259.9 114.929C260.74 115.349 261.36 115.856 261.761 116.452C262.171 117.038 262.376 117.756 262.376 118.605C262.376 120.021 261.81 121.159 260.677 122.019C259.544 122.868 258.074 123.293 256.268 123.293C254.998 123.293 253.875 123.068 252.898 122.619C251.922 122.17 251.155 121.545 250.599 120.744C250.052 119.934 249.778 119.06 249.778 118.122H252.488C252.537 119.03 252.898 119.753 253.572 120.29C254.256 120.817 255.154 121.081 256.268 121.081C257.293 121.081 258.113 120.876 258.729 120.466C259.354 120.046 259.666 119.489 259.666 118.796Z" fill="black"/>
<rect x="19.5" y="65.5" width="84" height="78" fill="#EAEAEA" stroke="#C4C4C4"/>
<path d="M19.7143 65.6639L42.5714 86.9076" stroke="#C4C4C4"/>
<path d="M80.4286 122.092L103.286 143.336" stroke="#C4C4C4"/>
<path d="M80.4286 86.9076L103.286 65.6639" stroke="#C4C4C4"/>
<path d="M19.7143 143.336L42.5714 122.092" stroke="#C4C4C4"/>
<rect x="0.5" y="155.5" width="1439" height="732" fill="#EAEAEA" stroke="#C4C4C4"/>
<path d="M12.102 161.16L399.329 358.269" stroke="#C4C4C4"/>
<path d="M1040.67 684.731L1427.9 881.84" stroke="#C4C4C4"/>
<path d="M1040.67 358.269L1427.9 161.16" stroke="#C4C4C4"/>
<path d="M12.102 881.84L399.329 684.731" stroke="#C4C4C4"/>
<path d="M23.2451 940.966L23.4912 942.653L23.8516 941.133L26.3828 932.203H27.8066L30.2764 941.133L30.6279 942.68L30.9004 940.957L32.8867 932.203H34.583L31.4805 945H29.9424L27.3057 935.675L27.1035 934.699L26.9014 935.675L24.168 945H22.6299L19.5361 932.203H21.2236L23.2451 940.966ZM39.874 945.176C38.585 945.176 37.5361 944.754 36.7275 943.91C35.9189 943.061 35.5146 941.927 35.5146 940.509V940.21C35.5146 939.267 35.6934 938.426 36.0508 937.688C36.4141 936.943 36.918 936.363 37.5625 935.947C38.2129 935.525 38.916 935.314 39.6719 935.314C40.9082 935.314 41.8691 935.722 42.5547 936.536C43.2402 937.351 43.583 938.517 43.583 940.034V940.711H37.1406C37.1641 941.648 37.4365 942.407 37.958 942.987C38.4854 943.562 39.1533 943.849 39.9619 943.849C40.5361 943.849 41.0225 943.731 41.4209 943.497C41.8193 943.263 42.168 942.952 42.4668 942.565L43.46 943.339C42.6631 944.563 41.4678 945.176 39.874 945.176ZM39.6719 936.65C39.0156 936.65 38.4648 936.891 38.0195 937.371C37.5742 937.846 37.2988 938.514 37.1934 939.375H41.957V939.252C41.9102 938.426 41.6875 937.787 41.2891 937.336C40.8906 936.879 40.3516 936.65 39.6719 936.65ZM53.5234 940.351C53.5234 941.804 53.1895 942.973 52.5215 943.857C51.8535 944.736 50.957 945.176 49.832 945.176C48.6309 945.176 47.7021 944.751 47.0459 943.901L46.9668 945H45.4727V931.5H47.0986V936.536C47.7549 935.722 48.6602 935.314 49.8145 935.314C50.9688 935.314 51.874 935.751 52.5303 936.624C53.1924 937.497 53.5234 938.692 53.5234 940.21V940.351ZM51.8975 940.166C51.8975 939.059 51.6836 938.203 51.2559 937.6C50.8281 936.996 50.2129 936.694 49.4102 936.694C48.3379 936.694 47.5674 937.192 47.0986 938.188V942.302C47.5967 943.298 48.373 943.796 49.4277 943.796C50.207 943.796 50.8135 943.494 51.2471 942.891C51.6807 942.287 51.8975 941.379 51.8975 940.166ZM67.3662 941.66H62.0049L60.8008 945H59.0605L63.9473 932.203H65.4238L70.3193 945H68.5879L67.3662 941.66ZM62.5146 940.271H66.8652L64.6855 934.286L62.5146 940.271ZM79.8203 940.351C79.8203 941.798 79.4893 942.964 78.8271 943.849C78.165 944.733 77.2686 945.176 76.1377 945.176C74.9834 945.176 74.0752 944.81 73.4131 944.077V948.656H71.7871V935.49H73.2725L73.3516 936.545C74.0137 935.725 74.9336 935.314 76.1113 935.314C77.2539 935.314 78.1562 935.745 78.8184 936.606C79.4863 937.468 79.8203 938.666 79.8203 940.201V940.351ZM78.1943 940.166C78.1943 939.094 77.9658 938.247 77.5088 937.626C77.0518 937.005 76.4248 936.694 75.6279 936.694C74.6436 936.694 73.9053 937.131 73.4131 938.004V942.548C73.8994 943.415 74.6436 943.849 75.6455 943.849C76.4248 943.849 77.043 943.541 77.5 942.926C77.9629 942.305 78.1943 941.385 78.1943 940.166ZM89.9277 940.351C89.9277 941.798 89.5967 942.964 88.9346 943.849C88.2725 944.733 87.376 945.176 86.2451 945.176C85.0908 945.176 84.1826 944.81 83.5205 944.077V948.656H81.8945V935.49H83.3799L83.459 936.545C84.1211 935.725 85.041 935.314 86.2188 935.314C87.3613 935.314 88.2637 935.745 88.9258 936.606C89.5938 937.468 89.9277 938.666 89.9277 940.201V940.351ZM88.3018 940.166C88.3018 939.094 88.0732 938.247 87.6162 937.626C87.1592 937.005 86.5322 936.694 85.7354 936.694C84.751 936.694 84.0127 937.131 83.5205 938.004V942.548C84.0068 943.415 84.751 943.849 85.7529 943.849C86.5322 943.849 87.1504 943.541 87.6074 942.926C88.0703 942.305 88.3018 941.385 88.3018 940.166ZM93.7686 945H92.1426V931.5H93.7686V945ZM98.1455 945H96.5195V935.49H98.1455V945ZM96.3877 932.968C96.3877 932.704 96.4668 932.481 96.625 932.3C96.7891 932.118 97.0293 932.027 97.3457 932.027C97.6621 932.027 97.9023 932.118 98.0664 932.3C98.2305 932.481 98.3125 932.704 98.3125 932.968C98.3125 933.231 98.2305 933.451 98.0664 933.627C97.9023 933.803 97.6621 933.891 97.3457 933.891C97.0293 933.891 96.7891 933.803 96.625 933.627C96.4668 933.451 96.3877 933.231 96.3877 932.968ZM104.57 943.849C105.15 943.849 105.657 943.673 106.091 943.321C106.524 942.97 106.765 942.53 106.812 942.003H108.35C108.32 942.548 108.133 943.066 107.787 943.559C107.441 944.051 106.979 944.443 106.398 944.736C105.824 945.029 105.215 945.176 104.57 945.176C103.275 945.176 102.244 944.745 101.477 943.884C100.715 943.017 100.334 941.833 100.334 940.333V940.061C100.334 939.135 100.504 938.312 100.844 937.591C101.184 936.87 101.67 936.311 102.303 935.912C102.941 935.514 103.694 935.314 104.562 935.314C105.628 935.314 106.513 935.634 107.216 936.272C107.925 936.911 108.303 937.74 108.35 938.76H106.812C106.765 938.145 106.53 937.641 106.108 937.248C105.692 936.85 105.177 936.65 104.562 936.65C103.735 936.65 103.094 936.949 102.637 937.547C102.186 938.139 101.96 938.997 101.96 940.122V940.43C101.96 941.525 102.186 942.369 102.637 942.961C103.088 943.553 103.732 943.849 104.57 943.849ZM116.049 945C115.955 944.812 115.879 944.479 115.82 943.998C115.064 944.783 114.162 945.176 113.113 945.176C112.176 945.176 111.405 944.912 110.802 944.385C110.204 943.852 109.905 943.178 109.905 942.363C109.905 941.373 110.28 940.605 111.03 940.061C111.786 939.51 112.847 939.234 114.212 939.234H115.794V938.487C115.794 937.919 115.624 937.468 115.284 937.134C114.944 936.794 114.443 936.624 113.781 936.624C113.201 936.624 112.715 936.771 112.322 937.063C111.93 937.356 111.733 937.711 111.733 938.127H110.099C110.099 937.652 110.266 937.195 110.6 936.756C110.939 936.311 111.396 935.959 111.971 935.701C112.551 935.443 113.187 935.314 113.878 935.314C114.974 935.314 115.832 935.59 116.453 936.141C117.074 936.686 117.396 937.438 117.42 938.399V942.776C117.42 943.649 117.531 944.344 117.754 944.859V945H116.049ZM113.351 943.761C113.86 943.761 114.344 943.629 114.801 943.365C115.258 943.102 115.589 942.759 115.794 942.337V940.386H114.52C112.527 940.386 111.531 940.969 111.531 942.135C111.531 942.645 111.701 943.043 112.041 943.33C112.381 943.617 112.817 943.761 113.351 943.761ZM122.175 933.188V935.49H123.95V936.747H122.175V942.645C122.175 943.025 122.254 943.312 122.412 943.506C122.57 943.693 122.84 943.787 123.221 943.787C123.408 943.787 123.666 943.752 123.994 943.682V945C123.566 945.117 123.15 945.176 122.746 945.176C122.02 945.176 121.472 944.956 121.103 944.517C120.733 944.077 120.549 943.453 120.549 942.645V936.747H118.817V935.49H120.549V933.188H122.175ZM127.624 945H125.998V935.49H127.624V945ZM125.866 932.968C125.866 932.704 125.945 932.481 126.104 932.3C126.268 932.118 126.508 932.027 126.824 932.027C127.141 932.027 127.381 932.118 127.545 932.3C127.709 932.481 127.791 932.704 127.791 932.968C127.791 933.231 127.709 933.451 127.545 933.627C127.381 933.803 127.141 933.891 126.824 933.891C126.508 933.891 126.268 933.803 126.104 933.627C125.945 933.451 125.866 933.231 125.866 932.968ZM129.804 940.157C129.804 939.226 129.985 938.388 130.349 937.644C130.718 936.899 131.228 936.325 131.878 935.921C132.534 935.517 133.281 935.314 134.119 935.314C135.414 935.314 136.46 935.763 137.257 936.659C138.06 937.556 138.461 938.748 138.461 940.236V940.351C138.461 941.276 138.282 942.108 137.925 942.847C137.573 943.579 137.066 944.15 136.404 944.561C135.748 944.971 134.992 945.176 134.137 945.176C132.848 945.176 131.802 944.728 130.999 943.831C130.202 942.935 129.804 941.748 129.804 940.271V940.157ZM131.438 940.351C131.438 941.405 131.682 942.252 132.168 942.891C132.66 943.529 133.316 943.849 134.137 943.849C134.963 943.849 135.619 943.526 136.105 942.882C136.592 942.231 136.835 941.323 136.835 940.157C136.835 939.114 136.586 938.271 136.088 937.626C135.596 936.976 134.939 936.65 134.119 936.65C133.316 936.65 132.669 936.97 132.177 937.608C131.685 938.247 131.438 939.161 131.438 940.351ZM142.038 935.49L142.091 936.686C142.817 935.771 143.767 935.314 144.938 935.314C146.948 935.314 147.962 936.448 147.979 938.716V945H146.354V938.707C146.348 938.021 146.189 937.515 145.879 937.187C145.574 936.858 145.097 936.694 144.446 936.694C143.919 936.694 143.456 936.835 143.058 937.116C142.659 937.397 142.349 937.767 142.126 938.224V945H140.5V935.49H142.038ZM155.969 942.478C155.969 942.038 155.802 941.698 155.468 941.458C155.14 941.212 154.562 941.001 153.736 940.825C152.916 940.649 152.263 940.438 151.776 940.192C151.296 939.946 150.938 939.653 150.704 939.313C150.476 938.974 150.361 938.569 150.361 938.101C150.361 937.321 150.689 936.662 151.346 936.123C152.008 935.584 152.852 935.314 153.877 935.314C154.955 935.314 155.828 935.593 156.496 936.149C157.17 936.706 157.507 937.418 157.507 938.285H155.872C155.872 937.84 155.682 937.456 155.301 937.134C154.926 936.812 154.451 936.65 153.877 936.65C153.285 936.65 152.822 936.779 152.488 937.037C152.154 937.295 151.987 937.632 151.987 938.048C151.987 938.44 152.143 938.736 152.453 938.936C152.764 939.135 153.323 939.325 154.132 939.507C154.946 939.688 155.605 939.905 156.109 940.157C156.613 940.409 156.985 940.714 157.226 941.071C157.472 941.423 157.595 941.854 157.595 942.363C157.595 943.213 157.255 943.896 156.575 944.411C155.896 944.921 155.014 945.176 153.93 945.176C153.168 945.176 152.494 945.041 151.908 944.771C151.322 944.502 150.862 944.127 150.528 943.646C150.2 943.16 150.036 942.636 150.036 942.073H151.662C151.691 942.618 151.908 943.052 152.312 943.374C152.723 943.69 153.262 943.849 153.93 943.849C154.545 943.849 155.037 943.726 155.406 943.479C155.781 943.228 155.969 942.894 155.969 942.478ZM164.433 945V932.203H168.045C169.158 932.203 170.143 932.449 170.998 932.941C171.854 933.434 172.513 934.134 172.976 935.042C173.444 935.95 173.682 936.993 173.688 938.171V938.988C173.688 940.195 173.453 941.253 172.984 942.161C172.521 943.069 171.856 943.767 170.989 944.253C170.128 944.739 169.123 944.988 167.975 945H164.433ZM166.12 933.592V943.62H167.896C169.196 943.62 170.207 943.216 170.928 942.407C171.654 941.599 172.018 940.447 172.018 938.953V938.206C172.018 936.753 171.675 935.625 170.989 934.822C170.31 934.014 169.343 933.604 168.089 933.592H166.12ZM179.937 945.176C178.647 945.176 177.599 944.754 176.79 943.91C175.981 943.061 175.577 941.927 175.577 940.509V940.21C175.577 939.267 175.756 938.426 176.113 937.688C176.477 936.943 176.98 936.363 177.625 935.947C178.275 935.525 178.979 935.314 179.734 935.314C180.971 935.314 181.932 935.722 182.617 936.536C183.303 937.351 183.646 938.517 183.646 940.034V940.711H177.203C177.227 941.648 177.499 942.407 178.021 942.987C178.548 943.562 179.216 943.849 180.024 943.849C180.599 943.849 181.085 943.731 181.483 943.497C181.882 943.263 182.23 942.952 182.529 942.565L183.522 943.339C182.726 944.563 181.53 945.176 179.937 945.176ZM179.734 936.65C179.078 936.65 178.527 936.891 178.082 937.371C177.637 937.846 177.361 938.514 177.256 939.375H182.02V939.252C181.973 938.426 181.75 937.787 181.352 937.336C180.953 936.879 180.414 936.65 179.734 936.65ZM188.55 942.794L190.905 935.49H192.566L189.156 945H187.917L184.472 935.49H186.133L188.55 942.794ZM197.954 945.176C196.665 945.176 195.616 944.754 194.808 943.91C193.999 943.061 193.595 941.927 193.595 940.509V940.21C193.595 939.267 193.773 938.426 194.131 937.688C194.494 936.943 194.998 936.363 195.643 935.947C196.293 935.525 196.996 935.314 197.752 935.314C198.988 935.314 199.949 935.722 200.635 936.536C201.32 937.351 201.663 938.517 201.663 940.034V940.711H195.221C195.244 941.648 195.517 942.407 196.038 942.987C196.565 943.562 197.233 943.849 198.042 943.849C198.616 943.849 199.103 943.731 199.501 943.497C199.899 943.263 200.248 942.952 200.547 942.565L201.54 943.339C200.743 944.563 199.548 945.176 197.954 945.176ZM197.752 936.65C197.096 936.65 196.545 936.891 196.1 937.371C195.654 937.846 195.379 938.514 195.273 939.375H200.037V939.252C199.99 938.426 199.768 937.787 199.369 937.336C198.971 936.879 198.432 936.65 197.752 936.65ZM205.319 945H203.693V931.5H205.319V945ZM207.499 940.157C207.499 939.226 207.681 938.388 208.044 937.644C208.413 936.899 208.923 936.325 209.573 935.921C210.229 935.517 210.977 935.314 211.814 935.314C213.109 935.314 214.155 935.763 214.952 936.659C215.755 937.556 216.156 938.748 216.156 940.236V940.351C216.156 941.276 215.978 942.108 215.62 942.847C215.269 943.579 214.762 944.15 214.1 944.561C213.443 944.971 212.688 945.176 211.832 945.176C210.543 945.176 209.497 944.728 208.694 943.831C207.897 942.935 207.499 941.748 207.499 940.271V940.157ZM209.134 940.351C209.134 941.405 209.377 942.252 209.863 942.891C210.355 943.529 211.012 943.849 211.832 943.849C212.658 943.849 213.314 943.526 213.801 942.882C214.287 942.231 214.53 941.323 214.53 940.157C214.53 939.114 214.281 938.271 213.783 937.626C213.291 936.976 212.635 936.65 211.814 936.65C211.012 936.65 210.364 936.97 209.872 937.608C209.38 938.247 209.134 939.161 209.134 940.351ZM226.229 940.351C226.229 941.798 225.897 942.964 225.235 943.849C224.573 944.733 223.677 945.176 222.546 945.176C221.392 945.176 220.483 944.81 219.821 944.077V948.656H218.195V935.49H219.681L219.76 936.545C220.422 935.725 221.342 935.314 222.52 935.314C223.662 935.314 224.564 935.745 225.227 936.606C225.895 937.468 226.229 938.666 226.229 940.201V940.351ZM224.603 940.166C224.603 939.094 224.374 938.247 223.917 937.626C223.46 937.005 222.833 936.694 222.036 936.694C221.052 936.694 220.313 937.131 219.821 938.004V942.548C220.308 943.415 221.052 943.849 222.054 943.849C222.833 943.849 223.451 943.541 223.908 942.926C224.371 942.305 224.603 941.385 224.603 940.166ZM229.832 935.49L229.876 936.545C230.573 935.725 231.514 935.314 232.697 935.314C234.027 935.314 234.933 935.824 235.413 936.844C235.729 936.387 236.14 936.018 236.644 935.736C237.153 935.455 237.754 935.314 238.445 935.314C240.531 935.314 241.592 936.419 241.627 938.628V945H240.001V938.725C240.001 938.045 239.846 937.538 239.535 937.204C239.225 936.864 238.703 936.694 237.971 936.694C237.367 936.694 236.866 936.876 236.468 937.239C236.069 937.597 235.838 938.08 235.773 938.689V945H234.139V938.769C234.139 937.386 233.462 936.694 232.108 936.694C231.042 936.694 230.312 937.148 229.92 938.057V945H228.294V935.49H229.832ZM248.034 945.176C246.745 945.176 245.696 944.754 244.888 943.91C244.079 943.061 243.675 941.927 243.675 940.509V940.21C243.675 939.267 243.854 938.426 244.211 937.688C244.574 936.943 245.078 936.363 245.723 935.947C246.373 935.525 247.076 935.314 247.832 935.314C249.068 935.314 250.029 935.722 250.715 936.536C251.4 937.351 251.743 938.517 251.743 940.034V940.711H245.301C245.324 941.648 245.597 942.407 246.118 942.987C246.646 943.562 247.313 943.849 248.122 943.849C248.696 943.849 249.183 943.731 249.581 943.497C249.979 943.263 250.328 942.952 250.627 942.565L251.62 943.339C250.823 944.563 249.628 945.176 248.034 945.176ZM247.832 936.65C247.176 936.65 246.625 936.891 246.18 937.371C245.734 937.846 245.459 938.514 245.354 939.375H250.117V939.252C250.07 938.426 249.848 937.787 249.449 937.336C249.051 936.879 248.512 936.65 247.832 936.65ZM255.171 935.49L255.224 936.686C255.95 935.771 256.899 935.314 258.071 935.314C260.081 935.314 261.095 936.448 261.112 938.716V945H259.486V938.707C259.48 938.021 259.322 937.515 259.012 937.187C258.707 936.858 258.229 936.694 257.579 936.694C257.052 936.694 256.589 936.835 256.19 937.116C255.792 937.397 255.481 937.767 255.259 938.224V945H253.633V935.49H255.171ZM265.771 933.188V935.49H267.546V936.747H265.771V942.645C265.771 943.025 265.85 943.312 266.008 943.506C266.166 943.693 266.436 943.787 266.816 943.787C267.004 943.787 267.262 943.752 267.59 943.682V945C267.162 945.117 266.746 945.176 266.342 945.176C265.615 945.176 265.067 944.956 264.698 944.517C264.329 944.077 264.145 943.453 264.145 942.645V936.747H262.413V935.49H264.145V933.188H265.771Z" fill="#959595"/>
<g filter="url(#filter0_d)">
<rect x="309" y="270" width="905" height="484" rx="4" fill="white"/>
<rect x="309.5" y="270.5" width="904" height="483" rx="3.5" stroke="#D4D4D4"/>
</g>
<path fill-rule="evenodd" clip-rule="evenodd" d="M616 449C616 446.239 618.239 444 621 444H901C903.761 444 906 446.239 906 449V520C906 522.761 903.761 525 901 525H621C618.239 525 616 522.761 616 520V449Z" fill="#3241C9"/>
<path d="M671.219 467.406H675.648V485.354C675.648 487.803 674.881 489.748 673.346 491.189C671.822 492.631 669.807 493.352 667.299 493.352C664.627 493.352 662.564 492.678 661.111 491.33C659.658 489.982 658.932 488.107 658.932 485.705H663.361C663.361 487.064 663.695 488.09 664.363 488.781C665.043 489.461 666.021 489.801 667.299 489.801C668.494 489.801 669.443 489.408 670.146 488.623C670.861 487.826 671.219 486.73 671.219 485.336V467.406ZM679.533 483.314C679.533 481.451 679.902 479.775 680.641 478.287C681.379 476.787 682.416 475.639 683.752 474.842C685.088 474.033 686.623 473.629 688.357 473.629C690.924 473.629 693.004 474.455 694.598 476.107C696.203 477.76 697.07 479.951 697.199 482.682L697.217 483.684C697.217 485.559 696.854 487.234 696.127 488.711C695.412 490.188 694.381 491.33 693.033 492.139C691.697 492.947 690.15 493.352 688.393 493.352C685.709 493.352 683.559 492.461 681.941 490.68C680.336 488.887 679.533 486.502 679.533 483.525V483.314ZM683.805 483.684C683.805 485.641 684.209 487.176 685.018 488.289C685.826 489.391 686.951 489.941 688.393 489.941C689.834 489.941 690.953 489.379 691.75 488.254C692.559 487.129 692.963 485.482 692.963 483.314C692.963 481.393 692.547 479.869 691.715 478.744C690.895 477.619 689.775 477.057 688.357 477.057C686.963 477.057 685.855 477.613 685.035 478.727C684.215 479.828 683.805 481.48 683.805 483.684ZM705.373 493H701.102V473.98H705.373V493ZM700.838 469.041C700.838 468.385 701.043 467.84 701.453 467.406C701.875 466.973 702.473 466.756 703.246 466.756C704.02 466.756 704.617 466.973 705.039 467.406C705.461 467.84 705.672 468.385 705.672 469.041C705.672 469.686 705.461 470.225 705.039 470.658C704.617 471.08 704.02 471.291 703.246 471.291C702.473 471.291 701.875 471.08 701.453 470.658C701.043 470.225 700.838 469.686 700.838 469.041ZM714.004 473.98L714.127 476.178C715.533 474.479 717.379 473.629 719.664 473.629C723.625 473.629 725.641 475.896 725.711 480.432V493H721.439V480.678C721.439 479.471 721.176 478.58 720.648 478.006C720.133 477.42 719.283 477.127 718.1 477.127C716.377 477.127 715.094 477.906 714.25 479.465V493H709.979V473.98H714.004ZM752.834 486.408C752.834 485.283 752.436 484.416 751.639 483.807C750.854 483.197 749.43 482.582 747.367 481.961C745.305 481.34 743.664 480.648 742.445 479.887C740.113 478.422 738.947 476.512 738.947 474.156C738.947 472.094 739.785 470.395 741.461 469.059C743.148 467.723 745.334 467.055 748.018 467.055C749.799 467.055 751.387 467.383 752.781 468.039C754.176 468.695 755.271 469.633 756.068 470.852C756.865 472.059 757.264 473.4 757.264 474.877H752.834C752.834 473.541 752.412 472.498 751.568 471.748C750.736 470.986 749.541 470.605 747.982 470.605C746.529 470.605 745.398 470.916 744.59 471.537C743.793 472.158 743.395 473.025 743.395 474.139C743.395 475.076 743.828 475.861 744.695 476.494C745.562 477.115 746.992 477.725 748.984 478.322C750.977 478.908 752.576 479.582 753.783 480.344C754.99 481.094 755.875 481.961 756.438 482.945C757 483.918 757.281 485.061 757.281 486.373C757.281 488.506 756.461 490.205 754.82 491.471C753.191 492.725 750.977 493.352 748.176 493.352C746.324 493.352 744.619 493.012 743.061 492.332C741.514 491.641 740.307 490.691 739.439 489.484C738.584 488.277 738.156 486.871 738.156 485.266H742.604C742.604 486.719 743.084 487.844 744.045 488.641C745.006 489.438 746.383 489.836 748.176 489.836C749.723 489.836 750.883 489.525 751.656 488.904C752.441 488.271 752.834 487.439 752.834 486.408ZM769.146 493.352C766.439 493.352 764.242 492.502 762.555 490.803C760.879 489.092 760.041 486.818 760.041 483.982V483.455C760.041 481.557 760.404 479.863 761.131 478.375C761.869 476.875 762.9 475.709 764.225 474.877C765.549 474.045 767.025 473.629 768.654 473.629C771.244 473.629 773.242 474.455 774.648 476.107C776.066 477.76 776.775 480.098 776.775 483.121V484.844H764.348C764.477 486.414 764.998 487.656 765.912 488.57C766.838 489.484 767.998 489.941 769.393 489.941C771.35 489.941 772.943 489.15 774.174 487.568L776.477 489.766C775.715 490.902 774.695 491.787 773.418 492.42C772.152 493.041 770.729 493.352 769.146 493.352ZM768.637 477.057C767.465 477.057 766.516 477.467 765.789 478.287C765.074 479.107 764.617 480.25 764.418 481.715H772.557V481.398C772.463 479.969 772.082 478.891 771.414 478.164C770.746 477.426 769.82 477.057 768.637 477.057ZM790.768 487.832C790.768 487.07 790.451 486.49 789.818 486.092C789.197 485.693 788.16 485.342 786.707 485.037C785.254 484.732 784.041 484.346 783.068 483.877C780.936 482.846 779.869 481.352 779.869 479.395C779.869 477.754 780.561 476.383 781.943 475.281C783.326 474.18 785.084 473.629 787.217 473.629C789.49 473.629 791.324 474.191 792.719 475.316C794.125 476.441 794.828 477.9 794.828 479.693H790.557C790.557 478.873 790.252 478.193 789.643 477.654C789.033 477.104 788.225 476.828 787.217 476.828C786.279 476.828 785.512 477.045 784.914 477.479C784.328 477.912 784.035 478.492 784.035 479.219C784.035 479.875 784.311 480.385 784.861 480.748C785.412 481.111 786.525 481.48 788.201 481.855C789.877 482.219 791.189 482.658 792.139 483.174C793.1 483.678 793.809 484.287 794.266 485.002C794.734 485.717 794.969 486.584 794.969 487.604C794.969 489.314 794.26 490.703 792.842 491.77C791.424 492.824 789.566 493.352 787.27 493.352C785.711 493.352 784.322 493.07 783.104 492.508C781.885 491.945 780.936 491.172 780.256 490.188C779.576 489.203 779.236 488.143 779.236 487.006H783.385C783.443 488.014 783.824 488.793 784.527 489.344C785.23 489.883 786.162 490.152 787.322 490.152C788.447 490.152 789.303 489.941 789.889 489.52C790.475 489.086 790.768 488.523 790.768 487.832ZM809.365 487.832C809.365 487.07 809.049 486.49 808.416 486.092C807.795 485.693 806.758 485.342 805.305 485.037C803.852 484.732 802.639 484.346 801.666 483.877C799.533 482.846 798.467 481.352 798.467 479.395C798.467 477.754 799.158 476.383 800.541 475.281C801.924 474.18 803.682 473.629 805.814 473.629C808.088 473.629 809.922 474.191 811.316 475.316C812.723 476.441 813.426 477.9 813.426 479.693H809.154C809.154 478.873 808.85 478.193 808.24 477.654C807.631 477.104 806.822 476.828 805.814 476.828C804.877 476.828 804.109 477.045 803.512 477.479C802.926 477.912 802.633 478.492 802.633 479.219C802.633 479.875 802.908 480.385 803.459 480.748C804.01 481.111 805.123 481.48 806.799 481.855C808.475 482.219 809.787 482.658 810.736 483.174C811.697 483.678 812.406 484.287 812.863 485.002C813.332 485.717 813.566 486.584 813.566 487.604C813.566 489.314 812.857 490.703 811.439 491.77C810.021 492.824 808.164 493.352 805.867 493.352C804.309 493.352 802.92 493.07 801.701 492.508C800.482 491.945 799.533 491.172 798.854 490.188C798.174 489.203 797.834 488.143 797.834 487.006H801.982C802.041 488.014 802.422 488.793 803.125 489.344C803.828 489.883 804.76 490.152 805.92 490.152C807.045 490.152 807.9 489.941 808.486 489.52C809.072 489.086 809.365 488.523 809.365 487.832ZM821.846 493H817.574V473.98H821.846V493ZM817.311 469.041C817.311 468.385 817.516 467.84 817.926 467.406C818.348 466.973 818.945 466.756 819.719 466.756C820.492 466.756 821.09 466.973 821.512 467.406C821.934 467.84 822.145 468.385 822.145 469.041C822.145 469.686 821.934 470.225 821.512 470.658C821.09 471.08 820.492 471.291 819.719 471.291C818.945 471.291 818.348 471.08 817.926 470.658C817.516 470.225 817.311 469.686 817.311 469.041ZM825.713 483.314C825.713 481.451 826.082 479.775 826.82 478.287C827.559 476.787 828.596 475.639 829.932 474.842C831.268 474.033 832.803 473.629 834.537 473.629C837.104 473.629 839.184 474.455 840.777 476.107C842.383 477.76 843.25 479.951 843.379 482.682L843.396 483.684C843.396 485.559 843.033 487.234 842.307 488.711C841.592 490.188 840.561 491.33 839.213 492.139C837.877 492.947 836.33 493.352 834.572 493.352C831.889 493.352 829.738 492.461 828.121 490.68C826.516 488.887 825.713 486.502 825.713 483.525V483.314ZM829.984 483.684C829.984 485.641 830.389 487.176 831.197 488.289C832.006 489.391 833.131 489.941 834.572 489.941C836.014 489.941 837.133 489.379 837.93 488.254C838.738 487.129 839.143 485.482 839.143 483.314C839.143 481.393 838.727 479.869 837.895 478.744C837.074 477.619 835.955 477.057 834.537 477.057C833.143 477.057 832.035 477.613 831.215 478.727C830.395 479.828 829.984 481.48 829.984 483.684ZM850.973 473.98L851.096 476.178C852.502 474.479 854.348 473.629 856.633 473.629C860.594 473.629 862.609 475.896 862.68 480.432V493H858.408V480.678C858.408 479.471 858.145 478.58 857.617 478.006C857.102 477.42 856.252 477.127 855.068 477.127C853.346 477.127 852.062 477.906 851.219 479.465V493H846.947V473.98H850.973Z" fill="white"/>
<path fill-rule="evenodd" clip-rule="evenodd" d="M617 581C617 578.239 619.239 576 622 576H900C902.761 576 905 578.239 905 581V652C905 654.761 902.761 657 900 657H622C619.239 657 617 654.761 617 652V581Z" fill="#3241C9"/>
<path d="M662.166 616.668C661.908 619.398 660.9 621.531 659.143 623.066C657.385 624.59 655.047 625.352 652.129 625.352C650.09 625.352 648.291 624.871 646.732 623.91C645.186 622.938 643.99 621.561 643.146 619.779C642.303 617.998 641.863 615.93 641.828 613.574V611.184C641.828 608.77 642.256 606.643 643.111 604.803C643.967 602.963 645.191 601.545 646.785 600.549C648.391 599.553 650.242 599.055 652.34 599.055C655.164 599.055 657.438 599.822 659.16 601.357C660.883 602.893 661.885 605.061 662.166 607.861H657.736C657.525 606.021 656.986 604.697 656.119 603.889C655.264 603.068 654.004 602.658 652.34 602.658C650.406 602.658 648.918 603.367 647.875 604.785C646.844 606.191 646.316 608.26 646.293 610.99V613.258C646.293 616.023 646.785 618.133 647.77 619.586C648.766 621.039 650.219 621.766 652.129 621.766C653.875 621.766 655.188 621.373 656.066 620.588C656.945 619.803 657.502 618.496 657.736 616.668H662.166ZM675.701 609.883C675.139 609.789 674.559 609.742 673.961 609.742C672.004 609.742 670.686 610.492 670.006 611.992V625H665.734V605.98H669.812L669.918 608.107C670.949 606.455 672.379 605.629 674.207 605.629C674.816 605.629 675.32 605.711 675.719 605.875L675.701 609.883ZM686.424 625.352C683.717 625.352 681.52 624.502 679.832 622.803C678.156 621.092 677.318 618.818 677.318 615.982V615.455C677.318 613.557 677.682 611.863 678.408 610.375C679.146 608.875 680.178 607.709 681.502 606.877C682.826 606.045 684.303 605.629 685.932 605.629C688.521 605.629 690.52 606.455 691.926 608.107C693.344 609.76 694.053 612.098 694.053 615.121V616.844H681.625C681.754 618.414 682.275 619.656 683.189 620.57C684.115 621.484 685.275 621.941 686.67 621.941C688.627 621.941 690.221 621.15 691.451 619.568L693.754 621.766C692.992 622.902 691.973 623.787 690.695 624.42C689.43 625.041 688.006 625.352 686.424 625.352ZM685.914 609.057C684.742 609.057 683.793 609.467 683.066 610.287C682.352 611.107 681.895 612.25 681.695 613.715H689.834V613.398C689.74 611.969 689.359 610.891 688.691 610.164C688.023 609.426 687.098 609.057 685.914 609.057ZM708.748 625C708.561 624.637 708.396 624.045 708.256 623.225C706.896 624.643 705.232 625.352 703.264 625.352C701.354 625.352 699.795 624.807 698.588 623.717C697.381 622.627 696.777 621.279 696.777 619.674C696.777 617.646 697.527 616.094 699.027 615.016C700.539 613.926 702.695 613.381 705.496 613.381H708.115V612.133C708.115 611.148 707.84 610.363 707.289 609.777C706.738 609.18 705.9 608.881 704.775 608.881C703.803 608.881 703.006 609.127 702.385 609.619C701.764 610.1 701.453 610.715 701.453 611.465H697.182C697.182 610.422 697.527 609.449 698.219 608.547C698.91 607.633 699.848 606.918 701.031 606.402C702.227 605.887 703.557 605.629 705.021 605.629C707.248 605.629 709.023 606.191 710.348 607.316C711.672 608.43 712.352 610 712.387 612.027V620.605C712.387 622.316 712.627 623.682 713.107 624.701V625H708.748ZM704.055 621.924C704.898 621.924 705.689 621.719 706.428 621.309C707.178 620.898 707.74 620.348 708.115 619.656V616.07H705.812C704.23 616.07 703.041 616.346 702.244 616.896C701.447 617.447 701.049 618.227 701.049 619.234C701.049 620.055 701.318 620.711 701.857 621.203C702.408 621.684 703.141 621.924 704.055 621.924ZM722.213 601.357V605.98H725.57V609.145H722.213V619.762C722.213 620.488 722.354 621.016 722.635 621.344C722.928 621.66 723.443 621.818 724.182 621.818C724.674 621.818 725.172 621.76 725.676 621.643V624.947C724.703 625.217 723.766 625.352 722.863 625.352C719.582 625.352 717.941 623.541 717.941 619.92V609.145H714.812V605.98H717.941V601.357H722.213ZM737.225 625.352C734.518 625.352 732.32 624.502 730.633 622.803C728.957 621.092 728.119 618.818 728.119 615.982V615.455C728.119 613.557 728.482 611.863 729.209 610.375C729.947 608.875 730.979 607.709 732.303 606.877C733.627 606.045 735.104 605.629 736.732 605.629C739.322 605.629 741.32 606.455 742.727 608.107C744.145 609.76 744.854 612.098 744.854 615.121V616.844H732.426C732.555 618.414 733.076 619.656 733.99 620.57C734.916 621.484 736.076 621.941 737.471 621.941C739.428 621.941 741.021 621.15 742.252 619.568L744.555 621.766C743.793 622.902 742.773 623.787 741.496 624.42C740.23 625.041 738.807 625.352 737.225 625.352ZM736.715 609.057C735.543 609.057 734.594 609.467 733.867 610.287C733.152 611.107 732.695 612.25 732.496 613.715H740.635V613.398C740.541 611.969 740.16 610.891 739.492 610.164C738.824 609.426 737.898 609.057 736.715 609.057ZM770.939 618.408C770.939 617.283 770.541 616.416 769.744 615.807C768.959 615.197 767.535 614.582 765.473 613.961C763.41 613.34 761.77 612.648 760.551 611.887C758.219 610.422 757.053 608.512 757.053 606.156C757.053 604.094 757.891 602.395 759.566 601.059C761.254 599.723 763.439 599.055 766.123 599.055C767.904 599.055 769.492 599.383 770.887 600.039C772.281 600.695 773.377 601.633 774.174 602.852C774.971 604.059 775.369 605.4 775.369 606.877H770.939C770.939 605.541 770.518 604.498 769.674 603.748C768.842 602.986 767.646 602.605 766.088 602.605C764.635 602.605 763.504 602.916 762.695 603.537C761.898 604.158 761.5 605.025 761.5 606.139C761.5 607.076 761.934 607.861 762.801 608.494C763.668 609.115 765.098 609.725 767.09 610.322C769.082 610.908 770.682 611.582 771.889 612.344C773.096 613.094 773.98 613.961 774.543 614.945C775.105 615.918 775.387 617.061 775.387 618.373C775.387 620.506 774.566 622.205 772.926 623.471C771.297 624.725 769.082 625.352 766.281 625.352C764.43 625.352 762.725 625.012 761.166 624.332C759.619 623.641 758.412 622.691 757.545 621.484C756.689 620.277 756.262 618.871 756.262 617.266H760.709C760.709 618.719 761.189 619.844 762.15 620.641C763.111 621.438 764.488 621.836 766.281 621.836C767.828 621.836 768.988 621.525 769.762 620.904C770.547 620.271 770.939 619.439 770.939 618.408ZM787.252 625.352C784.545 625.352 782.348 624.502 780.66 622.803C778.984 621.092 778.146 618.818 778.146 615.982V615.455C778.146 613.557 778.51 611.863 779.236 610.375C779.975 608.875 781.006 607.709 782.33 606.877C783.654 606.045 785.131 605.629 786.76 605.629C789.35 605.629 791.348 606.455 792.754 608.107C794.172 609.76 794.881 612.098 794.881 615.121V616.844H782.453C782.582 618.414 783.104 619.656 784.018 620.57C784.943 621.484 786.104 621.941 787.498 621.941C789.455 621.941 791.049 621.15 792.279 619.568L794.582 621.766C793.82 622.902 792.801 623.787 791.523 624.42C790.258 625.041 788.834 625.352 787.252 625.352ZM786.742 609.057C785.57 609.057 784.621 609.467 783.895 610.287C783.18 611.107 782.723 612.25 782.523 613.715H790.662V613.398C790.568 611.969 790.188 610.891 789.52 610.164C788.852 609.426 787.926 609.057 786.742 609.057ZM808.873 619.832C808.873 619.07 808.557 618.49 807.924 618.092C807.303 617.693 806.266 617.342 804.812 617.037C803.359 616.732 802.146 616.346 801.174 615.877C799.041 614.846 797.975 613.352 797.975 611.395C797.975 609.754 798.666 608.383 800.049 607.281C801.432 606.18 803.189 605.629 805.322 605.629C807.596 605.629 809.43 606.191 810.824 607.316C812.23 608.441 812.934 609.9 812.934 611.693H808.662C808.662 610.873 808.357 610.193 807.748 609.654C807.139 609.104 806.33 608.828 805.322 608.828C804.385 608.828 803.617 609.045 803.02 609.479C802.434 609.912 802.141 610.492 802.141 611.219C802.141 611.875 802.416 612.385 802.967 612.748C803.518 613.111 804.631 613.48 806.307 613.855C807.982 614.219 809.295 614.658 810.244 615.174C811.205 615.678 811.914 616.287 812.371 617.002C812.84 617.717 813.074 618.584 813.074 619.604C813.074 621.314 812.365 622.703 810.947 623.77C809.529 624.824 807.672 625.352 805.375 625.352C803.816 625.352 802.428 625.07 801.209 624.508C799.99 623.945 799.041 623.172 798.361 622.188C797.682 621.203 797.342 620.143 797.342 619.006H801.49C801.549 620.014 801.93 620.793 802.633 621.344C803.336 621.883 804.268 622.152 805.428 622.152C806.553 622.152 807.408 621.941 807.994 621.52C808.58 621.086 808.873 620.523 808.873 619.832ZM827.471 619.832C827.471 619.07 827.154 618.49 826.521 618.092C825.9 617.693 824.863 617.342 823.41 617.037C821.957 616.732 820.744 616.346 819.771 615.877C817.639 614.846 816.572 613.352 816.572 611.395C816.572 609.754 817.264 608.383 818.646 607.281C820.029 606.18 821.787 605.629 823.92 605.629C826.193 605.629 828.027 606.191 829.422 607.316C830.828 608.441 831.531 609.9 831.531 611.693H827.26C827.26 610.873 826.955 610.193 826.346 609.654C825.736 609.104 824.928 608.828 823.92 608.828C822.982 608.828 822.215 609.045 821.617 609.479C821.031 609.912 820.738 610.492 820.738 611.219C820.738 611.875 821.014 612.385 821.564 612.748C822.115 613.111 823.229 613.48 824.904 613.855C826.58 614.219 827.893 614.658 828.842 615.174C829.803 615.678 830.512 616.287 830.969 617.002C831.438 617.717 831.672 618.584 831.672 619.604C831.672 621.314 830.963 622.703 829.545 623.77C828.127 624.824 826.27 625.352 823.973 625.352C822.414 625.352 821.025 625.07 819.807 624.508C818.588 623.945 817.639 623.172 816.959 622.188C816.279 621.203 815.939 620.143 815.939 619.006H820.088C820.146 620.014 820.527 620.793 821.23 621.344C821.934 621.883 822.865 622.152 824.025 622.152C825.15 622.152 826.006 621.941 826.592 621.52C827.178 621.086 827.471 620.523 827.471 619.832ZM839.951 625H835.68V605.98H839.951V625ZM835.416 601.041C835.416 600.385 835.621 599.84 836.031 599.406C836.453 598.973 837.051 598.756 837.824 598.756C838.598 598.756 839.195 598.973 839.617 599.406C840.039 599.84 840.25 600.385 840.25 601.041C840.25 601.686 840.039 602.225 839.617 602.658C839.195 603.08 838.598 603.291 837.824 603.291C837.051 603.291 836.453 603.08 836.031 602.658C835.621 602.225 835.416 601.686 835.416 601.041ZM843.818 615.314C843.818 613.451 844.188 611.775 844.926 610.287C845.664 608.787 846.701 607.639 848.037 606.842C849.373 606.033 850.908 605.629 852.643 605.629C855.209 605.629 857.289 606.455 858.883 608.107C860.488 609.76 861.355 611.951 861.484 614.682L861.502 615.684C861.502 617.559 861.139 619.234 860.412 620.711C859.697 622.188 858.666 623.33 857.318 624.139C855.982 624.947 854.436 625.352 852.678 625.352C849.994 625.352 847.844 624.461 846.227 622.68C844.621 620.887 843.818 618.502 843.818 615.525V615.314ZM848.09 615.684C848.09 617.641 848.494 619.176 849.303 620.289C850.111 621.391 851.236 621.941 852.678 621.941C854.119 621.941 855.238 621.379 856.035 620.254C856.844 619.129 857.248 617.482 857.248 615.314C857.248 613.393 856.832 611.869 856 610.744C855.18 609.619 854.061 609.057 852.643 609.057C851.248 609.057 850.141 609.613 849.32 610.727C848.5 611.828 848.09 613.48 848.09 615.684ZM869.078 605.98L869.201 608.178C870.607 606.479 872.453 605.629 874.738 605.629C878.699 605.629 880.715 607.896 880.785 612.432V625H876.514V612.678C876.514 611.471 876.25 610.58 875.723 610.006C875.207 609.42 874.357 609.127 873.174 609.127C871.451 609.127 870.168 609.906 869.324 611.465V625H865.053V605.98H869.078Z" fill="white"/>
<g filter="url(#filter1_d)">
<path d="M649.979 365.408C649.979 364.283 649.58 363.416 648.783 362.807C647.998 362.197 646.574 361.582 644.512 360.961C642.449 360.34 640.809 359.648 639.59 358.887C637.258 357.422 636.092 355.512 636.092 353.156C636.092 351.094 636.93 349.395 638.605 348.059C640.293 346.723 642.479 346.055 645.162 346.055C646.943 346.055 648.531 346.383 649.926 347.039C651.32 347.695 652.416 348.633 653.213 349.852C654.01 351.059 654.408 352.4 654.408 353.877H649.979C649.979 352.541 649.557 351.498 648.713 350.748C647.881 349.986 646.686 349.605 645.127 349.605C643.674 349.605 642.543 349.916 641.734 350.537C640.938 351.158 640.539 352.025 640.539 353.139C640.539 354.076 640.973 354.861 641.84 355.494C642.707 356.115 644.137 356.725 646.129 357.322C648.121 357.908 649.721 358.582 650.928 359.344C652.135 360.094 653.02 360.961 653.582 361.945C654.145 362.918 654.426 364.061 654.426 365.373C654.426 367.506 653.605 369.205 651.965 370.471C650.336 371.725 648.121 372.352 645.32 372.352C643.469 372.352 641.764 372.012 640.205 371.332C638.658 370.641 637.451 369.691 636.584 368.484C635.729 367.277 635.301 365.871 635.301 364.266H639.748C639.748 365.719 640.229 366.844 641.189 367.641C642.15 368.438 643.527 368.836 645.32 368.836C646.867 368.836 648.027 368.525 648.801 367.904C649.586 367.271 649.979 366.439 649.979 365.408ZM663.268 348.357V352.98H666.625V356.145H663.268V366.762C663.268 367.488 663.408 368.016 663.689 368.344C663.982 368.66 664.498 368.818 665.236 368.818C665.729 368.818 666.227 368.76 666.73 368.643V371.947C665.758 372.217 664.82 372.352 663.918 372.352C660.637 372.352 658.996 370.541 658.996 366.92V356.145H655.867V352.98H658.996V348.357H663.268ZM681.268 372C681.08 371.637 680.916 371.045 680.775 370.225C679.416 371.643 677.752 372.352 675.783 372.352C673.873 372.352 672.314 371.807 671.107 370.717C669.9 369.627 669.297 368.279 669.297 366.674C669.297 364.646 670.047 363.094 671.547 362.016C673.059 360.926 675.215 360.381 678.016 360.381H680.635V359.133C680.635 358.148 680.359 357.363 679.809 356.777C679.258 356.18 678.42 355.881 677.295 355.881C676.322 355.881 675.525 356.127 674.904 356.619C674.283 357.1 673.973 357.715 673.973 358.465H669.701C669.701 357.422 670.047 356.449 670.738 355.547C671.43 354.633 672.367 353.918 673.551 353.402C674.746 352.887 676.076 352.629 677.541 352.629C679.768 352.629 681.543 353.191 682.867 354.316C684.191 355.43 684.871 357 684.906 359.027V367.605C684.906 369.316 685.146 370.682 685.627 371.701V372H681.268ZM676.574 368.924C677.418 368.924 678.209 368.719 678.947 368.309C679.697 367.898 680.26 367.348 680.635 366.656V363.07H678.332C676.75 363.07 675.561 363.346 674.764 363.896C673.967 364.447 673.568 365.227 673.568 366.234C673.568 367.055 673.838 367.711 674.377 368.203C674.928 368.684 675.66 368.924 676.574 368.924ZM699.338 356.883C698.775 356.789 698.195 356.742 697.598 356.742C695.641 356.742 694.322 357.492 693.643 358.992V372H689.371V352.98H693.449L693.555 355.107C694.586 353.455 696.016 352.629 697.844 352.629C698.453 352.629 698.957 352.711 699.355 352.875L699.338 356.883ZM708.268 348.357V352.98H711.625V356.145H708.268V366.762C708.268 367.488 708.408 368.016 708.689 368.344C708.982 368.66 709.498 368.818 710.236 368.818C710.729 368.818 711.227 368.76 711.73 368.643V371.947C710.758 372.217 709.82 372.352 708.918 372.352C705.637 372.352 703.996 370.541 703.996 366.92V356.145H700.867V352.98H703.996V348.357H708.268ZM728.729 362.49V372H724.281V346.406H734.072C736.932 346.406 739.199 347.15 740.875 348.639C742.562 350.127 743.406 352.096 743.406 354.545C743.406 357.053 742.58 359.004 740.928 360.398C739.287 361.793 736.984 362.49 734.02 362.49H728.729ZM728.729 358.922H734.072C735.654 358.922 736.861 358.553 737.693 357.814C738.525 357.064 738.941 355.986 738.941 354.58C738.941 353.197 738.52 352.096 737.676 351.275C736.832 350.443 735.672 350.016 734.195 349.992H728.729V358.922ZM751.439 372H747.168V345H751.439V372ZM767.471 372C767.283 371.637 767.119 371.045 766.979 370.225C765.619 371.643 763.955 372.352 761.986 372.352C760.076 372.352 758.518 371.807 757.311 370.717C756.104 369.627 755.5 368.279 755.5 366.674C755.5 364.646 756.25 363.094 757.75 362.016C759.262 360.926 761.418 360.381 764.219 360.381H766.838V359.133C766.838 358.148 766.562 357.363 766.012 356.777C765.461 356.18 764.623 355.881 763.498 355.881C762.525 355.881 761.729 356.127 761.107 356.619C760.486 357.1 760.176 357.715 760.176 358.465H755.904C755.904 357.422 756.25 356.449 756.941 355.547C757.633 354.633 758.57 353.918 759.754 353.402C760.949 352.887 762.279 352.629 763.744 352.629C765.971 352.629 767.746 353.191 769.07 354.316C770.395 355.43 771.074 357 771.109 359.027V367.605C771.109 369.316 771.35 370.682 771.83 371.701V372H767.471ZM762.777 368.924C763.621 368.924 764.412 368.719 765.15 368.309C765.9 367.898 766.463 367.348 766.838 366.656V363.07H764.535C762.953 363.07 761.764 363.346 760.967 363.896C760.17 364.447 759.771 365.227 759.771 366.234C759.771 367.055 760.041 367.711 760.58 368.203C761.131 368.684 761.863 368.924 762.777 368.924ZM781.955 365.883L785.822 352.98H790.375L782.816 374.883C781.656 378.082 779.688 379.682 776.91 379.682C776.289 379.682 775.604 379.576 774.854 379.365V376.061L775.662 376.113C776.74 376.113 777.549 375.914 778.088 375.516C778.639 375.129 779.072 374.473 779.389 373.547L780.004 371.912L773.324 352.98H777.93L781.955 365.883ZM797.389 372H793.117V352.98H797.389V372ZM792.854 348.041C792.854 347.385 793.059 346.84 793.469 346.406C793.891 345.973 794.488 345.756 795.262 345.756C796.035 345.756 796.633 345.973 797.055 346.406C797.477 346.84 797.688 347.385 797.688 348.041C797.688 348.686 797.477 349.225 797.055 349.658C796.633 350.08 796.035 350.291 795.262 350.291C794.488 350.291 793.891 350.08 793.469 349.658C793.059 349.225 792.854 348.686 792.854 348.041ZM806.02 352.98L806.143 355.178C807.549 353.479 809.395 352.629 811.68 352.629C815.641 352.629 817.656 354.896 817.727 359.432V372H813.455V359.678C813.455 358.471 813.191 357.58 812.664 357.006C812.148 356.42 811.299 356.127 810.115 356.127C808.393 356.127 807.109 356.906 806.266 358.465V372H801.994V352.98H806.02ZM821.348 362.35C821.348 359.396 822.039 357.041 823.422 355.283C824.816 353.514 826.662 352.629 828.959 352.629C831.127 352.629 832.832 353.385 834.074 354.896L834.268 352.98H838.117V371.42C838.117 373.916 837.338 375.885 835.779 377.326C834.232 378.768 832.141 379.488 829.504 379.488C828.109 379.488 826.744 379.195 825.408 378.609C824.084 378.035 823.076 377.279 822.385 376.342L824.406 373.775C825.719 375.334 827.336 376.113 829.258 376.113C830.676 376.113 831.795 375.727 832.615 374.953C833.436 374.191 833.846 373.066 833.846 371.578V370.295C832.615 371.666 830.975 372.352 828.924 372.352C826.697 372.352 824.875 371.467 823.457 369.697C822.051 367.928 821.348 365.479 821.348 362.35ZM825.602 362.719C825.602 364.629 825.988 366.135 826.762 367.236C827.547 368.326 828.631 368.871 830.014 368.871C831.736 368.871 833.014 368.133 833.846 366.656V358.289C833.037 356.848 831.771 356.127 830.049 356.127C828.643 356.127 827.547 356.684 826.762 357.797C825.988 358.91 825.602 360.551 825.602 362.719ZM847.047 364.459H843.373L842.969 346.406H847.469L847.047 364.459ZM842.846 369.979C842.846 369.311 843.062 368.76 843.496 368.326C843.93 367.881 844.521 367.658 845.271 367.658C846.021 367.658 846.613 367.881 847.047 368.326C847.48 368.76 847.697 369.311 847.697 369.979C847.697 370.623 847.486 371.162 847.064 371.596C846.643 372.029 846.045 372.246 845.271 372.246C844.498 372.246 843.9 372.029 843.479 371.596C843.057 371.162 842.846 370.623 842.846 369.979Z" fill="black"/>
</g>
<path d="M46 96.6C46 94.6118 47.6926 93 49.7805 93C51.8684 93 53.561 94.6118 53.561 96.6C53.561 98.5882 51.8684 100.2 49.7805 100.2C47.6926 100.2 46 98.5882 46 96.6Z" fill="#959595"/>
<path d="M77 111H46.7561V106.68L50.4907 103.124C50.9336 102.702 51.6517 102.702 52.0946 103.124L55.8293 106.68L67.1248 95.9237C67.5678 95.5019 68.2859 95.5019 68.7288 95.9237L77 103.8V111Z" fill="#959595"/>
<defs>
<filter id="filter0_d" x="294" y="263" width="935" height="514" filterUnits="userSpaceOnUse" color-interpolation-filters="sRGB">
<feFlood flood-opacity="0" result="BackgroundImageFix"/>
<feColorMatrix in="SourceAlpha" type="matrix" values="0 0 0 0 0 0 0 0 0 0 0 0 0 0 0 0 0 0 127 0"/>
<feOffset dy="8"/>
<feGaussianBlur stdDeviation="7.5"/>
<feColorMatrix type="matrix" values="0 0 0 0 0 0 0 0 0 0 0 0 0 0 0 0 0 0 0.2 0"/>
<feBlend mode="normal" in2="BackgroundImageFix" result="effect1_dropShadow"/>
<feBlend mode="normal" in="SourceGraphic" in2="effect1_dropShadow" result="shape"/>
</filter>
<filter id="filter1_d" x="631.301" y="345" width="220.396" height="42.6816" filterUnits="userSpaceOnUse" color-interpolation-filters="sRGB">
<feFlood flood-opacity="0" result="BackgroundImageFix"/>
<feColorMatrix in="SourceAlpha" type="matrix" values="0 0 0 0 0 0 0 0 0 0 0 0 0 0 0 0 0 0 127 0"/>
<feOffset dy="4"/>
<feGaussianBlur stdDeviation="2"/>
<feColorMatrix type="matrix" values="0 0 0 0 0 0 0 0 0 0 0 0 0 0 0 0 0 0 0.25 0"/>
<feBlend mode="normal" in2="BackgroundImageFix" result="effect1_dropShadow"/>
<feBlend mode="normal" in="SourceGraphic" in2="effect1_dropShadow" result="shape"/>
</filter>
</defs>
</svg>
