<svg width="1440" height="1024" viewBox="0 0 1440 1024" fill="none" xmlns="http://www.w3.org/2000/svg">
<rect width="1440" height="1024" fill="white"/>
<rect x="0.5" y="0.5" width="1439" height="1023" fill="white" stroke="#C4C4C4"/>
<rect width="1440" height="53" fill="#EDEDED"/>
<rect x="97" y="13" width="1330" height="27" fill="white"/>
<ellipse cx="26.8077" cy="26.7942" rx="7.88462" ry="7.88066" fill="#C4C4C4"/>
<ellipse cx="48.8846" cy="26.7942" rx="7.88462" ry="7.88066" fill="#C4C4C4"/>
<ellipse cx="70.9615" cy="26.7942" rx="7.88462" ry="7.88066" fill="#C4C4C4"/>
<path d="M109.222 24.499C109.782 23.8109 110.511 23.4668 111.409 23.4668C112.972 23.4668 113.761 24.3486 113.774 26.1123V31H112.51V26.1055C112.505 25.5723 112.382 25.1781 112.141 24.9229C111.904 24.6676 111.532 24.54 111.026 24.54C110.616 24.54 110.256 24.6494 109.946 24.8682C109.636 25.0869 109.395 25.374 109.222 25.7295V31H107.957V20.5H109.222V24.499ZM117.384 21.8125V23.6035H118.765V24.5811H117.384V29.168C117.384 29.4642 117.445 29.6875 117.568 29.8379C117.691 29.9837 117.901 30.0566 118.197 30.0566C118.343 30.0566 118.544 30.0293 118.799 29.9746V31C118.466 31.0911 118.143 31.1367 117.828 31.1367C117.263 31.1367 116.837 30.9658 116.55 30.624C116.263 30.2822 116.119 29.7969 116.119 29.168V24.5811H114.772V23.6035H116.119V21.8125H117.384ZM121.964 21.8125V23.6035H123.345V24.5811H121.964V29.168C121.964 29.4642 122.025 29.6875 122.148 29.8379C122.271 29.9837 122.481 30.0566 122.777 30.0566C122.923 30.0566 123.124 30.0293 123.379 29.9746V31C123.046 31.0911 122.723 31.1367 122.408 31.1367C121.843 31.1367 121.417 30.9658 121.13 30.624C120.843 30.2822 120.699 29.7969 120.699 29.168V24.5811H119.353V23.6035H120.699V21.8125H121.964ZM131.076 27.3838C131.076 28.5094 130.819 29.4163 130.304 30.1045C129.789 30.7926 129.091 31.1367 128.212 31.1367C127.314 31.1367 126.608 30.8519 126.093 30.2822V33.8438H124.828V23.6035H125.983L126.045 24.4238C126.56 23.7858 127.275 23.4668 128.191 23.4668C129.08 23.4668 129.782 23.8018 130.297 24.4717C130.816 25.1416 131.076 26.0736 131.076 27.2676V27.3838ZM129.812 27.2402C129.812 26.4062 129.634 25.7477 129.278 25.2646C128.923 24.7816 128.435 24.54 127.815 24.54C127.05 24.54 126.476 24.8796 126.093 25.5586V29.0928C126.471 29.7673 127.05 30.1045 127.829 30.1045C128.435 30.1045 128.916 29.8652 129.271 29.3867C129.632 28.9036 129.812 28.1882 129.812 27.2402ZM132.648 30.3369C132.648 30.1182 132.712 29.9359 132.84 29.79C132.972 29.6442 133.168 29.5713 133.428 29.5713C133.688 29.5713 133.883 29.6442 134.016 29.79C134.152 29.9359 134.221 30.1182 134.221 30.3369C134.221 30.5465 134.152 30.722 134.016 30.8633C133.883 31.0046 133.688 31.0752 133.428 31.0752C133.168 31.0752 132.972 31.0046 132.84 30.8633C132.712 30.722 132.648 30.5465 132.648 30.3369ZM132.655 24.3008C132.655 24.082 132.719 23.8997 132.847 23.7539C132.979 23.6081 133.175 23.5352 133.435 23.5352C133.694 23.5352 133.89 23.6081 134.022 23.7539C134.159 23.8997 134.228 24.082 134.228 24.3008C134.228 24.5104 134.159 24.6859 134.022 24.8271C133.89 24.9684 133.694 25.0391 133.435 25.0391C133.175 25.0391 132.979 24.9684 132.847 24.8271C132.719 24.6859 132.655 24.5104 132.655 24.3008ZM136.333 31.8545H135.246L139.402 21.0469H140.482L136.333 31.8545ZM140.571 31.8545H139.484L143.641 21.0469H144.721L140.571 31.8545ZM150.709 21.5732C150.144 21.4821 149.688 21.4365 149.342 21.4365C148.43 21.4365 147.975 21.915 147.975 22.8721V23.6035H149.554V24.5811H147.975V31H146.71V24.5811H145.541V23.6035H146.71V22.7969C146.715 22.0085 146.936 21.4046 147.373 20.9854C147.811 20.5661 148.433 20.3564 149.239 20.3564C149.7 20.3564 150.611 20.4954 151.974 20.7734V31H150.709V21.5732ZM156.465 29.1475L158.188 23.6035H159.541L156.567 32.1416C156.107 33.3721 155.376 33.9873 154.373 33.9873L154.134 33.9668L153.662 33.8779V32.8525L154.004 32.8799C154.432 32.8799 154.765 32.7933 155.002 32.6201C155.243 32.4469 155.442 32.1302 155.597 31.6699L155.877 30.918L153.238 23.6035H154.619L156.465 29.1475ZM166.938 27.3838C166.938 28.514 166.678 29.4232 166.158 30.1113C165.639 30.7949 164.941 31.1367 164.066 31.1367C163.132 31.1367 162.41 30.8063 161.899 30.1455L161.838 31H160.676V20.5H161.94V24.417C162.451 23.7835 163.155 23.4668 164.053 23.4668C164.951 23.4668 165.655 23.8063 166.165 24.4854C166.68 25.1644 166.938 26.0941 166.938 27.2744V27.3838ZM165.673 27.2402C165.673 26.3789 165.507 25.7135 165.174 25.2441C164.841 24.7747 164.363 24.54 163.738 24.54C162.904 24.54 162.305 24.9274 161.94 25.7021V28.9014C162.328 29.6761 162.932 30.0635 163.752 30.0635C164.358 30.0635 164.83 29.8288 165.167 29.3594C165.504 28.89 165.673 28.1836 165.673 27.2402ZM169.911 31H168.646V23.6035H169.911V31ZM168.544 21.6416C168.544 21.4365 168.605 21.2633 168.729 21.1221C168.856 20.9808 169.043 20.9102 169.289 20.9102C169.535 20.9102 169.722 20.9808 169.85 21.1221C169.977 21.2633 170.041 21.4365 170.041 21.6416C170.041 21.8467 169.977 22.0176 169.85 22.1543C169.722 22.291 169.535 22.3594 169.289 22.3594C169.043 22.3594 168.856 22.291 168.729 22.1543C168.605 22.0176 168.544 21.8467 168.544 21.6416ZM175.517 24.7383C175.325 24.7064 175.118 24.6904 174.895 24.6904C174.065 24.6904 173.502 25.0436 173.206 25.75V31H171.941V23.6035H173.172L173.192 24.458C173.607 23.7972 174.195 23.4668 174.956 23.4668C175.202 23.4668 175.389 23.4987 175.517 23.5625V24.7383ZM176.241 27.2402C176.241 26.1055 176.51 25.194 177.048 24.5059C177.586 23.8132 178.29 23.4668 179.16 23.4668C180.026 23.4668 180.712 23.763 181.218 24.3555V20.5H182.482V31H181.32L181.259 30.207C180.753 30.8268 180.049 31.1367 179.146 31.1367C178.29 31.1367 177.59 30.7858 177.048 30.084C176.51 29.3822 176.241 28.4661 176.241 27.3359V27.2402ZM177.506 27.3838C177.506 28.2223 177.679 28.8786 178.025 29.3525C178.372 29.8265 178.85 30.0635 179.461 30.0635C180.263 30.0635 180.849 29.7035 181.218 28.9834V25.5859C180.84 24.8887 180.258 24.54 179.475 24.54C178.855 24.54 178.372 24.7793 178.025 25.2578C177.679 25.7363 177.506 26.445 177.506 27.3838ZM189.072 21.5732C188.507 21.4821 188.051 21.4365 187.705 21.4365C186.794 21.4365 186.338 21.915 186.338 22.8721V23.6035H187.917V24.5811H186.338V31H185.073V24.5811H183.904V23.6035H185.073V22.7969C185.078 22.0085 185.299 21.4046 185.736 20.9854C186.174 20.5661 186.796 20.3564 187.603 20.3564C188.063 20.3564 188.974 20.4954 190.337 20.7734V31H189.072V21.5732ZM194.828 29.1475L196.551 23.6035H197.904L194.931 32.1416C194.47 33.3721 193.739 33.9873 192.736 33.9873L192.497 33.9668L192.025 33.8779V32.8525L192.367 32.8799C192.796 32.8799 193.128 32.7933 193.365 32.6201C193.607 32.4469 193.805 32.1302 193.96 31.6699L194.24 30.918L191.602 23.6035H192.982L194.828 29.1475ZM198.328 30.3369C198.328 30.1182 198.392 29.9359 198.52 29.79C198.652 29.6442 198.848 29.5713 199.107 29.5713C199.367 29.5713 199.563 29.6442 199.695 29.79C199.832 29.9359 199.9 30.1182 199.9 30.3369C199.9 30.5465 199.832 30.722 199.695 30.8633C199.563 31.0046 199.367 31.0752 199.107 31.0752C198.848 31.0752 198.652 31.0046 198.52 30.8633C198.392 30.722 198.328 30.5465 198.328 30.3369ZM204.959 30.1045C205.41 30.1045 205.804 29.9678 206.142 29.6943C206.479 29.4209 206.666 29.0791 206.702 28.6689H207.898C207.876 29.0928 207.73 29.4961 207.461 29.8789C207.192 30.2617 206.832 30.5671 206.381 30.7949C205.934 31.0228 205.46 31.1367 204.959 31.1367C203.952 31.1367 203.15 30.8018 202.553 30.1318C201.96 29.4574 201.664 28.5368 201.664 27.3701V27.1582C201.664 26.4382 201.796 25.7979 202.061 25.2373C202.325 24.6768 202.703 24.2415 203.195 23.9316C203.692 23.6217 204.278 23.4668 204.952 23.4668C205.782 23.4668 206.47 23.7152 207.017 24.2119C207.568 24.7087 207.862 25.3535 207.898 26.1465H206.702C206.666 25.668 206.483 25.276 206.155 24.9707C205.832 24.6608 205.431 24.5059 204.952 24.5059C204.31 24.5059 203.811 24.7383 203.455 25.2031C203.104 25.6634 202.929 26.3311 202.929 27.2061V27.4453C202.929 28.2975 203.104 28.9538 203.455 29.4141C203.806 29.8743 204.307 30.1045 204.959 30.1045ZM208.985 27.2334C208.985 26.5088 209.127 25.8571 209.409 25.2783C209.696 24.6995 210.093 24.2529 210.599 23.9385C211.109 23.624 211.69 23.4668 212.342 23.4668C213.349 23.4668 214.162 23.8154 214.782 24.5127C215.407 25.21 215.719 26.1374 215.719 27.2949V27.3838C215.719 28.1038 215.58 28.751 215.302 29.3252C215.028 29.8949 214.634 30.3392 214.119 30.6582C213.609 30.9772 213.021 31.1367 212.355 31.1367C211.353 31.1367 210.539 30.7881 209.915 30.0908C209.295 29.3936 208.985 28.4707 208.985 27.3223V27.2334ZM210.257 27.3838C210.257 28.2041 210.446 28.8626 210.824 29.3594C211.207 29.8561 211.717 30.1045 212.355 30.1045C212.998 30.1045 213.508 29.8538 213.887 29.3525C214.265 28.8467 214.454 28.1403 214.454 27.2334C214.454 26.4222 214.26 25.766 213.873 25.2646C213.49 24.7588 212.98 24.5059 212.342 24.5059C211.717 24.5059 211.214 24.7542 210.831 25.251C210.448 25.7477 210.257 26.4587 210.257 27.3838ZM218.494 23.6035L218.528 24.4238C219.071 23.7858 219.802 23.4668 220.723 23.4668C221.757 23.4668 222.461 23.8633 222.835 24.6562C223.081 24.3008 223.4 24.0137 223.792 23.7949C224.188 23.5762 224.656 23.4668 225.193 23.4668C226.816 23.4668 227.641 24.3258 227.668 26.0439V31H226.403V26.1191C226.403 25.5905 226.283 25.1963 226.041 24.9365C225.799 24.6722 225.394 24.54 224.824 24.54C224.355 24.54 223.965 24.6813 223.655 24.9639C223.345 25.2419 223.165 25.6178 223.115 26.0918V31H221.844V26.1533C221.844 25.0778 221.317 24.54 220.265 24.54C219.435 24.54 218.868 24.8932 218.562 25.5996V31H217.298V23.6035H218.494Z" fill="black"/>
<rect x="1.5" y="54.5" width="1437" height="99" rx="2.5" stroke="#C4C4C4" stroke-width="3"/>
<rect x="1.5" y="889.5" width="1437" height="99" rx="2.5" stroke="#C4C4C4" stroke-width="3"/>
<rect x="1.5" y="991.5" width="1437" height="31" rx="2.5" fill="black" stroke="black" stroke-width="3"/>
<path d="M1394.9 936.9L1392.29 939.476C1390.21 941.492 1388.9 943.2 1388.9 947.4H1383.1V946C1383.1 942.892 1384.41 940.092 1386.49 938.076L1390.09 934.548C1391.16 933.54 1391.8 932.14 1391.8 930.6C1391.8 927.492 1389.19 925 1386 925C1384.46 925 1382.99 925.59 1381.9 926.64C1380.81 927.69 1380.2 929.115 1380.2 930.6H1374.4C1374.4 927.63 1375.62 924.781 1377.8 922.68C1379.97 920.58 1382.92 919.4 1386 919.4C1389.08 919.4 1392.03 920.58 1394.2 922.68C1396.38 924.781 1397.6 927.63 1397.6 930.6C1397.6 933.064 1396.56 935.276 1394.9 936.9ZM1388.9 958.6H1383.1V953H1388.9V958.6ZM1386 911C1382.19 911 1378.42 911.724 1374.9 913.131C1371.38 914.539 1368.19 916.601 1365.49 919.201C1360.06 924.452 1357 931.574 1357 939C1357 946.426 1360.06 953.548 1365.49 958.799C1368.19 961.399 1371.38 963.461 1374.9 964.869C1378.42 966.276 1382.19 967 1386 967C1393.69 967 1401.07 964.05 1406.51 958.799C1411.94 953.548 1415 946.426 1415 939C1415 923.516 1401.95 911 1386 911Z" fill="#686B6F"/>
<path d="M57 114.6C57 112.612 58.6926 111 60.7805 111C62.8684 111 64.561 112.612 64.561 114.6C64.561 116.588 62.8684 118.2 60.7805 118.2C58.6926 118.2 57 116.588 57 114.6Z" fill="#959595"/>
<path d="M88 129H57.7561V124.68L61.4907 121.124C61.9336 120.702 62.6517 120.702 63.0946 121.124L66.8293 124.68L78.1248 113.924C78.5678 113.502 79.2859 113.502 79.7288 113.924L88 121.8V129Z" fill="#959595"/>
<path d="M115.76 113.493C113.348 112.8 111.59 111.95 110.486 110.944C109.393 109.929 108.846 108.679 108.846 107.194C108.846 105.515 109.515 104.128 110.853 103.034C112.2 101.931 113.948 101.379 116.097 101.379C117.562 101.379 118.865 101.662 120.008 102.229C121.16 102.795 122.049 103.576 122.674 104.572C123.309 105.568 123.626 106.657 123.626 107.839H120.799C120.799 106.55 120.389 105.539 119.568 104.807C118.748 104.064 117.591 103.693 116.097 103.693C114.71 103.693 113.626 104.001 112.845 104.616C112.073 105.222 111.688 106.066 111.688 107.15C111.688 108.02 112.054 108.757 112.786 109.362C113.528 109.958 114.783 110.505 116.551 111.003C118.328 111.501 119.715 112.053 120.711 112.658C121.717 113.254 122.459 113.952 122.938 114.753C123.426 115.554 123.67 116.496 123.67 117.58C123.67 119.309 122.996 120.695 121.648 121.74C120.301 122.775 118.499 123.293 116.243 123.293C114.778 123.293 113.411 123.015 112.142 122.458C110.872 121.892 109.891 121.12 109.197 120.144C108.514 119.167 108.172 118.059 108.172 116.818H110.999C110.999 118.107 111.473 119.128 112.42 119.88C113.377 120.622 114.651 120.993 116.243 120.993C117.728 120.993 118.865 120.69 119.656 120.085C120.447 119.479 120.843 118.654 120.843 117.609C120.843 116.564 120.477 115.759 119.744 115.192C119.012 114.616 117.684 114.05 115.76 113.493ZM129.412 107.15L129.485 108.908C130.647 107.541 132.215 106.857 134.188 106.857C136.404 106.857 137.913 107.707 138.714 109.406C139.241 108.645 139.925 108.029 140.765 107.561C141.614 107.092 142.615 106.857 143.768 106.857C147.244 106.857 149.012 108.698 149.07 112.38V123H146.36V112.541C146.36 111.408 146.102 110.563 145.584 110.007C145.066 109.44 144.197 109.157 142.977 109.157C141.971 109.157 141.136 109.46 140.472 110.065C139.808 110.661 139.422 111.467 139.314 112.482V123H136.59V112.614C136.59 110.31 135.462 109.157 133.206 109.157C131.429 109.157 130.213 109.914 129.559 111.428V123H126.849V107.15H129.412ZM162.957 123C162.801 122.688 162.674 122.131 162.576 121.33C161.316 122.639 159.812 123.293 158.064 123.293C156.502 123.293 155.218 122.854 154.212 121.975C153.216 121.086 152.718 119.963 152.718 118.605C152.718 116.955 153.343 115.676 154.593 114.768C155.853 113.85 157.62 113.391 159.896 113.391H162.532V112.146C162.532 111.198 162.249 110.446 161.683 109.89C161.116 109.323 160.281 109.04 159.178 109.04C158.211 109.04 157.4 109.284 156.746 109.772C156.092 110.261 155.765 110.852 155.765 111.545H153.04C153.04 110.754 153.318 109.992 153.875 109.26C154.441 108.518 155.203 107.932 156.16 107.502C157.127 107.072 158.187 106.857 159.339 106.857C161.165 106.857 162.596 107.316 163.631 108.234C164.666 109.143 165.203 110.397 165.242 111.999V119.294C165.242 120.749 165.428 121.906 165.799 122.766V123H162.957ZM158.46 120.935C159.31 120.935 160.115 120.715 160.877 120.275C161.639 119.836 162.19 119.265 162.532 118.562V115.31H160.408C157.088 115.31 155.428 116.281 155.428 118.225C155.428 119.074 155.711 119.738 156.277 120.217C156.844 120.695 157.571 120.935 158.46 120.935ZM177.151 109.582C176.741 109.514 176.297 109.479 175.818 109.479C174.041 109.479 172.835 110.236 172.2 111.75V123H169.49V107.15H172.127L172.171 108.981C173.06 107.565 174.319 106.857 175.95 106.857C176.478 106.857 176.878 106.926 177.151 107.062V109.582ZM184.065 103.312V107.15H187.024V109.245H184.065V119.074C184.065 119.709 184.197 120.188 184.461 120.51C184.725 120.822 185.174 120.979 185.809 120.979C186.121 120.979 186.551 120.92 187.098 120.803V123C186.385 123.195 185.691 123.293 185.018 123.293C183.807 123.293 182.894 122.927 182.278 122.194C181.663 121.462 181.355 120.422 181.355 119.074V109.245H178.47V107.15H181.355V103.312H184.065ZM198.069 123V101.672H205.042C207.356 101.672 209.095 102.15 210.257 103.107C211.429 104.064 212.015 105.48 212.015 107.355C212.015 108.352 211.731 109.235 211.165 110.007C210.599 110.769 209.827 111.359 208.851 111.779C210.003 112.102 210.911 112.717 211.575 113.625C212.249 114.523 212.586 115.598 212.586 116.848C212.586 118.762 211.966 120.266 210.726 121.359C209.485 122.453 207.732 123 205.467 123H198.069ZM200.882 113.024V120.7H205.525C206.834 120.7 207.864 120.363 208.616 119.689C209.378 119.006 209.759 118.068 209.759 116.877C209.759 114.309 208.362 113.024 205.569 113.024H200.882ZM200.882 110.769H205.13C206.36 110.769 207.342 110.461 208.074 109.846C208.816 109.23 209.188 108.396 209.188 107.341C209.188 106.169 208.846 105.319 208.162 104.792C207.479 104.255 206.438 103.986 205.042 103.986H200.882V110.769ZM219.28 123H216.57V107.15H219.28V123ZM216.351 102.946C216.351 102.507 216.482 102.136 216.746 101.833C217.02 101.53 217.42 101.379 217.947 101.379C218.475 101.379 218.875 101.53 219.148 101.833C219.422 102.136 219.559 102.507 219.559 102.946C219.559 103.386 219.422 103.752 219.148 104.045C218.875 104.338 218.475 104.484 217.947 104.484C217.42 104.484 217.02 104.338 216.746 104.045C216.482 103.752 216.351 103.386 216.351 102.946ZM231.292 109.582C230.882 109.514 230.438 109.479 229.959 109.479C228.182 109.479 226.976 110.236 226.341 111.75V123H223.631V107.15H226.268L226.312 108.981C227.2 107.565 228.46 106.857 230.091 106.857C230.618 106.857 231.019 106.926 231.292 107.062V109.582ZM232.845 114.943C232.845 112.512 233.421 110.559 234.573 109.084C235.726 107.6 237.234 106.857 239.1 106.857C240.955 106.857 242.425 107.492 243.509 108.762V100.5H246.219V123H243.729L243.597 121.301C242.513 122.629 241.004 123.293 239.07 123.293C237.234 123.293 235.735 122.541 234.573 121.037C233.421 119.533 232.845 117.57 232.845 115.148V114.943ZM235.555 115.251C235.555 117.048 235.926 118.454 236.668 119.47C237.41 120.485 238.436 120.993 239.744 120.993C241.463 120.993 242.718 120.222 243.509 118.679V111.398C242.698 109.904 241.453 109.157 239.773 109.157C238.445 109.157 237.41 109.67 236.668 110.695C235.926 111.721 235.555 113.239 235.555 115.251ZM259.666 118.796C259.666 118.063 259.388 117.497 258.831 117.097C258.284 116.687 257.322 116.335 255.945 116.042C254.578 115.749 253.489 115.397 252.679 114.987C251.878 114.577 251.282 114.089 250.892 113.522C250.511 112.956 250.32 112.282 250.32 111.501C250.32 110.202 250.867 109.104 251.961 108.205C253.064 107.307 254.471 106.857 256.18 106.857C257.977 106.857 259.432 107.321 260.545 108.249C261.668 109.177 262.229 110.363 262.229 111.809H259.505C259.505 111.066 259.188 110.427 258.553 109.89C257.928 109.353 257.137 109.084 256.18 109.084C255.193 109.084 254.422 109.299 253.865 109.729C253.309 110.158 253.03 110.72 253.03 111.413C253.03 112.067 253.289 112.561 253.807 112.893C254.324 113.225 255.257 113.542 256.604 113.845C257.962 114.147 259.061 114.509 259.9 114.929C260.74 115.349 261.36 115.856 261.761 116.452C262.171 117.038 262.376 117.756 262.376 118.605C262.376 120.021 261.81 121.159 260.677 122.019C259.544 122.868 258.074 123.293 256.268 123.293C254.998 123.293 253.875 123.068 252.898 122.619C251.922 122.17 251.155 121.545 250.599 120.744C250.052 119.934 249.778 119.06 249.778 118.122H252.488C252.537 119.03 252.898 119.753 253.572 120.29C254.256 120.817 255.154 121.081 256.268 121.081C257.293 121.081 258.113 120.876 258.729 120.466C259.354 120.046 259.666 119.489 259.666 118.796Z" fill="black"/>
<rect x="19.5" y="65.5" width="84" height="78" fill="#EAEAEA" stroke="#C4C4C4"/>
<path d="M19.7142 65.6639L42.5714 86.9076" stroke="#C4C4C4"/>
<path d="M80.4286 122.092L103.286 143.336" stroke="#C4C4C4"/>
<path d="M80.4286 86.9076L103.286 65.6639" stroke="#C4C4C4"/>
<path d="M19.7142 143.336L42.5714 122.092" stroke="#C4C4C4"/>
<rect x="3.5" y="155.5" width="1436" height="732" fill="#EAEAEA" stroke="#C4C4C4"/>
<path d="M15.0768 161.16L401.497 358.269" stroke="#C4C4C4"/>
<path d="M1041.51 684.731L1427.93 881.84" stroke="#C4C4C4"/>
<path d="M1041.51 358.269L1427.93 161.16" stroke="#C4C4C4"/>
<path d="M15.0768 881.84L401.497 684.731" stroke="#C4C4C4"/>
<path d="M23.2451 940.966L23.4912 942.653L23.8516 941.133L26.3828 932.203H27.8066L30.2764 941.133L30.6279 942.68L30.9004 940.957L32.8867 932.203H34.583L31.4805 945H29.9424L27.3057 935.675L27.1035 934.699L26.9014 935.675L24.168 945H22.6299L19.5361 932.203H21.2236L23.2451 940.966ZM39.874 945.176C38.585 945.176 37.5361 944.754 36.7275 943.91C35.9189 943.061 35.5146 941.927 35.5146 940.509V940.21C35.5146 939.267 35.6934 938.426 36.0508 937.688C36.4141 936.943 36.918 936.363 37.5625 935.947C38.2129 935.525 38.916 935.314 39.6719 935.314C40.9082 935.314 41.8691 935.722 42.5547 936.536C43.2402 937.351 43.583 938.517 43.583 940.034V940.711H37.1406C37.1641 941.648 37.4365 942.407 37.958 942.987C38.4854 943.562 39.1533 943.849 39.9619 943.849C40.5361 943.849 41.0225 943.731 41.4209 943.497C41.8193 943.263 42.168 942.952 42.4668 942.565L43.46 943.339C42.6631 944.563 41.4678 945.176 39.874 945.176ZM39.6719 936.65C39.0156 936.65 38.4648 936.891 38.0195 937.371C37.5742 937.846 37.2988 938.514 37.1934 939.375H41.957V939.252C41.9102 938.426 41.6875 937.787 41.2891 937.336C40.8906 936.879 40.3516 936.65 39.6719 936.65ZM53.5234 940.351C53.5234 941.804 53.1895 942.973 52.5215 943.857C51.8535 944.736 50.957 945.176 49.832 945.176C48.6309 945.176 47.7021 944.751 47.0459 943.901L46.9668 945H45.4727V931.5H47.0986V936.536C47.7549 935.722 48.6602 935.314 49.8145 935.314C50.9688 935.314 51.874 935.751 52.5303 936.624C53.1924 937.497 53.5234 938.692 53.5234 940.21V940.351ZM51.8975 940.166C51.8975 939.059 51.6836 938.203 51.2559 937.6C50.8281 936.996 50.2129 936.694 49.4102 936.694C48.3379 936.694 47.5674 937.192 47.0986 938.188V942.302C47.5967 943.298 48.373 943.796 49.4277 943.796C50.207 943.796 50.8135 943.494 51.2471 942.891C51.6807 942.287 51.8975 941.379 51.8975 940.166ZM67.3662 941.66H62.0049L60.8008 945H59.0605L63.9473 932.203H65.4238L70.3193 945H68.5879L67.3662 941.66ZM62.5146 940.271H66.8652L64.6855 934.286L62.5146 940.271ZM79.8203 940.351C79.8203 941.798 79.4893 942.964 78.8271 943.849C78.165 944.733 77.2686 945.176 76.1377 945.176C74.9834 945.176 74.0752 944.81 73.4131 944.077V948.656H71.7871V935.49H73.2725L73.3516 936.545C74.0137 935.725 74.9336 935.314 76.1113 935.314C77.2539 935.314 78.1562 935.745 78.8184 936.606C79.4863 937.468 79.8203 938.666 79.8203 940.201V940.351ZM78.1943 940.166C78.1943 939.094 77.9658 938.247 77.5088 937.626C77.0518 937.005 76.4248 936.694 75.6279 936.694C74.6436 936.694 73.9053 937.131 73.4131 938.004V942.548C73.8994 943.415 74.6436 943.849 75.6455 943.849C76.4248 943.849 77.043 943.541 77.5 942.926C77.9629 942.305 78.1943 941.385 78.1943 940.166ZM89.9277 940.351C89.9277 941.798 89.5967 942.964 88.9346 943.849C88.2725 944.733 87.376 945.176 86.2451 945.176C85.0908 945.176 84.1826 944.81 83.5205 944.077V948.656H81.8945V935.49H83.3799L83.459 936.545C84.1211 935.725 85.041 935.314 86.2188 935.314C87.3613 935.314 88.2637 935.745 88.9258 936.606C89.5938 937.468 89.9277 938.666 89.9277 940.201V940.351ZM88.3018 940.166C88.3018 939.094 88.0732 938.247 87.6162 937.626C87.1592 937.005 86.5322 936.694 85.7354 936.694C84.751 936.694 84.0127 937.131 83.5205 938.004V942.548C84.0068 943.415 84.751 943.849 85.7529 943.849C86.5322 943.849 87.1504 943.541 87.6074 942.926C88.0703 942.305 88.3018 941.385 88.3018 940.166ZM93.7686 945H92.1426V931.5H93.7686V945ZM98.1455 945H96.5195V935.49H98.1455V945ZM96.3877 932.968C96.3877 932.704 96.4668 932.481 96.625 932.3C96.7891 932.118 97.0293 932.027 97.3457 932.027C97.6621 932.027 97.9023 932.118 98.0664 932.3C98.2305 932.481 98.3125 932.704 98.3125 932.968C98.3125 933.231 98.2305 933.451 98.0664 933.627C97.9023 933.803 97.6621 933.891 97.3457 933.891C97.0293 933.891 96.7891 933.803 96.625 933.627C96.4668 933.451 96.3877 933.231 96.3877 932.968ZM104.57 943.849C105.15 943.849 105.657 943.673 106.091 943.321C106.524 942.97 106.765 942.53 106.812 942.003H108.35C108.32 942.548 108.133 943.066 107.787 943.559C107.441 944.051 106.979 944.443 106.398 944.736C105.824 945.029 105.215 945.176 104.57 945.176C103.275 945.176 102.244 944.745 101.477 943.884C100.715 943.017 100.334 941.833 100.334 940.333V940.061C100.334 939.135 100.504 938.312 100.844 937.591C101.184 936.87 101.67 936.311 102.303 935.912C102.941 935.514 103.694 935.314 104.562 935.314C105.628 935.314 106.513 935.634 107.216 936.272C107.925 936.911 108.303 937.74 108.35 938.76H106.812C106.765 938.145 106.53 937.641 106.108 937.248C105.692 936.85 105.177 936.65 104.562 936.65C103.735 936.65 103.094 936.949 102.637 937.547C102.186 938.139 101.96 938.997 101.96 940.122V940.43C101.96 941.525 102.186 942.369 102.637 942.961C103.088 943.553 103.732 943.849 104.57 943.849ZM116.049 945C115.955 944.812 115.879 944.479 115.82 943.998C115.064 944.783 114.162 945.176 113.113 945.176C112.176 945.176 111.405 944.912 110.802 944.385C110.204 943.852 109.905 943.178 109.905 942.363C109.905 941.373 110.28 940.605 111.03 940.061C111.786 939.51 112.847 939.234 114.212 939.234H115.794V938.487C115.794 937.919 115.624 937.468 115.284 937.134C114.944 936.794 114.443 936.624 113.781 936.624C113.201 936.624 112.715 936.771 112.322 937.063C111.93 937.356 111.733 937.711 111.733 938.127H110.099C110.099 937.652 110.266 937.195 110.6 936.756C110.939 936.311 111.396 935.959 111.971 935.701C112.551 935.443 113.187 935.314 113.878 935.314C114.974 935.314 115.832 935.59 116.453 936.141C117.074 936.686 117.396 937.438 117.42 938.399V942.776C117.42 943.649 117.531 944.344 117.754 944.859V945H116.049ZM113.351 943.761C113.86 943.761 114.344 943.629 114.801 943.365C115.258 943.102 115.589 942.759 115.794 942.337V940.386H114.52C112.527 940.386 111.531 940.969 111.531 942.135C111.531 942.645 111.701 943.043 112.041 943.33C112.381 943.617 112.817 943.761 113.351 943.761ZM122.175 933.188V935.49H123.95V936.747H122.175V942.645C122.175 943.025 122.254 943.312 122.412 943.506C122.57 943.693 122.84 943.787 123.221 943.787C123.408 943.787 123.666 943.752 123.994 943.682V945C123.566 945.117 123.15 945.176 122.746 945.176C122.02 945.176 121.472 944.956 121.103 944.517C120.733 944.077 120.549 943.453 120.549 942.645V936.747H118.817V935.49H120.549V933.188H122.175ZM127.624 945H125.998V935.49H127.624V945ZM125.866 932.968C125.866 932.704 125.945 932.481 126.104 932.3C126.268 932.118 126.508 932.027 126.824 932.027C127.141 932.027 127.381 932.118 127.545 932.3C127.709 932.481 127.791 932.704 127.791 932.968C127.791 933.231 127.709 933.451 127.545 933.627C127.381 933.803 127.141 933.891 126.824 933.891C126.508 933.891 126.268 933.803 126.104 933.627C125.945 933.451 125.866 933.231 125.866 932.968ZM129.804 940.157C129.804 939.226 129.985 938.388 130.349 937.644C130.718 936.899 131.228 936.325 131.878 935.921C132.534 935.517 133.281 935.314 134.119 935.314C135.414 935.314 136.46 935.763 137.257 936.659C138.06 937.556 138.461 938.748 138.461 940.236V940.351C138.461 941.276 138.282 942.108 137.925 942.847C137.573 943.579 137.066 944.15 136.404 944.561C135.748 944.971 134.992 945.176 134.137 945.176C132.848 945.176 131.802 944.728 130.999 943.831C130.202 942.935 129.804 941.748 129.804 940.271V940.157ZM131.438 940.351C131.438 941.405 131.682 942.252 132.168 942.891C132.66 943.529 133.316 943.849 134.137 943.849C134.963 943.849 135.619 943.526 136.105 942.882C136.592 942.231 136.835 941.323 136.835 940.157C136.835 939.114 136.586 938.271 136.088 937.626C135.596 936.976 134.939 936.65 134.119 936.65C133.316 936.65 132.669 936.97 132.177 937.608C131.685 938.247 131.438 939.161 131.438 940.351ZM142.038 935.49L142.091 936.686C142.817 935.771 143.767 935.314 144.938 935.314C146.948 935.314 147.962 936.448 147.979 938.716V945H146.354V938.707C146.348 938.021 146.189 937.515 145.879 937.187C145.574 936.858 145.097 936.694 144.446 936.694C143.919 936.694 143.456 936.835 143.058 937.116C142.659 937.397 142.349 937.767 142.126 938.224V945H140.5V935.49H142.038ZM155.969 942.478C155.969 942.038 155.802 941.698 155.468 941.458C155.14 941.212 154.562 941.001 153.736 940.825C152.916 940.649 152.263 940.438 151.776 940.192C151.296 939.946 150.938 939.653 150.704 939.313C150.476 938.974 150.361 938.569 150.361 938.101C150.361 937.321 150.689 936.662 151.346 936.123C152.008 935.584 152.852 935.314 153.877 935.314C154.955 935.314 155.828 935.593 156.496 936.149C157.17 936.706 157.507 937.418 157.507 938.285H155.872C155.872 937.84 155.682 937.456 155.301 937.134C154.926 936.812 154.451 936.65 153.877 936.65C153.285 936.65 152.822 936.779 152.488 937.037C152.154 937.295 151.987 937.632 151.987 938.048C151.987 938.44 152.143 938.736 152.453 938.936C152.764 939.135 153.323 939.325 154.132 939.507C154.946 939.688 155.605 939.905 156.109 940.157C156.613 940.409 156.985 940.714 157.226 941.071C157.472 941.423 157.595 941.854 157.595 942.363C157.595 943.213 157.255 943.896 156.575 944.411C155.896 944.921 155.014 945.176 153.93 945.176C153.168 945.176 152.494 945.041 151.908 944.771C151.322 944.502 150.862 944.127 150.528 943.646C150.2 943.16 150.036 942.636 150.036 942.073H151.662C151.691 942.618 151.908 943.052 152.312 943.374C152.723 943.69 153.262 943.849 153.93 943.849C154.545 943.849 155.037 943.726 155.406 943.479C155.781 943.228 155.969 942.894 155.969 942.478ZM164.433 945V932.203H168.045C169.158 932.203 170.143 932.449 170.998 932.941C171.854 933.434 172.513 934.134 172.976 935.042C173.444 935.95 173.682 936.993 173.688 938.171V938.988C173.688 940.195 173.453 941.253 172.984 942.161C172.521 943.069 171.856 943.767 170.989 944.253C170.128 944.739 169.123 944.988 167.975 945H164.433ZM166.12 933.592V943.62H167.896C169.196 943.62 170.207 943.216 170.928 942.407C171.654 941.599 172.018 940.447 172.018 938.953V938.206C172.018 936.753 171.675 935.625 170.989 934.822C170.31 934.014 169.343 933.604 168.089 933.592H166.12ZM179.937 945.176C178.647 945.176 177.599 944.754 176.79 943.91C175.981 943.061 175.577 941.927 175.577 940.509V940.21C175.577 939.267 175.756 938.426 176.113 937.688C176.477 936.943 176.98 936.363 177.625 935.947C178.275 935.525 178.979 935.314 179.734 935.314C180.971 935.314 181.932 935.722 182.617 936.536C183.303 937.351 183.646 938.517 183.646 940.034V940.711H177.203C177.227 941.648 177.499 942.407 178.021 942.987C178.548 943.562 179.216 943.849 180.024 943.849C180.599 943.849 181.085 943.731 181.483 943.497C181.882 943.263 182.23 942.952 182.529 942.565L183.522 943.339C182.726 944.563 181.53 945.176 179.937 945.176ZM179.734 936.65C179.078 936.65 178.527 936.891 178.082 937.371C177.637 937.846 177.361 938.514 177.256 939.375H182.02V939.252C181.973 938.426 181.75 937.787 181.352 937.336C180.953 936.879 180.414 936.65 179.734 936.65ZM188.55 942.794L190.905 935.49H192.566L189.156 945H187.917L184.472 935.49H186.133L188.55 942.794ZM197.954 945.176C196.665 945.176 195.616 944.754 194.808 943.91C193.999 943.061 193.595 941.927 193.595 940.509V940.21C193.595 939.267 193.773 938.426 194.131 937.688C194.494 936.943 194.998 936.363 195.643 935.947C196.293 935.525 196.996 935.314 197.752 935.314C198.988 935.314 199.949 935.722 200.635 936.536C201.32 937.351 201.663 938.517 201.663 940.034V940.711H195.221C195.244 941.648 195.517 942.407 196.038 942.987C196.565 943.562 197.233 943.849 198.042 943.849C198.616 943.849 199.103 943.731 199.501 943.497C199.899 943.263 200.248 942.952 200.547 942.565L201.54 943.339C200.743 944.563 199.548 945.176 197.954 945.176ZM197.752 936.65C197.096 936.65 196.545 936.891 196.1 937.371C195.654 937.846 195.379 938.514 195.273 939.375H200.037V939.252C199.99 938.426 199.768 937.787 199.369 937.336C198.971 936.879 198.432 936.65 197.752 936.65ZM205.319 945H203.693V931.5H205.319V945ZM207.499 940.157C207.499 939.226 207.681 938.388 208.044 937.644C208.413 936.899 208.923 936.325 209.573 935.921C210.229 935.517 210.977 935.314 211.814 935.314C213.109 935.314 214.155 935.763 214.952 936.659C215.755 937.556 216.156 938.748 216.156 940.236V940.351C216.156 941.276 215.978 942.108 215.62 942.847C215.269 943.579 214.762 944.15 214.1 944.561C213.443 944.971 212.688 945.176 211.832 945.176C210.543 945.176 209.497 944.728 208.694 943.831C207.897 942.935 207.499 941.748 207.499 940.271V940.157ZM209.134 940.351C209.134 941.405 209.377 942.252 209.863 942.891C210.355 943.529 211.012 943.849 211.832 943.849C212.658 943.849 213.314 943.526 213.801 942.882C214.287 942.231 214.53 941.323 214.53 940.157C214.53 939.114 214.281 938.271 213.783 937.626C213.291 936.976 212.635 936.65 211.814 936.65C211.012 936.65 210.364 936.97 209.872 937.608C209.38 938.247 209.134 939.161 209.134 940.351ZM226.229 940.351C226.229 941.798 225.897 942.964 225.235 943.849C224.573 944.733 223.677 945.176 222.546 945.176C221.392 945.176 220.483 944.81 219.821 944.077V948.656H218.195V935.49H219.681L219.76 936.545C220.422 935.725 221.342 935.314 222.52 935.314C223.662 935.314 224.564 935.745 225.227 936.606C225.895 937.468 226.229 938.666 226.229 940.201V940.351ZM224.603 940.166C224.603 939.094 224.374 938.247 223.917 937.626C223.46 937.005 222.833 936.694 222.036 936.694C221.052 936.694 220.313 937.131 219.821 938.004V942.548C220.308 943.415 221.052 943.849 222.054 943.849C222.833 943.849 223.451 943.541 223.908 942.926C224.371 942.305 224.603 941.385 224.603 940.166ZM229.832 935.49L229.876 936.545C230.573 935.725 231.514 935.314 232.697 935.314C234.027 935.314 234.933 935.824 235.413 936.844C235.729 936.387 236.14 936.018 236.644 935.736C237.153 935.455 237.754 935.314 238.445 935.314C240.531 935.314 241.592 936.419 241.627 938.628V945H240.001V938.725C240.001 938.045 239.846 937.538 239.535 937.204C239.225 936.864 238.703 936.694 237.971 936.694C237.367 936.694 236.866 936.876 236.468 937.239C236.069 937.597 235.838 938.08 235.773 938.689V945H234.139V938.769C234.139 937.386 233.462 936.694 232.108 936.694C231.042 936.694 230.312 937.148 229.92 938.057V945H228.294V935.49H229.832ZM248.034 945.176C246.745 945.176 245.696 944.754 244.888 943.91C244.079 943.061 243.675 941.927 243.675 940.509V940.21C243.675 939.267 243.854 938.426 244.211 937.688C244.574 936.943 245.078 936.363 245.723 935.947C246.373 935.525 247.076 935.314 247.832 935.314C249.068 935.314 250.029 935.722 250.715 936.536C251.4 937.351 251.743 938.517 251.743 940.034V940.711H245.301C245.324 941.648 245.597 942.407 246.118 942.987C246.646 943.562 247.313 943.849 248.122 943.849C248.696 943.849 249.183 943.731 249.581 943.497C249.979 943.263 250.328 942.952 250.627 942.565L251.62 943.339C250.823 944.563 249.628 945.176 248.034 945.176ZM247.832 936.65C247.176 936.65 246.625 936.891 246.18 937.371C245.734 937.846 245.459 938.514 245.354 939.375H250.117V939.252C250.07 938.426 249.848 937.787 249.449 937.336C249.051 936.879 248.512 936.65 247.832 936.65ZM255.171 935.49L255.224 936.686C255.95 935.771 256.899 935.314 258.071 935.314C260.081 935.314 261.095 936.448 261.112 938.716V945H259.486V938.707C259.48 938.021 259.322 937.515 259.012 937.187C258.707 936.858 258.229 936.694 257.579 936.694C257.052 936.694 256.589 936.835 256.19 937.116C255.792 937.397 255.481 937.767 255.259 938.224V945H253.633V935.49H255.171ZM265.771 933.188V935.49H267.546V936.747H265.771V942.645C265.771 943.025 265.85 943.312 266.008 943.506C266.166 943.693 266.436 943.787 266.816 943.787C267.004 943.787 267.262 943.752 267.59 943.682V945C267.162 945.117 266.746 945.176 266.342 945.176C265.615 945.176 265.067 944.956 264.698 944.517C264.329 944.077 264.145 943.453 264.145 942.645V936.747H262.413V935.49H264.145V933.188H265.771Z" fill="#959595"/>
<g filter="url(#filter0_d)">
<rect x="309" y="270" width="905" height="484" rx="4" fill="white"/>
<rect x="309.5" y="270.5" width="904" height="483" rx="3.5" stroke="#D4D4D4"/>
</g>
<path fill-rule="evenodd" clip-rule="evenodd" d="M616 449C616 446.239 618.239 444 621 444H901C903.761 444 906 446.239 906 449V520C906 522.761 903.761 525 901 525H621C618.239 525 616 522.761 616 520V449Z" fill="#525252"/>
<path d="M675.244 484.668C674.986 487.398 673.979 489.531 672.221 491.066C670.463 492.59 668.125 493.352 665.207 493.352C663.168 493.352 661.369 492.871 659.811 491.91C658.264 490.938 657.068 489.561 656.225 487.779C655.381 485.998 654.941 483.93 654.906 481.574V479.184C654.906 476.77 655.334 474.643 656.189 472.803C657.045 470.963 658.27 469.545 659.863 468.549C661.469 467.553 663.32 467.055 665.418 467.055C668.242 467.055 670.516 467.822 672.238 469.357C673.961 470.893 674.963 473.061 675.244 475.861H670.814C670.604 474.021 670.064 472.697 669.197 471.889C668.342 471.068 667.082 470.658 665.418 470.658C663.484 470.658 661.996 471.367 660.953 472.785C659.922 474.191 659.395 476.26 659.371 478.99V481.258C659.371 484.023 659.863 486.133 660.848 487.586C661.844 489.039 663.297 489.766 665.207 489.766C666.953 489.766 668.266 489.373 669.145 488.588C670.023 487.803 670.58 486.496 670.814 484.668H675.244ZM688.779 477.883C688.217 477.789 687.637 477.742 687.039 477.742C685.082 477.742 683.764 478.492 683.084 479.992V493H678.812V473.98H682.891L682.996 476.107C684.027 474.455 685.457 473.629 687.285 473.629C687.895 473.629 688.398 473.711 688.797 473.875L688.779 477.883ZM699.502 493.352C696.795 493.352 694.598 492.502 692.91 490.803C691.234 489.092 690.396 486.818 690.396 483.982V483.455C690.396 481.557 690.76 479.863 691.486 478.375C692.225 476.875 693.256 475.709 694.58 474.877C695.904 474.045 697.381 473.629 699.01 473.629C701.6 473.629 703.598 474.455 705.004 476.107C706.422 477.76 707.131 480.098 707.131 483.121V484.844H694.703C694.832 486.414 695.354 487.656 696.268 488.57C697.193 489.484 698.354 489.941 699.748 489.941C701.705 489.941 703.299 489.15 704.529 487.568L706.832 489.766C706.07 490.902 705.051 491.787 703.773 492.42C702.508 493.041 701.084 493.352 699.502 493.352ZM698.992 477.057C697.82 477.057 696.871 477.467 696.145 478.287C695.43 479.107 694.973 480.25 694.773 481.715H702.912V481.398C702.818 479.969 702.438 478.891 701.77 478.164C701.102 477.426 700.176 477.057 698.992 477.057ZM721.826 493C721.639 492.637 721.475 492.045 721.334 491.225C719.975 492.643 718.311 493.352 716.342 493.352C714.432 493.352 712.873 492.807 711.666 491.717C710.459 490.627 709.855 489.279 709.855 487.674C709.855 485.646 710.605 484.094 712.105 483.016C713.617 481.926 715.773 481.381 718.574 481.381H721.193V480.133C721.193 479.148 720.918 478.363 720.367 477.777C719.816 477.18 718.979 476.881 717.854 476.881C716.881 476.881 716.084 477.127 715.463 477.619C714.842 478.1 714.531 478.715 714.531 479.465H710.26C710.26 478.422 710.605 477.449 711.297 476.547C711.988 475.633 712.926 474.918 714.109 474.402C715.305 473.887 716.635 473.629 718.1 473.629C720.326 473.629 722.102 474.191 723.426 475.316C724.75 476.43 725.43 478 725.465 480.027V488.605C725.465 490.316 725.705 491.682 726.186 492.701V493H721.826ZM717.133 489.924C717.977 489.924 718.768 489.719 719.506 489.309C720.256 488.898 720.818 488.348 721.193 487.656V484.07H718.891C717.309 484.07 716.119 484.346 715.322 484.896C714.525 485.447 714.127 486.227 714.127 487.234C714.127 488.055 714.396 488.711 714.936 489.203C715.486 489.684 716.219 489.924 717.133 489.924ZM735.291 469.357V473.98H738.648V477.145H735.291V487.762C735.291 488.488 735.432 489.016 735.713 489.344C736.006 489.66 736.521 489.818 737.26 489.818C737.752 489.818 738.25 489.76 738.754 489.643V492.947C737.781 493.217 736.844 493.352 735.941 493.352C732.66 493.352 731.02 491.541 731.02 487.92V477.145H727.891V473.98H731.02V469.357H735.291ZM750.303 493.352C747.596 493.352 745.398 492.502 743.711 490.803C742.035 489.092 741.197 486.818 741.197 483.982V483.455C741.197 481.557 741.561 479.863 742.287 478.375C743.025 476.875 744.057 475.709 745.381 474.877C746.705 474.045 748.182 473.629 749.811 473.629C752.4 473.629 754.398 474.455 755.805 476.107C757.223 477.76 757.932 480.098 757.932 483.121V484.844H745.504C745.633 486.414 746.154 487.656 747.068 488.57C747.994 489.484 749.154 489.941 750.549 489.941C752.506 489.941 754.1 489.15 755.33 487.568L757.633 489.766C756.871 490.902 755.852 491.787 754.574 492.42C753.309 493.041 751.885 493.352 750.303 493.352ZM749.793 477.057C748.621 477.057 747.672 477.467 746.945 478.287C746.23 479.107 745.773 480.25 745.574 481.715H753.713V481.398C753.619 479.969 753.238 478.891 752.57 478.164C751.902 477.426 750.977 477.057 749.793 477.057ZM776.406 467.406L783.789 487.023L791.154 467.406H796.902V493H792.473V484.562L792.912 473.277L785.354 493H782.172L774.631 473.295L775.07 484.562V493H770.641V467.406H776.406ZM813.127 493C812.939 492.637 812.775 492.045 812.635 491.225C811.275 492.643 809.611 493.352 807.643 493.352C805.732 493.352 804.174 492.807 802.967 491.717C801.76 490.627 801.156 489.279 801.156 487.674C801.156 485.646 801.906 484.094 803.406 483.016C804.918 481.926 807.074 481.381 809.875 481.381H812.494V480.133C812.494 479.148 812.219 478.363 811.668 477.777C811.117 477.18 810.279 476.881 809.154 476.881C808.182 476.881 807.385 477.127 806.764 477.619C806.143 478.1 805.832 478.715 805.832 479.465H801.561C801.561 478.422 801.906 477.449 802.598 476.547C803.289 475.633 804.227 474.918 805.41 474.402C806.605 473.887 807.936 473.629 809.4 473.629C811.627 473.629 813.402 474.191 814.727 475.316C816.051 476.43 816.73 478 816.766 480.027V488.605C816.766 490.316 817.006 491.682 817.486 492.701V493H813.127ZM808.434 489.924C809.277 489.924 810.068 489.719 810.807 489.309C811.557 488.898 812.119 488.348 812.494 487.656V484.07H810.191C808.609 484.07 807.42 484.346 806.623 484.896C805.826 485.447 805.428 486.227 805.428 487.234C805.428 488.055 805.697 488.711 806.236 489.203C806.787 489.684 807.52 489.924 808.434 489.924ZM826.592 469.357V473.98H829.949V477.145H826.592V487.762C826.592 488.488 826.732 489.016 827.014 489.344C827.307 489.66 827.822 489.818 828.561 489.818C829.053 489.818 829.551 489.76 830.055 489.643V492.947C829.082 493.217 828.145 493.352 827.242 493.352C823.961 493.352 822.32 491.541 822.32 487.92V477.145H819.191V473.98H822.32V469.357H826.592ZM841.041 489.941C842.107 489.941 842.992 489.631 843.695 489.01C844.398 488.389 844.773 487.621 844.82 486.707H848.846C848.799 487.891 848.43 488.998 847.738 490.029C847.047 491.049 846.109 491.857 844.926 492.455C843.742 493.053 842.465 493.352 841.094 493.352C838.434 493.352 836.324 492.49 834.766 490.768C833.207 489.045 832.428 486.666 832.428 483.631V483.191C832.428 480.297 833.201 477.982 834.748 476.248C836.295 474.502 838.404 473.629 841.076 473.629C843.338 473.629 845.178 474.291 846.596 475.615C848.025 476.928 848.775 478.656 848.846 480.801H844.82C844.773 479.711 844.398 478.814 843.695 478.111C843.004 477.408 842.119 477.057 841.041 477.057C839.658 477.057 838.592 477.561 837.842 478.568C837.092 479.564 836.711 481.082 836.699 483.121V483.807C836.699 485.869 837.068 487.41 837.807 488.43C838.557 489.438 839.635 489.941 841.041 489.941ZM856.281 476.055C857.676 474.438 859.439 473.629 861.572 473.629C865.627 473.629 867.684 475.943 867.742 480.572V493H863.471V480.73C863.471 479.418 863.184 478.492 862.609 477.953C862.047 477.402 861.215 477.127 860.113 477.127C858.402 477.127 857.125 477.889 856.281 479.412V493H852.01V466H856.281V476.055Z" fill="white"/>
<path fill-rule="evenodd" clip-rule="evenodd" d="M617 581C617 578.239 619.239 576 622 576H900C902.761 576 905 578.239 905 581V652C905 654.761 902.761 657 900 657H622C619.239 657 617 654.761 617 652V581Z" fill="#525252"/>
<path d="M684.297 599.406H688.727V617.354C688.727 619.803 687.959 621.748 686.424 623.189C684.9 624.631 682.885 625.352 680.377 625.352C677.705 625.352 675.643 624.678 674.189 623.33C672.736 621.982 672.01 620.107 672.01 617.705H676.439C676.439 619.064 676.773 620.09 677.441 620.781C678.121 621.461 679.1 621.801 680.377 621.801C681.572 621.801 682.521 621.408 683.225 620.623C683.939 619.826 684.297 618.73 684.297 617.336V599.406ZM692.611 615.314C692.611 613.451 692.98 611.775 693.719 610.287C694.457 608.787 695.494 607.639 696.83 606.842C698.166 606.033 699.701 605.629 701.436 605.629C704.002 605.629 706.082 606.455 707.676 608.107C709.281 609.76 710.148 611.951 710.277 614.682L710.295 615.684C710.295 617.559 709.932 619.234 709.205 620.711C708.49 622.188 707.459 623.33 706.111 624.139C704.775 624.947 703.229 625.352 701.471 625.352C698.787 625.352 696.637 624.461 695.02 622.68C693.414 620.887 692.611 618.502 692.611 615.525V615.314ZM696.883 615.684C696.883 617.641 697.287 619.176 698.096 620.289C698.904 621.391 700.029 621.941 701.471 621.941C702.912 621.941 704.031 621.379 704.828 620.254C705.637 619.129 706.041 617.482 706.041 615.314C706.041 613.393 705.625 611.869 704.793 610.744C703.973 609.619 702.854 609.057 701.436 609.057C700.041 609.057 698.934 609.613 698.113 610.727C697.293 611.828 696.883 613.48 696.883 615.684ZM718.451 625H714.18V605.98H718.451V625ZM713.916 601.041C713.916 600.385 714.121 599.84 714.531 599.406C714.953 598.973 715.551 598.756 716.324 598.756C717.098 598.756 717.695 598.973 718.117 599.406C718.539 599.84 718.75 600.385 718.75 601.041C718.75 601.686 718.539 602.225 718.117 602.658C717.695 603.08 717.098 603.291 716.324 603.291C715.551 603.291 714.953 603.08 714.531 602.658C714.121 602.225 713.916 601.686 713.916 601.041ZM727.082 605.98L727.205 608.178C728.611 606.479 730.457 605.629 732.742 605.629C736.703 605.629 738.719 607.896 738.789 612.432V625H734.518V612.678C734.518 611.471 734.254 610.58 733.727 610.006C733.211 609.42 732.361 609.127 731.178 609.127C729.455 609.127 728.172 609.906 727.328 611.465V625H723.057V605.98H727.082ZM758.301 599.406L765.684 619.023L773.049 599.406H778.797V625H774.367V616.562L774.807 605.277L767.248 625H764.066L756.525 605.295L756.965 616.562V625H752.535V599.406H758.301ZM795.021 625C794.834 624.637 794.67 624.045 794.529 623.225C793.17 624.643 791.506 625.352 789.537 625.352C787.627 625.352 786.068 624.807 784.861 623.717C783.654 622.627 783.051 621.279 783.051 619.674C783.051 617.646 783.801 616.094 785.301 615.016C786.812 613.926 788.969 613.381 791.77 613.381H794.389V612.133C794.389 611.148 794.113 610.363 793.562 609.777C793.012 609.18 792.174 608.881 791.049 608.881C790.076 608.881 789.279 609.127 788.658 609.619C788.037 610.1 787.727 610.715 787.727 611.465H783.455C783.455 610.422 783.801 609.449 784.492 608.547C785.184 607.633 786.121 606.918 787.305 606.402C788.5 605.887 789.83 605.629 791.295 605.629C793.521 605.629 795.297 606.191 796.621 607.316C797.945 608.43 798.625 610 798.66 612.027V620.605C798.66 622.316 798.9 623.682 799.381 624.701V625H795.021ZM790.328 621.924C791.172 621.924 791.963 621.719 792.701 621.309C793.451 620.898 794.014 620.348 794.389 619.656V616.07H792.086C790.504 616.07 789.314 616.346 788.518 616.896C787.721 617.447 787.322 618.227 787.322 619.234C787.322 620.055 787.592 620.711 788.131 621.203C788.682 621.684 789.414 621.924 790.328 621.924ZM808.486 601.357V605.98H811.844V609.145H808.486V619.762C808.486 620.488 808.627 621.016 808.908 621.344C809.201 621.66 809.717 621.818 810.455 621.818C810.947 621.818 811.445 621.76 811.949 621.643V624.947C810.977 625.217 810.039 625.352 809.137 625.352C805.855 625.352 804.215 623.541 804.215 619.92V609.145H801.086V605.98H804.215V601.357H808.486ZM822.936 621.941C824.002 621.941 824.887 621.631 825.59 621.01C826.293 620.389 826.668 619.621 826.715 618.707H830.74C830.693 619.891 830.324 620.998 829.633 622.029C828.941 623.049 828.004 623.857 826.82 624.455C825.637 625.053 824.359 625.352 822.988 625.352C820.328 625.352 818.219 624.49 816.66 622.768C815.102 621.045 814.322 618.666 814.322 615.631V615.191C814.322 612.297 815.096 609.982 816.643 608.248C818.189 606.502 820.299 605.629 822.971 605.629C825.232 605.629 827.072 606.291 828.49 607.615C829.92 608.928 830.67 610.656 830.74 612.801H826.715C826.668 611.711 826.293 610.814 825.59 610.111C824.898 609.408 824.014 609.057 822.936 609.057C821.553 609.057 820.486 609.561 819.736 610.568C818.986 611.564 818.605 613.082 818.594 615.121V615.807C818.594 617.869 818.963 619.41 819.701 620.43C820.451 621.438 821.529 621.941 822.936 621.941ZM838.176 608.055C839.57 606.438 841.334 605.629 843.467 605.629C847.521 605.629 849.578 607.943 849.637 612.572V625H845.365V612.73C845.365 611.418 845.078 610.492 844.504 609.953C843.941 609.402 843.109 609.127 842.008 609.127C840.297 609.127 839.02 609.889 838.176 611.412V625H833.904V598H838.176V608.055Z" fill="white"/>
<g filter="url(#filter1_d)">
<path d="M649.979 365.408C649.979 364.283 649.58 363.416 648.783 362.807C647.998 362.197 646.574 361.582 644.512 360.961C642.449 360.34 640.809 359.648 639.59 358.887C637.258 357.422 636.092 355.512 636.092 353.156C636.092 351.094 636.93 349.395 638.605 348.059C640.293 346.723 642.479 346.055 645.162 346.055C646.943 346.055 648.531 346.383 649.926 347.039C651.32 347.695 652.416 348.633 653.213 349.852C654.01 351.059 654.408 352.4 654.408 353.877H649.979C649.979 352.541 649.557 351.498 648.713 350.748C647.881 349.986 646.686 349.605 645.127 349.605C643.674 349.605 642.543 349.916 641.734 350.537C640.938 351.158 640.539 352.025 640.539 353.139C640.539 354.076 640.973 354.861 641.84 355.494C642.707 356.115 644.137 356.725 646.129 357.322C648.121 357.908 649.721 358.582 650.928 359.344C652.135 360.094 653.02 360.961 653.582 361.945C654.145 362.918 654.426 364.061 654.426 365.373C654.426 367.506 653.605 369.205 651.965 370.471C650.336 371.725 648.121 372.352 645.32 372.352C643.469 372.352 641.764 372.012 640.205 371.332C638.658 370.641 637.451 369.691 636.584 368.484C635.729 367.277 635.301 365.871 635.301 364.266H639.748C639.748 365.719 640.229 366.844 641.189 367.641C642.15 368.438 643.527 368.836 645.32 368.836C646.867 368.836 648.027 368.525 648.801 367.904C649.586 367.271 649.979 366.439 649.979 365.408ZM663.268 348.357V352.98H666.625V356.145H663.268V366.762C663.268 367.488 663.408 368.016 663.689 368.344C663.982 368.66 664.498 368.818 665.236 368.818C665.729 368.818 666.227 368.76 666.73 368.643V371.947C665.758 372.217 664.82 372.352 663.918 372.352C660.637 372.352 658.996 370.541 658.996 366.92V356.145H655.867V352.98H658.996V348.357H663.268ZM681.268 372C681.08 371.637 680.916 371.045 680.775 370.225C679.416 371.643 677.752 372.352 675.783 372.352C673.873 372.352 672.314 371.807 671.107 370.717C669.9 369.627 669.297 368.279 669.297 366.674C669.297 364.646 670.047 363.094 671.547 362.016C673.059 360.926 675.215 360.381 678.016 360.381H680.635V359.133C680.635 358.148 680.359 357.363 679.809 356.777C679.258 356.18 678.42 355.881 677.295 355.881C676.322 355.881 675.525 356.127 674.904 356.619C674.283 357.1 673.973 357.715 673.973 358.465H669.701C669.701 357.422 670.047 356.449 670.738 355.547C671.43 354.633 672.367 353.918 673.551 353.402C674.746 352.887 676.076 352.629 677.541 352.629C679.768 352.629 681.543 353.191 682.867 354.316C684.191 355.43 684.871 357 684.906 359.027V367.605C684.906 369.316 685.146 370.682 685.627 371.701V372H681.268ZM676.574 368.924C677.418 368.924 678.209 368.719 678.947 368.309C679.697 367.898 680.26 367.348 680.635 366.656V363.07H678.332C676.75 363.07 675.561 363.346 674.764 363.896C673.967 364.447 673.568 365.227 673.568 366.234C673.568 367.055 673.838 367.711 674.377 368.203C674.928 368.684 675.66 368.924 676.574 368.924ZM699.338 356.883C698.775 356.789 698.195 356.742 697.598 356.742C695.641 356.742 694.322 357.492 693.643 358.992V372H689.371V352.98H693.449L693.555 355.107C694.586 353.455 696.016 352.629 697.844 352.629C698.453 352.629 698.957 352.711 699.355 352.875L699.338 356.883ZM708.268 348.357V352.98H711.625V356.145H708.268V366.762C708.268 367.488 708.408 368.016 708.689 368.344C708.982 368.66 709.498 368.818 710.236 368.818C710.729 368.818 711.227 368.76 711.73 368.643V371.947C710.758 372.217 709.82 372.352 708.918 372.352C705.637 372.352 703.996 370.541 703.996 366.92V356.145H700.867V352.98H703.996V348.357H708.268ZM728.729 362.49V372H724.281V346.406H734.072C736.932 346.406 739.199 347.15 740.875 348.639C742.562 350.127 743.406 352.096 743.406 354.545C743.406 357.053 742.58 359.004 740.928 360.398C739.287 361.793 736.984 362.49 734.02 362.49H728.729ZM728.729 358.922H734.072C735.654 358.922 736.861 358.553 737.693 357.814C738.525 357.064 738.941 355.986 738.941 354.58C738.941 353.197 738.52 352.096 737.676 351.275C736.832 350.443 735.672 350.016 734.195 349.992H728.729V358.922ZM751.439 372H747.168V345H751.439V372ZM767.471 372C767.283 371.637 767.119 371.045 766.979 370.225C765.619 371.643 763.955 372.352 761.986 372.352C760.076 372.352 758.518 371.807 757.311 370.717C756.104 369.627 755.5 368.279 755.5 366.674C755.5 364.646 756.25 363.094 757.75 362.016C759.262 360.926 761.418 360.381 764.219 360.381H766.838V359.133C766.838 358.148 766.562 357.363 766.012 356.777C765.461 356.18 764.623 355.881 763.498 355.881C762.525 355.881 761.729 356.127 761.107 356.619C760.486 357.1 760.176 357.715 760.176 358.465H755.904C755.904 357.422 756.25 356.449 756.941 355.547C757.633 354.633 758.57 353.918 759.754 353.402C760.949 352.887 762.279 352.629 763.744 352.629C765.971 352.629 767.746 353.191 769.07 354.316C770.395 355.43 771.074 357 771.109 359.027V367.605C771.109 369.316 771.35 370.682 771.83 371.701V372H767.471ZM762.777 368.924C763.621 368.924 764.412 368.719 765.15 368.309C765.9 367.898 766.463 367.348 766.838 366.656V363.07H764.535C762.953 363.07 761.764 363.346 760.967 363.896C760.17 364.447 759.771 365.227 759.771 366.234C759.771 367.055 760.041 367.711 760.58 368.203C761.131 368.684 761.863 368.924 762.777 368.924ZM781.955 365.883L785.822 352.98H790.375L782.816 374.883C781.656 378.082 779.688 379.682 776.91 379.682C776.289 379.682 775.604 379.576 774.854 379.365V376.061L775.662 376.113C776.74 376.113 777.549 375.914 778.088 375.516C778.639 375.129 779.072 374.473 779.389 373.547L780.004 371.912L773.324 352.98H777.93L781.955 365.883ZM797.389 372H793.117V352.98H797.389V372ZM792.854 348.041C792.854 347.385 793.059 346.84 793.469 346.406C793.891 345.973 794.488 345.756 795.262 345.756C796.035 345.756 796.633 345.973 797.055 346.406C797.477 346.84 797.688 347.385 797.688 348.041C797.688 348.686 797.477 349.225 797.055 349.658C796.633 350.08 796.035 350.291 795.262 350.291C794.488 350.291 793.891 350.08 793.469 349.658C793.059 349.225 792.854 348.686 792.854 348.041ZM806.02 352.98L806.143 355.178C807.549 353.479 809.395 352.629 811.68 352.629C815.641 352.629 817.656 354.896 817.727 359.432V372H813.455V359.678C813.455 358.471 813.191 357.58 812.664 357.006C812.148 356.42 811.299 356.127 810.115 356.127C808.393 356.127 807.109 356.906 806.266 358.465V372H801.994V352.98H806.02ZM821.348 362.35C821.348 359.396 822.039 357.041 823.422 355.283C824.816 353.514 826.662 352.629 828.959 352.629C831.127 352.629 832.832 353.385 834.074 354.896L834.268 352.98H838.117V371.42C838.117 373.916 837.338 375.885 835.779 377.326C834.232 378.768 832.141 379.488 829.504 379.488C828.109 379.488 826.744 379.195 825.408 378.609C824.084 378.035 823.076 377.279 822.385 376.342L824.406 373.775C825.719 375.334 827.336 376.113 829.258 376.113C830.676 376.113 831.795 375.727 832.615 374.953C833.436 374.191 833.846 373.066 833.846 371.578V370.295C832.615 371.666 830.975 372.352 828.924 372.352C826.697 372.352 824.875 371.467 823.457 369.697C822.051 367.928 821.348 365.479 821.348 362.35ZM825.602 362.719C825.602 364.629 825.988 366.135 826.762 367.236C827.547 368.326 828.631 368.871 830.014 368.871C831.736 368.871 833.014 368.133 833.846 366.656V358.289C833.037 356.848 831.771 356.127 830.049 356.127C828.643 356.127 827.547 356.684 826.762 357.797C825.988 358.91 825.602 360.551 825.602 362.719ZM847.047 364.459H843.373L842.969 346.406H847.469L847.047 364.459ZM842.846 369.979C842.846 369.311 843.062 368.76 843.496 368.326C843.93 367.881 844.521 367.658 845.271 367.658C846.021 367.658 846.613 367.881 847.047 368.326C847.48 368.76 847.697 369.311 847.697 369.979C847.697 370.623 847.486 371.162 847.064 371.596C846.643 372.029 846.045 372.246 845.271 372.246C844.498 372.246 843.9 372.029 843.479 371.596C843.057 371.162 842.846 370.623 842.846 369.979Z" fill="black"/>
</g>
<g filter="url(#filter2_d)">
<rect x="351" y="315" width="782" height="394" rx="4" fill="white"/>
<rect x="351.5" y="315.5" width="781" height="393" rx="3.5" stroke="#D4D4D4"/>
</g>
<g filter="url(#filter3_d)">
<path d="M643.986 386.672L647.924 367.406H652.336L646.43 393H642.176L637.307 374.314L632.332 393H628.061L622.154 367.406H626.566L630.539 386.637L635.426 367.406H639.152L643.986 386.672ZM662.988 393.352C660.281 393.352 658.084 392.502 656.396 390.803C654.721 389.092 653.883 386.818 653.883 383.982V383.455C653.883 381.557 654.246 379.863 654.973 378.375C655.711 376.875 656.742 375.709 658.066 374.877C659.391 374.045 660.867 373.629 662.496 373.629C665.086 373.629 667.084 374.455 668.49 376.107C669.908 377.76 670.617 380.098 670.617 383.121V384.844H658.189C658.318 386.414 658.84 387.656 659.754 388.57C660.68 389.484 661.84 389.941 663.234 389.941C665.191 389.941 666.785 389.15 668.016 387.568L670.318 389.766C669.557 390.902 668.537 391.787 667.26 392.42C665.994 393.041 664.57 393.352 662.988 393.352ZM662.479 377.057C661.307 377.057 660.357 377.467 659.631 378.287C658.916 379.107 658.459 380.25 658.26 381.715H666.398V381.398C666.305 379.969 665.924 378.891 665.256 378.164C664.588 377.426 663.662 377.057 662.479 377.057ZM678.492 393H674.221V366H678.492V393ZM690.973 389.941C692.039 389.941 692.924 389.631 693.627 389.01C694.33 388.389 694.705 387.621 694.752 386.707H698.777C698.73 387.891 698.361 388.998 697.67 390.029C696.979 391.049 696.041 391.857 694.857 392.455C693.674 393.053 692.396 393.352 691.025 393.352C688.365 393.352 686.256 392.49 684.697 390.768C683.139 389.045 682.359 386.666 682.359 383.631V383.191C682.359 380.297 683.133 377.982 684.68 376.248C686.227 374.502 688.336 373.629 691.008 373.629C693.27 373.629 695.109 374.291 696.527 375.615C697.957 376.928 698.707 378.656 698.777 380.801H694.752C694.705 379.711 694.33 378.814 693.627 378.111C692.936 377.408 692.051 377.057 690.973 377.057C689.59 377.057 688.523 377.561 687.773 378.568C687.023 379.564 686.643 381.082 686.631 383.121V383.807C686.631 385.869 687 387.41 687.738 388.43C688.488 389.438 689.566 389.941 690.973 389.941ZM701.203 383.314C701.203 381.451 701.572 379.775 702.311 378.287C703.049 376.787 704.086 375.639 705.422 374.842C706.758 374.033 708.293 373.629 710.027 373.629C712.594 373.629 714.674 374.455 716.268 376.107C717.873 377.76 718.74 379.951 718.869 382.682L718.887 383.684C718.887 385.559 718.523 387.234 717.797 388.711C717.082 390.188 716.051 391.33 714.703 392.139C713.367 392.947 711.82 393.352 710.062 393.352C707.379 393.352 705.229 392.461 703.611 390.68C702.006 388.887 701.203 386.502 701.203 383.525V383.314ZM705.475 383.684C705.475 385.641 705.879 387.176 706.688 388.289C707.496 389.391 708.621 389.941 710.062 389.941C711.504 389.941 712.623 389.379 713.42 388.254C714.229 387.129 714.633 385.482 714.633 383.314C714.633 381.393 714.217 379.869 713.385 378.744C712.564 377.619 711.445 377.057 710.027 377.057C708.633 377.057 707.525 377.613 706.705 378.727C705.885 379.828 705.475 381.48 705.475 383.684ZM726.516 373.98L726.639 375.967C727.975 374.408 729.803 373.629 732.123 373.629C734.666 373.629 736.406 374.602 737.344 376.547C738.727 374.602 740.672 373.629 743.18 373.629C745.277 373.629 746.836 374.209 747.855 375.369C748.887 376.529 749.414 378.24 749.438 380.502V393H745.166V380.625C745.166 379.418 744.902 378.533 744.375 377.971C743.848 377.408 742.975 377.127 741.756 377.127C740.783 377.127 739.986 377.391 739.365 377.918C738.756 378.434 738.328 379.113 738.082 379.957L738.1 393H733.828V380.484C733.77 378.246 732.627 377.127 730.4 377.127C728.689 377.127 727.477 377.824 726.762 379.219V393H722.49V373.98H726.516ZM762.199 393.352C759.492 393.352 757.295 392.502 755.607 390.803C753.932 389.092 753.094 386.818 753.094 383.982V383.455C753.094 381.557 753.457 379.863 754.184 378.375C754.922 376.875 755.953 375.709 757.277 374.877C758.602 374.045 760.078 373.629 761.707 373.629C764.297 373.629 766.295 374.455 767.701 376.107C769.119 377.76 769.828 380.098 769.828 383.121V384.844H757.4C757.529 386.414 758.051 387.656 758.965 388.57C759.891 389.484 761.051 389.941 762.445 389.941C764.402 389.941 765.996 389.15 767.227 387.568L769.529 389.766C768.768 390.902 767.748 391.787 766.471 392.42C765.205 393.041 763.781 393.352 762.199 393.352ZM761.689 377.057C760.518 377.057 759.568 377.467 758.842 378.287C758.127 379.107 757.67 380.25 757.471 381.715H765.609V381.398C765.516 379.969 765.135 378.891 764.467 378.164C763.799 377.426 762.873 377.057 761.689 377.057ZM786.334 376.055C787.729 374.438 789.492 373.629 791.625 373.629C795.68 373.629 797.736 375.943 797.795 380.572V393H793.523V380.73C793.523 379.418 793.236 378.492 792.662 377.953C792.1 377.402 791.268 377.127 790.166 377.127C788.455 377.127 787.178 377.889 786.334 379.412V393H782.062V366H786.334V376.055ZM801.328 383.314C801.328 381.451 801.697 379.775 802.436 378.287C803.174 376.787 804.211 375.639 805.547 374.842C806.883 374.033 808.418 373.629 810.152 373.629C812.719 373.629 814.799 374.455 816.393 376.107C817.998 377.76 818.865 379.951 818.994 382.682L819.012 383.684C819.012 385.559 818.648 387.234 817.922 388.711C817.207 390.188 816.176 391.33 814.828 392.139C813.492 392.947 811.945 393.352 810.188 393.352C807.504 393.352 805.354 392.461 803.736 390.68C802.131 388.887 801.328 386.502 801.328 383.525V383.314ZM805.6 383.684C805.6 385.641 806.004 387.176 806.812 388.289C807.621 389.391 808.746 389.941 810.188 389.941C811.629 389.941 812.748 389.379 813.545 388.254C814.354 387.129 814.758 385.482 814.758 383.314C814.758 381.393 814.342 379.869 813.51 378.744C812.689 377.619 811.57 377.057 810.152 377.057C808.758 377.057 807.65 377.613 806.83 378.727C806.01 379.828 805.6 381.48 805.6 383.684ZM833.285 387.832C833.285 387.07 832.969 386.49 832.336 386.092C831.715 385.693 830.678 385.342 829.225 385.037C827.771 384.732 826.559 384.346 825.586 383.877C823.453 382.846 822.387 381.352 822.387 379.395C822.387 377.754 823.078 376.383 824.461 375.281C825.844 374.18 827.602 373.629 829.734 373.629C832.008 373.629 833.842 374.191 835.236 375.316C836.643 376.441 837.346 377.9 837.346 379.693H833.074C833.074 378.873 832.77 378.193 832.16 377.654C831.551 377.104 830.742 376.828 829.734 376.828C828.797 376.828 828.029 377.045 827.432 377.479C826.846 377.912 826.553 378.492 826.553 379.219C826.553 379.875 826.828 380.385 827.379 380.748C827.93 381.111 829.043 381.48 830.719 381.855C832.395 382.219 833.707 382.658 834.656 383.174C835.617 383.678 836.326 384.287 836.783 385.002C837.252 385.717 837.486 386.584 837.486 387.604C837.486 389.314 836.777 390.703 835.359 391.77C833.941 392.824 832.084 393.352 829.787 393.352C828.229 393.352 826.84 393.07 825.621 392.508C824.402 391.945 823.453 391.172 822.773 390.188C822.094 389.203 821.754 388.143 821.754 387.006H825.902C825.961 388.014 826.342 388.793 827.045 389.344C827.748 389.883 828.68 390.152 829.84 390.152C830.965 390.152 831.82 389.941 832.406 389.52C832.992 389.086 833.285 388.523 833.285 387.832ZM846.574 369.357V373.98H849.932V377.145H846.574V387.762C846.574 388.488 846.715 389.016 846.996 389.344C847.289 389.66 847.805 389.818 848.543 389.818C849.035 389.818 849.533 389.76 850.037 389.643V392.947C849.064 393.217 848.127 393.352 847.225 393.352C843.943 393.352 842.303 391.541 842.303 387.92V377.145H839.174V373.98H842.303V369.357H846.574ZM857.736 385.459H854.062L853.658 367.406H858.158L857.736 385.459ZM853.535 390.979C853.535 390.311 853.752 389.76 854.186 389.326C854.619 388.881 855.211 388.658 855.961 388.658C856.711 388.658 857.303 388.881 857.736 389.326C858.17 389.76 858.387 390.311 858.387 390.979C858.387 391.623 858.176 392.162 857.754 392.596C857.332 393.029 856.734 393.246 855.961 393.246C855.188 393.246 854.59 393.029 854.168 392.596C853.746 392.162 853.535 391.623 853.535 390.979Z" fill="black"/>
</g>
<path fill-rule="evenodd" clip-rule="evenodd" d="M526 559C526 556.239 528.239 554 531 554H737C739.761 554 742 556.239 742 559V607C742 609.761 739.761 612 737 612H531C528.239 612 526 609.761 526 607V559Z" fill="#3241C9"/>
<path d="M591.637 586.668C591.379 589.398 590.371 591.531 588.613 593.066C586.855 594.59 584.518 595.352 581.6 595.352C579.561 595.352 577.762 594.871 576.203 593.91C574.656 592.938 573.461 591.561 572.617 589.779C571.773 587.998 571.334 585.93 571.299 583.574V581.184C571.299 578.77 571.727 576.643 572.582 574.803C573.438 572.963 574.662 571.545 576.256 570.549C577.861 569.553 579.713 569.055 581.811 569.055C584.635 569.055 586.908 569.822 588.631 571.357C590.354 572.893 591.355 575.061 591.637 577.861H587.207C586.996 576.021 586.457 574.697 585.59 573.889C584.734 573.068 583.475 572.658 581.811 572.658C579.877 572.658 578.389 573.367 577.346 574.785C576.314 576.191 575.787 578.26 575.764 580.99V583.258C575.764 586.023 576.256 588.133 577.24 589.586C578.236 591.039 579.689 591.766 581.6 591.766C583.346 591.766 584.658 591.373 585.537 590.588C586.416 589.803 586.973 588.496 587.207 586.668H591.637ZM594.414 585.314C594.414 583.451 594.783 581.775 595.521 580.287C596.26 578.787 597.297 577.639 598.633 576.842C599.969 576.033 601.504 575.629 603.238 575.629C605.805 575.629 607.885 576.455 609.479 578.107C611.084 579.76 611.951 581.951 612.08 584.682L612.098 585.684C612.098 587.559 611.734 589.234 611.008 590.711C610.293 592.188 609.262 593.33 607.914 594.139C606.578 594.947 605.031 595.352 603.273 595.352C600.59 595.352 598.439 594.461 596.822 592.68C595.217 590.887 594.414 588.502 594.414 585.525V585.314ZM598.686 585.684C598.686 587.641 599.09 589.176 599.898 590.289C600.707 591.391 601.832 591.941 603.273 591.941C604.715 591.941 605.834 591.379 606.631 590.254C607.439 589.129 607.844 587.482 607.844 585.314C607.844 583.393 607.428 581.869 606.596 580.744C605.775 579.619 604.656 579.057 603.238 579.057C601.844 579.057 600.736 579.613 599.916 580.727C599.096 581.828 598.686 583.48 598.686 585.684ZM619.674 575.98L619.797 578.178C621.203 576.479 623.049 575.629 625.334 575.629C629.295 575.629 631.311 577.896 631.381 582.432V595H627.109V582.678C627.109 581.471 626.846 580.58 626.318 580.006C625.803 579.42 624.953 579.127 623.77 579.127C622.047 579.127 620.764 579.906 619.92 581.465V595H615.648V575.98H619.674ZM636.883 595V579.145H633.982V575.98H636.883V574.68C636.895 573.191 637.211 571.914 637.832 570.848C638.453 569.781 639.332 568.979 640.469 568.439C641.605 567.9 642.971 567.631 644.564 567.631C645.502 567.631 646.398 567.73 647.254 567.93C648.121 568.129 649.018 568.381 649.943 568.686L649.293 572.219C647.676 571.656 646.199 571.375 644.863 571.375C643.562 571.375 642.619 571.662 642.033 572.236C641.447 572.799 641.154 573.648 641.154 574.785V575.98H644.898V579.145H641.154V595H636.883ZM651.965 595H647.693V575.98H651.965V595ZM666.66 579.883C666.098 579.789 665.518 579.742 664.92 579.742C662.963 579.742 661.645 580.492 660.965 581.992V595H656.693V575.98H660.771L660.877 578.107C661.908 576.455 663.338 575.629 665.166 575.629C665.775 575.629 666.279 575.711 666.678 575.875L666.66 579.883ZM673.375 575.98L673.498 577.967C674.834 576.408 676.662 575.629 678.982 575.629C681.525 575.629 683.266 576.602 684.203 578.547C685.586 576.602 687.531 575.629 690.039 575.629C692.137 575.629 693.695 576.209 694.715 577.369C695.746 578.529 696.273 580.24 696.297 582.502V595H692.025V582.625C692.025 581.418 691.762 580.533 691.234 579.971C690.707 579.408 689.834 579.127 688.615 579.127C687.643 579.127 686.846 579.391 686.225 579.918C685.615 580.434 685.188 581.113 684.941 581.957L684.959 595H680.688V582.484C680.629 580.246 679.486 579.127 677.26 579.127C675.549 579.127 674.336 579.824 673.621 581.219V595H669.35V575.98H673.375Z" fill="white"/>
<path fill-rule="evenodd" clip-rule="evenodd" d="M798 559C798 556.239 800.239 554 803 554H1009C1011.76 554 1014 556.239 1014 559V607C1014 609.761 1011.76 612 1009 612H803C800.239 612 798 609.761 798 607V559Z" fill="#CD3939"/>
<path d="M872.918 586.668C872.66 589.398 871.652 591.531 869.895 593.066C868.137 594.59 865.799 595.352 862.881 595.352C860.842 595.352 859.043 594.871 857.484 593.91C855.938 592.938 854.742 591.561 853.898 589.779C853.055 587.998 852.615 585.93 852.58 583.574V581.184C852.58 578.77 853.008 576.643 853.863 574.803C854.719 572.963 855.943 571.545 857.537 570.549C859.143 569.553 860.994 569.055 863.092 569.055C865.916 569.055 868.189 569.822 869.912 571.357C871.635 572.893 872.637 575.061 872.918 577.861H868.488C868.277 576.021 867.738 574.697 866.871 573.889C866.016 573.068 864.756 572.658 863.092 572.658C861.158 572.658 859.67 573.367 858.627 574.785C857.596 576.191 857.068 578.26 857.045 580.99V583.258C857.045 586.023 857.537 588.133 858.521 589.586C859.518 591.039 860.971 591.766 862.881 591.766C864.627 591.766 865.939 591.373 866.818 590.588C867.697 589.803 868.254 588.496 868.488 586.668H872.918ZM887.859 595C887.672 594.637 887.508 594.045 887.367 593.225C886.008 594.643 884.344 595.352 882.375 595.352C880.465 595.352 878.906 594.807 877.699 593.717C876.492 592.627 875.889 591.279 875.889 589.674C875.889 587.646 876.639 586.094 878.139 585.016C879.65 583.926 881.807 583.381 884.607 583.381H887.227V582.133C887.227 581.148 886.951 580.363 886.4 579.777C885.85 579.18 885.012 578.881 883.887 578.881C882.914 578.881 882.117 579.127 881.496 579.619C880.875 580.1 880.564 580.715 880.564 581.465H876.293C876.293 580.422 876.639 579.449 877.33 578.547C878.021 577.633 878.959 576.918 880.143 576.402C881.338 575.887 882.668 575.629 884.133 575.629C886.359 575.629 888.135 576.191 889.459 577.316C890.783 578.43 891.463 580 891.498 582.027V590.605C891.498 592.316 891.738 593.682 892.219 594.701V595H887.859ZM883.166 591.924C884.01 591.924 884.801 591.719 885.539 591.309C886.289 590.898 886.852 590.348 887.227 589.656V586.07H884.924C883.342 586.07 882.152 586.346 881.355 586.896C880.559 587.447 880.16 588.227 880.16 589.234C880.16 590.055 880.43 590.711 880.969 591.203C881.52 591.684 882.252 591.924 883.166 591.924ZM899.936 575.98L900.059 578.178C901.465 576.479 903.311 575.629 905.596 575.629C909.557 575.629 911.572 577.896 911.643 582.432V595H907.371V582.678C907.371 581.471 907.107 580.58 906.58 580.006C906.064 579.42 905.215 579.127 904.031 579.127C902.309 579.127 901.025 579.906 900.182 581.465V595H895.91V575.98H899.936ZM923.824 591.941C924.891 591.941 925.775 591.631 926.479 591.01C927.182 590.389 927.557 589.621 927.604 588.707H931.629C931.582 589.891 931.213 590.998 930.521 592.029C929.83 593.049 928.893 593.857 927.709 594.455C926.525 595.053 925.248 595.352 923.877 595.352C921.217 595.352 919.107 594.49 917.549 592.768C915.99 591.045 915.211 588.666 915.211 585.631V585.191C915.211 582.297 915.984 579.982 917.531 578.248C919.078 576.502 921.188 575.629 923.859 575.629C926.121 575.629 927.961 576.291 929.379 577.615C930.809 578.928 931.559 580.656 931.629 582.801H927.604C927.557 581.711 927.182 580.814 926.479 580.111C925.787 579.408 924.902 579.057 923.824 579.057C922.441 579.057 921.375 579.561 920.625 580.568C919.875 581.564 919.494 583.082 919.482 585.121V585.807C919.482 587.869 919.852 589.41 920.59 590.43C921.34 591.438 922.418 591.941 923.824 591.941ZM943.23 595.352C940.523 595.352 938.326 594.502 936.639 592.803C934.963 591.092 934.125 588.818 934.125 585.982V585.455C934.125 583.557 934.488 581.863 935.215 580.375C935.953 578.875 936.984 577.709 938.309 576.877C939.633 576.045 941.109 575.629 942.738 575.629C945.328 575.629 947.326 576.455 948.732 578.107C950.15 579.76 950.859 582.098 950.859 585.121V586.844H938.432C938.561 588.414 939.082 589.656 939.996 590.57C940.922 591.484 942.082 591.941 943.477 591.941C945.434 591.941 947.027 591.15 948.258 589.568L950.561 591.766C949.799 592.902 948.779 593.787 947.502 594.42C946.236 595.041 944.812 595.352 943.23 595.352ZM942.721 579.057C941.549 579.057 940.6 579.467 939.873 580.287C939.158 581.107 938.701 582.25 938.502 583.715H946.641V583.398C946.547 581.969 946.166 580.891 945.498 580.164C944.83 579.426 943.904 579.057 942.721 579.057ZM958.734 595H954.463V568H958.734V595Z" fill="white"/>
<rect x="478" y="449" width="565" height="58" rx="5" fill="white" stroke="#D4D4D4" stroke-width="2"/>
<path d="M537.883 477.17H526.791V486.24H539.676V489H523.416V463.406H539.5V466.184H526.791V474.41H537.883V477.17ZM546.443 469.98L546.549 472.371C548.002 470.543 549.9 469.629 552.244 469.629C556.264 469.629 558.291 471.896 558.326 476.432V489H555.074V476.414C555.062 475.043 554.746 474.029 554.125 473.373C553.516 472.717 552.561 472.389 551.26 472.389C550.205 472.389 549.279 472.67 548.482 473.232C547.686 473.795 547.064 474.533 546.619 475.447V489H543.367V469.98H546.443ZM567.643 465.375V469.98H571.193V472.494H567.643V484.289C567.643 485.051 567.801 485.625 568.117 486.012C568.434 486.387 568.973 486.574 569.734 486.574C570.109 486.574 570.625 486.504 571.281 486.363V489C570.426 489.234 569.594 489.352 568.785 489.352C567.332 489.352 566.236 488.912 565.498 488.033C564.76 487.154 564.391 485.906 564.391 484.289V472.494H560.928V469.98H564.391V465.375H567.643ZM582.9 489.352C580.322 489.352 578.225 488.508 576.607 486.82C574.99 485.121 574.182 482.854 574.182 480.018V479.42C574.182 477.533 574.539 475.852 575.254 474.375C575.98 472.887 576.988 471.727 578.277 470.895C579.578 470.051 580.984 469.629 582.496 469.629C584.969 469.629 586.891 470.443 588.262 472.072C589.633 473.701 590.318 476.033 590.318 479.068V480.422H577.434C577.48 482.297 578.025 483.814 579.068 484.975C580.123 486.123 581.459 486.697 583.076 486.697C584.225 486.697 585.197 486.463 585.994 485.994C586.791 485.525 587.488 484.904 588.086 484.131L590.072 485.678C588.479 488.127 586.088 489.352 582.9 489.352ZM582.496 472.301C581.184 472.301 580.082 472.781 579.191 473.742C578.301 474.691 577.75 476.027 577.539 477.75H587.066V477.504C586.973 475.852 586.527 474.574 585.73 473.672C584.934 472.758 583.855 472.301 582.496 472.301ZM603.291 472.898C602.799 472.816 602.266 472.775 601.691 472.775C599.559 472.775 598.111 473.684 597.35 475.5V489H594.098V469.98H597.262L597.314 472.178C598.381 470.479 599.893 469.629 601.85 469.629C602.482 469.629 602.963 469.711 603.291 469.875V472.898ZM626.969 487.119C625.703 488.607 623.846 489.352 621.396 489.352C619.369 489.352 617.822 488.766 616.756 487.594C615.701 486.41 615.168 484.664 615.156 482.355V469.98H618.408V482.268C618.408 485.15 619.58 486.592 621.924 486.592C624.408 486.592 626.061 485.666 626.881 483.814V469.98H630.133V489H627.039L626.969 487.119ZM646.164 483.955C646.164 483.076 645.83 482.396 645.162 481.916C644.506 481.424 643.352 481.002 641.699 480.65C640.059 480.299 638.752 479.877 637.779 479.385C636.818 478.893 636.104 478.307 635.635 477.627C635.178 476.947 634.949 476.139 634.949 475.201C634.949 473.643 635.605 472.324 636.918 471.246C638.242 470.168 639.93 469.629 641.98 469.629C644.137 469.629 645.883 470.186 647.219 471.299C648.566 472.412 649.24 473.836 649.24 475.57H645.971C645.971 474.68 645.59 473.912 644.828 473.268C644.078 472.623 643.129 472.301 641.98 472.301C640.797 472.301 639.871 472.559 639.203 473.074C638.535 473.59 638.201 474.264 638.201 475.096C638.201 475.881 638.512 476.473 639.133 476.871C639.754 477.27 640.873 477.65 642.49 478.014C644.119 478.377 645.438 478.811 646.445 479.314C647.453 479.818 648.197 480.428 648.678 481.143C649.17 481.846 649.416 482.707 649.416 483.727C649.416 485.426 648.736 486.791 647.377 487.822C646.018 488.842 644.254 489.352 642.086 489.352C640.562 489.352 639.215 489.082 638.043 488.543C636.871 488.004 635.951 487.254 635.283 486.293C634.627 485.32 634.299 484.271 634.299 483.146H637.551C637.609 484.236 638.043 485.104 638.852 485.748C639.672 486.381 640.75 486.697 642.086 486.697C643.316 486.697 644.301 486.451 645.039 485.959C645.789 485.455 646.164 484.787 646.164 483.955ZM661.545 489.352C658.967 489.352 656.869 488.508 655.252 486.82C653.635 485.121 652.826 482.854 652.826 480.018V479.42C652.826 477.533 653.184 475.852 653.898 474.375C654.625 472.887 655.633 471.727 656.922 470.895C658.223 470.051 659.629 469.629 661.141 469.629C663.613 469.629 665.535 470.443 666.906 472.072C668.277 473.701 668.963 476.033 668.963 479.068V480.422H656.078C656.125 482.297 656.67 483.814 657.713 484.975C658.768 486.123 660.104 486.697 661.721 486.697C662.869 486.697 663.842 486.463 664.639 485.994C665.436 485.525 666.133 484.904 666.73 484.131L668.717 485.678C667.123 488.127 664.732 489.352 661.545 489.352ZM661.141 472.301C659.828 472.301 658.727 472.781 657.836 473.742C656.945 474.691 656.395 476.027 656.184 477.75H665.711V477.504C665.617 475.852 665.172 474.574 664.375 473.672C663.578 472.758 662.5 472.301 661.141 472.301ZM681.936 472.898C681.443 472.816 680.91 472.775 680.336 472.775C678.203 472.775 676.756 473.684 675.994 475.5V489H672.742V469.98H675.906L675.959 472.178C677.025 470.479 678.537 469.629 680.494 469.629C681.127 469.629 681.607 469.711 681.936 469.875V472.898ZM688.018 469.98L688.123 472.371C689.576 470.543 691.475 469.629 693.818 469.629C697.838 469.629 699.865 471.896 699.9 476.432V489H696.648V476.414C696.637 475.043 696.32 474.029 695.699 473.373C695.09 472.717 694.135 472.389 692.834 472.389C691.779 472.389 690.854 472.67 690.057 473.232C689.26 473.795 688.639 474.533 688.193 475.447V489H684.941V469.98H688.018ZM716.547 489C716.359 488.625 716.207 487.957 716.09 486.996C714.578 488.566 712.773 489.352 710.676 489.352C708.801 489.352 707.26 488.824 706.053 487.77C704.857 486.703 704.26 485.355 704.26 483.727C704.26 481.746 705.01 480.211 706.51 479.121C708.021 478.02 710.143 477.469 712.873 477.469H716.037V475.975C716.037 474.838 715.697 473.936 715.018 473.268C714.338 472.588 713.336 472.248 712.012 472.248C710.852 472.248 709.879 472.541 709.094 473.127C708.309 473.713 707.916 474.422 707.916 475.254H704.646C704.646 474.305 704.98 473.391 705.648 472.512C706.328 471.621 707.242 470.918 708.391 470.402C709.551 469.887 710.822 469.629 712.205 469.629C714.396 469.629 716.113 470.18 717.355 471.281C718.598 472.371 719.242 473.877 719.289 475.799V484.553C719.289 486.299 719.512 487.688 719.957 488.719V489H716.547ZM711.15 486.521C712.17 486.521 713.137 486.258 714.051 485.73C714.965 485.203 715.627 484.518 716.037 483.674V479.771H713.488C709.504 479.771 707.512 480.938 707.512 483.27C707.512 484.289 707.852 485.086 708.531 485.66C709.211 486.234 710.084 486.521 711.15 486.521ZM727.445 469.98L727.533 472.09C728.928 470.449 730.809 469.629 733.176 469.629C735.836 469.629 737.646 470.648 738.607 472.688C739.24 471.773 740.061 471.035 741.068 470.473C742.088 469.91 743.289 469.629 744.672 469.629C748.844 469.629 750.965 471.838 751.035 476.256V489H747.783V476.449C747.783 475.09 747.473 474.076 746.852 473.408C746.23 472.729 745.188 472.389 743.723 472.389C742.516 472.389 741.514 472.752 740.717 473.479C739.92 474.193 739.457 475.16 739.328 476.379V489H736.059V476.537C736.059 473.771 734.705 472.389 731.998 472.389C729.865 472.389 728.406 473.297 727.621 475.113V489H724.369V469.98H727.445ZM763.85 489.352C761.271 489.352 759.174 488.508 757.557 486.82C755.939 485.121 755.131 482.854 755.131 480.018V479.42C755.131 477.533 755.488 475.852 756.203 474.375C756.93 472.887 757.938 471.727 759.227 470.895C760.527 470.051 761.934 469.629 763.445 469.629C765.918 469.629 767.84 470.443 769.211 472.072C770.582 473.701 771.268 476.033 771.268 479.068V480.422H758.383C758.43 482.297 758.975 483.814 760.018 484.975C761.072 486.123 762.408 486.697 764.025 486.697C765.174 486.697 766.146 486.463 766.943 485.994C767.74 485.525 768.438 484.904 769.035 484.131L771.021 485.678C769.428 488.127 767.037 489.352 763.85 489.352ZM763.445 472.301C762.133 472.301 761.031 472.781 760.141 473.742C759.25 474.691 758.699 476.027 758.488 477.75H768.016V477.504C767.922 475.852 767.477 474.574 766.68 473.672C765.883 472.758 764.805 472.301 763.445 472.301ZM775.117 487.295C775.117 486.732 775.281 486.264 775.609 485.889C775.949 485.514 776.453 485.326 777.121 485.326C777.789 485.326 778.293 485.514 778.633 485.889C778.984 486.264 779.16 486.732 779.16 487.295C779.16 487.834 778.984 488.285 778.633 488.648C778.293 489.012 777.789 489.193 777.121 489.193C776.453 489.193 775.949 489.012 775.609 488.648C775.281 488.285 775.117 487.834 775.117 487.295ZM784.609 487.295C784.609 486.732 784.773 486.264 785.102 485.889C785.441 485.514 785.945 485.326 786.613 485.326C787.281 485.326 787.785 485.514 788.125 485.889C788.477 486.264 788.652 486.732 788.652 487.295C788.652 487.834 788.477 488.285 788.125 488.648C787.785 489.012 787.281 489.193 786.613 489.193C785.945 489.193 785.441 489.012 785.102 488.648C784.773 488.285 784.609 487.834 784.609 487.295ZM794.102 487.295C794.102 486.732 794.266 486.264 794.594 485.889C794.934 485.514 795.438 485.326 796.105 485.326C796.773 485.326 797.277 485.514 797.617 485.889C797.969 486.264 798.145 486.732 798.145 487.295C798.145 487.834 797.969 488.285 797.617 488.648C797.277 489.012 796.773 489.193 796.105 489.193C795.438 489.193 794.934 489.012 794.594 488.648C794.266 488.285 794.102 487.834 794.102 487.295ZM803.594 487.295C803.594 486.732 803.758 486.264 804.086 485.889C804.426 485.514 804.93 485.326 805.598 485.326C806.266 485.326 806.77 485.514 807.109 485.889C807.461 486.264 807.637 486.732 807.637 487.295C807.637 487.834 807.461 488.285 807.109 488.648C806.77 489.012 806.266 489.193 805.598 489.193C804.93 489.193 804.426 489.012 804.086 488.648C803.758 488.285 803.594 487.834 803.594 487.295Z" fill="#959595"/>
<path d="M46 96.6C46 94.6118 47.6926 93 49.7805 93C51.8684 93 53.561 94.6118 53.561 96.6C53.561 98.5882 51.8684 100.2 49.7805 100.2C47.6926 100.2 46 98.5882 46 96.6Z" fill="#959595"/>
<path d="M77 111H46.7561V106.68L50.4907 103.124C50.9336 102.702 51.6517 102.702 52.0946 103.124L55.8293 106.68L67.1248 95.9237C67.5678 95.5019 68.2859 95.5019 68.7288 95.9237L77 103.8V111Z" fill="#959595"/>
<defs>
<filter id="filter0_d" x="294" y="263" width="935" height="514" filterUnits="userSpaceOnUse" color-interpolation-filters="sRGB">
<feFlood flood-opacity="0" result="BackgroundImageFix"/>
<feColorMatrix in="SourceAlpha" type="matrix" values="0 0 0 0 0 0 0 0 0 0 0 0 0 0 0 0 0 0 127 0"/>
<feOffset dy="8"/>
<feGaussianBlur stdDeviation="7.5"/>
<feColorMatrix type="matrix" values="0 0 0 0 0 0 0 0 0 0 0 0 0 0 0 0 0 0 0.2 0"/>
<feBlend mode="normal" in2="BackgroundImageFix" result="effect1_dropShadow"/>
<feBlend mode="normal" in="SourceGraphic" in2="effect1_dropShadow" result="shape"/>
</filter>
<filter id="filter1_d" x="631.301" y="345" width="220.396" height="42.6816" filterUnits="userSpaceOnUse" color-interpolation-filters="sRGB">
<feFlood flood-opacity="0" result="BackgroundImageFix"/>
<feColorMatrix in="SourceAlpha" type="matrix" values="0 0 0 0 0 0 0 0 0 0 0 0 0 0 0 0 0 0 127 0"/>
<feOffset dy="4"/>
<feGaussianBlur stdDeviation="2"/>
<feColorMatrix type="matrix" values="0 0 0 0 0 0 0 0 0 0 0 0 0 0 0 0 0 0 0.25 0"/>
<feBlend mode="normal" in2="BackgroundImageFix" result="effect1_dropShadow"/>
<feBlend mode="normal" in="SourceGraphic" in2="effect1_dropShadow" result="shape"/>
</filter>
<filter id="filter2_d" x="336" y="308" width="812" height="424" filterUnits="userSpaceOnUse" color-interpolation-filters="sRGB">
<feFlood flood-opacity="0" result="BackgroundImageFix"/>
<feColorMatrix in="SourceAlpha" type="matrix" values="0 0 0 0 0 0 0 0 0 0 0 0 0 0 0 0 0 0 127 0"/>
<feOffset dy="8"/>
<feGaussianBlur stdDeviation="7.5"/>
<feColorMatrix type="matrix" values="0 0 0 0 0 0 0 0 0 0 0 0 0 0 0 0 0 0 0.2 0"/>
<feBlend mode="normal" in2="BackgroundImageFix" result="effect1_dropShadow"/>
<feBlend mode="normal" in="SourceGraphic" in2="effect1_dropShadow" result="shape"/>
</filter>
<filter id="filter3_d" x="618.154" y="366" width="244.232" height="35.3516" filterUnits="userSpaceOnUse" color-interpolation-filters="sRGB">
<feFlood flood-opacity="0" result="BackgroundImageFix"/>
<feColorMatrix in="SourceAlpha" type="matrix" values="0 0 0 0 0 0 0 0 0 0 0 0 0 0 0 0 0 0 127 0"/>
<feOffset dy="4"/>
<feGaussianBlur stdDeviation="2"/>
<feColorMatrix type="matrix" values="0 0 0 0 0 0 0 0 0 0 0 0 0 0 0 0 0 0 0.25 0"/>
<feBlend mode="normal" in2="BackgroundImageFix" result="effect1_dropShadow"/>
<feBlend mode="normal" in="SourceGraphic" in2="effect1_dropShadow" result="shape"/>
</filter>
</defs>
</svg>
